{
.appVersion = "1350";
classes = (
{
code = "dottedCircle\012koKai-lao\012khoKhai-lao\012khoKhuay-lao\012# gha-lao\012ngoNgu-lao\012ngoNgu-lao.short\012coCok-lao\012# cha-lao\012soSang-lao\012# jha-lao\012nyoNyung-lao\012# nya-lao\012# tta-lao\012# ttha-lao\012# dda-lao\012# ddha-lao\012# nna-lao\012doDek-lao\012toTa-lao\012thoThong-lao\012thoThung-lao\012# dha-lao\012noNok-lao\012boBae-lao\012poPa-lao\012phoPhueng-lao\012foFon-lao\012phoPhu-lao\012foFai-lao\012# bha-lao\012moMa-lao\012yoYa-lao\012roRot-lao\012loLing-lao\012woWi-lao\012soSeua-lao\012# sha-lao\012# ssa-lao\012hoHaan-lao\012# lla-lao\012# lla-lao.ss02\012oO-lao\012hoHeuan-lao\012# khmuGo-lao\012# khmuNyo-lao\012hoNo-lao\012hoMo-lao\012";
name = laoBaseConsonants;
},
{
code = "niggahita-lao\012niggahita-lao.right\012";
name = niggahita;
},
{
code = "maiKanVowel-lao\012maiKanVowel-lao.narrow\012maiKanVowel-lao.centred\012maiKanVowel-lao.right\012iVowel-lao\012iVowel-lao.right\012iVowel-lao.narrow\012iiVowel-lao\012iiVowel-lao.right\012iiVowel-lao.narrow\012euVowel-lao\012euVowel-lao.right\012euVowel-lao.narrow\012euuVowel-lao\012euuVowel-lao.right\012euuVowel-lao.narrow\012maiKonVowel-lao\012maiKonVowel-lao.narrow\012maiKonVowel-lao.centred\012maiKonVowel-lao.right\012maiEk-lao\012## maiEk-lao.narrow # Remove\012maiEk-lao.small\012maiTho-lao\012maiTho-lao.narrow\012maiTho-lao.small\012maiTi-lao\012maiTi-lao.narrow\012maiTi-lao.small\012maiCatawa-lao\012maiCatawa-lao.narrow\012maiCatawa-lao.small\012karan-lao\012## karan-lao.narrow #Remove\012karan-lao.small\012niggahita-lao\012# niggahita-lao.narrow # Remove\012niggahita-lao.small\012niggahita-lao.right\012";
name = laoAboveMarks;
},
{
code = "maiEk-lao\012maiTho-lao\012maiTho-lao.narrow\012maiTi-lao\012maiTi-lao.narrow\012maiCatawa-lao\012maiCatawa-lao.narrow\012karan-lao\012niggahita-lao\012niggahita-lao.right";
name = laoToneMarks;
},
{

glyphs = (
{
glyphname = .notdef;
lastChange = "2020-12-10 16:28:08 +0000";
layers = (
{
layerId = "2CD50835-5B7E-4D2A-958C-2F579F79E971";
paths = (
{
closed = 1;
nodes = (
"505 0 LINE",
"505 714 LINE",
"94 714 LINE",
"94 0 LINE"
);
},
{
closed = 1;
nodes = (
"145 663 LINE",
"454 663 LINE",
"454 51 LINE",
"145 51 LINE"
);
}
);
width = 600;
},
{
layerId = "6E668239-F79A-4803-9842-9160852853A7";
paths = (
{
closed = 1;
nodes = (
"505 0 LINE",
"505 714 LINE",
"94 714 LINE",
"94 0 LINE"
);
},
{
closed = 1;
nodes = (
"145 663 LINE",
"454 663 LINE",
"454 51 LINE",
"145 51 LINE"
);
}
);
width = 600;
},
{
layerId = "EC79AED6-C145-434E-AE62-F6F3D2AFA8D1";
paths = (
{
closed = 1;
nodes = (
"496 0 LINE",
"496 714 LINE",
"85 714 LINE",
"85 0 LINE"
);
},
{
closed = 1;
nodes = (
"136 663 LINE",
"445 663 LINE",
"445 51 LINE",
"136 51 LINE"
);
}
);
width = 582;
},
{
layerId = "FFE3C573-8034-42D7-BBA7-2D1C8826F1F5";
paths = (
{
closed = 1;
nodes = (
"496 0 LINE",
"496 714 LINE",
"85 714 LINE",
"85 0 LINE"
);
},
{
closed = 1;
nodes = (
"136 663 LINE",
"445 663 LINE",
"445 51 LINE",
"136 51 LINE"
);
}
);
width = 600;
},
{
layerId = "CACD10EA-8E27-4203-9979-86A2B0F7ED74";
paths = (
{
closed = 1;
nodes = (
"496 0 LINE",
"496 714 LINE",
"85 714 LINE",
"85 0 LINE"
);
},
{
closed = 1;
nodes = (
"136 663 LINE",
"445 663 LINE",
"445 51 LINE",
"136 51 LINE"
);
}
);
width = 595;
},
{
layerId = "96C6A4AF-11F2-4EC9-996B-29C760E40A38";
paths = (
{
closed = 1;
nodes = (
"496 0 LINE",
"496 714 LINE",
"85 714 LINE",
"85 0 LINE"
);
},
{
closed = 1;
nodes = (
"136 663 LINE",
"445 663 LINE",
"445 51 LINE",
"136 51 LINE"
);
}
);
width = 582;
}
);
},
{
glyphname = "koKai-lao";
lastChange = "2020-12-17 09:43:21 +0000";
layers = (
{
anchors = (
{
name = bottom;
position = "{358, 0}";
},
{
name = bottomright;
position = "{605, 0}";
},
{
name = top;
position = "{384, 578}";
},
{
name = topright;
position = "{605, 578}";
}
);
layerId = "2CD50835-5B7E-4D2A-958C-2F579F79E971";
paths = (
{
closed = 1;
nodes = (
"605 0 LINE",
"605 359 LINE SMOOTH",
"605 469 OFFCURVE",
"534 538 OFFCURVE",
"422 538 CURVE SMOOTH",
"329 538 OFFCURVE",
"259 491 OFFCURVE",
"224 438 CURVE",
"246 455 LINE",
"221 455 LINE",
"228 413 LINE",
"273 471 OFFCURVE",
"335 513 OFFCURVE",
"422 513 CURVE SMOOTH",
"520 513 OFFCURVE",
"579 454 OFFCURVE",
"579 354 CURVE SMOOTH",
"579 0 LINE"
);
},
{
closed = 1;
nodes = (
"114 398 OFFCURVE",
"93 420 OFFCURVE",
"93 455 CURVE SMOOTH",
"93 490 OFFCURVE",
"114 512 OFFCURVE",
"149 512 CURVE SMOOTH",
"183 512 OFFCURVE",
"207 491 OFFCURVE",
"207 445 CURVE SMOOTH",
"207 438 OFFCURVE",
"207 432 OFFCURVE",
"207 424 CURVE",
"194 407 OFFCURVE",
"173 398 OFFCURVE",
"149 398 CURVE SMOOTH"
);
},
{
closed = 1;
nodes = (
"207 115 LINE",
"212 115 OFFCURVE",
"221 94 OFFCURVE",
"221 75 CURVE",
"225 75 LINE",
"225 124 OFFCURVE",
"195 155 OFFCURVE",
"147 155 CURVE SMOOTH",
"100 155 OFFCURVE",
"68 122 OFFCURVE",
"68 75 CURVE SMOOTH",
"68 27 OFFCURVE",
"101 -5 OFFCURVE",
"151 -5 CURVE SMOOTH",
"200 -5 OFFCURVE",
"233 28 OFFCURVE",
"233 78 CURVE",
"233 452 LINE",
"233 503 OFFCURVE",
"201 535 OFFCURVE",
"149 535 CURVE SMOOTH",
"101 535 OFFCURVE",
"68 503 OFFCURVE",
"68 455 CURVE SMOOTH",
"68 408 OFFCURVE",
"101 375 OFFCURVE",
"148 375 CURVE SMOOTH",
"206 375 OFFCURVE",
"231 422 OFFCURVE",
"231 452 CURVE",
"229 452 LINE",
"229 433 OFFCURVE",
"215 408 OFFCURVE",
"207 408 CURVE"
);
},
{
closed = 1;
nodes = (
"184 132 OFFCURVE",
"205 110 OFFCURVE",
"205 75 CURVE SMOOTH",
"205 40 OFFCURVE",
"184 18 OFFCURVE",
"149 18 CURVE SMOOTH",
"114 18 OFFCURVE",
"93 40 OFFCURVE",
"93 75 CURVE SMOOTH",
"93 110 OFFCURVE",
"114 132 OFFCURVE",
"149 132 CURVE SMOOTH"
);
}
);
width = 709;
},
{
anchors = (
{
name = bottom;
position = "{378, 0}";
},
{
name = bottomright;
position = "{631, 0}";
},
{
name = top;
position = "{382, 578}";
},
{
name = topright;
position = "{626, 578}";
}
);
hints = (
{
horizontal = 1;
origin = "{0, 4}";
target = "{0, 13}";
type = Stem;
},
{
horizontal = 1;
origin = "{0, 17}";
target = up;
type = BottomGhost;
},
{
origin = "{2, 0}";
target = "{2, 16}";
type = Stem;
},
{
origin = "{0, 17}";
target = "{0, 0}";
type = Stem;
},
{
horizontal = 1;
origin = "{2, 20}";
target = "{1, 5}";
type = Stem;
},
{
horizontal = 1;
origin = "{2, 13}";
target = "{3, 5}";
type = Stem;
}
);
layerId = "6E668239-F79A-4803-9842-9160852853A7";
paths = (
{
closed = 1;
nodes = (
"631 0 LINE",
"631 356 LINE SMOOTH",
"631 471 OFFCURVE",
"556 543 OFFCURVE",
"436 543 CURVE SMOOTH",
"348 543 OFFCURVE",
"282 497 OFFCURVE",
"248 453 CURVE",
"277 467 LINE",
"239 467 LINE",
"252 382 LINE",
"306 444 OFFCURVE",
"363 470 OFFCURVE",
"419 470 CURVE SMOOTH",
"498 470 OFFCURVE",
"545 425 OFFCURVE",
"545 347 CURVE SMOOTH",
"545 0 LINE"
);
},
{
closed = 1;
nodes = (
"126 390 OFFCURVE",
"107 409 OFFCURVE",
"107 441 CURVE SMOOTH",
"107 473 OFFCURVE",
"126 492 OFFCURVE",
"157 492 CURVE SMOOTH",
"189 492 OFFCURVE",
"207 473 OFFCURVE",
"207 441 CURVE SMOOTH",
"207 423 OFFCURVE",
"206 414 OFFCURVE",
"204 403 CURVE",
"195 397 OFFCURVE",
"178 390 OFFCURVE",
"157 390 CURVE SMOOTH"
);
},
{
closed = 1;
nodes = (
"175 165 LINE",
"204 165 OFFCURVE",
"242 124 OFFCURVE",
"242 92 CURVE",
"255 92 LINE",
"255 155 OFFCURVE",
"216 191 OFFCURVE",
"149 191 CURVE SMOOTH",
"92 191 OFFCURVE",
"53 151 OFFCURVE",
"53 93 CURVE SMOOTH",
"53 32 OFFCURVE",
"94 -7 OFFCURVE",
"157 -7 CURVE SMOOTH",
"221 -7 OFFCURVE",
"261 32 OFFCURVE",
"261 93 CURVE",
"261 431 LINE",
"261 502 OFFCURVE",
"221 540 OFFCURVE",
"156 540 CURVE SMOOTH",
"94 540 OFFCURVE",
"53 501 OFFCURVE",
"53 440 CURVE SMOOTH",
"53 381 OFFCURVE",
"93 342 OFFCURVE",
"155 342 CURVE SMOOTH",
"214 342 OFFCURVE",
"258 393 OFFCURVE",
"258 439 CURVE",
"253 439 LINE",
"253 404 OFFCURVE",
"205 367 OFFCURVE",
"175 367 CURVE"
);
},
{
closed = 1;
nodes = (
"188 143 OFFCURVE",
"207 124 OFFCURVE",
"207 92 CURVE SMOOTH",
"207 60 OFFCURVE",
"188 41 OFFCURVE",
"157 41 CURVE SMOOTH",
"126 41 OFFCURVE",
"107 60 OFFCURVE",
"107 92 CURVE SMOOTH",
"107 124 OFFCURVE",
"126 143 OFFCURVE",
"157 143 CURVE SMOOTH"
);
}
);
width = 721;
},
{
anchors = (
{
name = bottom;
position = "{372, 0}";
},
{
name = bottomright;
position = "{676, 0}";
},
{
name = top;
position = "{378, 578}";
},
{
name = topright;
position = "{666, 578}";
}
);
layerId = "EC79AED6-C145-434E-AE62-F6F3D2AFA8D1";
paths = (
{
closed = 1;
nodes = (
"676 0 LINE",
"676 345 LINE SMOOTH",
"676 478 OFFCURVE",
"597 558 OFFCURVE",
"466 558 CURVE SMOOTH",
"377 558 OFFCURVE",
"316 521 OFFCURVE",
"277 470 CURVE",
"304 488 LINE",
"256 488 LINE",
"297 372 LINE",
"325 399 OFFCURVE",
"363 412 OFFCURVE",
"400 412 CURVE SMOOTH",
"457 412 OFFCURVE",
"490 381 OFFCURVE",
"490 325 CURVE SMOOTH",
"490 0 LINE"
);
},
{
closed = 1;
nodes = (
"120 401 OFFCURVE",
"102 418 OFFCURVE",
"102 446 CURVE SMOOTH",
"102 474 OFFCURVE",
"120 491 OFFCURVE",
"150 491 CURVE SMOOTH",
"179 491 OFFCURVE",
"198 474 OFFCURVE",
"198 446 CURVE SMOOTH",
"198 433 OFFCURVE",
"198 423 OFFCURVE",
"196 412 CURVE",
"183 405 OFFCURVE",
"165 401 OFFCURVE",
"149 401 CURVE SMOOTH"
);
},
{
closed = 1;
nodes = (
"122 182 LINE",
"200 182 OFFCURVE",
"264 143 OFFCURVE",
"264 96 CURVE",
"289 96 LINE",
"289 174 OFFCURVE",
"214 204 OFFCURVE",
"137 204 CURVE SMOOTH",
"74 204 OFFCURVE",
"31 160 OFFCURVE",
"31 96 CURVE SMOOTH",
"31 33 OFFCURVE",
"82 -10 OFFCURVE",
"156 -10 CURVE SMOOTH",
"250 -10 OFFCURVE",
"308 47 OFFCURVE",
"308 139 CURVE",
"308 396 LINE",
"308 496 OFFCURVE",
"252 553 OFFCURVE",
"156 553 CURVE SMOOTH",
"82 553 OFFCURVE",
"31 510 OFFCURVE",
"31 447 CURVE SMOOTH",
"31 383 OFFCURVE",
"75 339 OFFCURVE",
"140 339 CURVE SMOOTH",
"223 339 OFFCURVE",
"297 378 OFFCURVE",
"297 438 CURVE",
"262 438 LINE",
"262 395 OFFCURVE",
"200 361 OFFCURVE",
"122 361 CURVE"
);
},
{
closed = 1;
nodes = (
"180 142 OFFCURVE",
"198 125 OFFCURVE",
"198 97 CURVE SMOOTH",
"198 69 OFFCURVE",
"180 52 OFFCURVE",
"150 52 CURVE SMOOTH",
"120 52 OFFCURVE",
"102 69 OFFCURVE",
"102 97 CURVE SMOOTH",
"102 125 OFFCURVE",
"120 142 OFFCURVE",
"150 142 CURVE SMOOTH"
);
}
);
width = 742;
},
{
anchors = (
{
name = bottom;
position = "{267, 0}";
},
{
name = bottomright;
position = "{432, 0}";
},
{
name = top;
position = "{277, 578}";
},
{
name = topright;
position = "{432, 578}";
}
);
layerId = "FFE3C573-8034-42D7-BBA7-2D1C8826F1F5";
paths = (
{
closed = 1;
nodes = (
"432 0 LINE",
"432 382 LINE SMOOTH",
"432 478 OFFCURVE",
"382 536 OFFCURVE",
"301 536 CURVE SMOOTH",
"236 536 OFFCURVE",
"185 487 OFFCURVE",
"161 436 CURVE",
"178 453 LINE",
"159 453 LINE",
"164 412 LINE",
"197 471 OFFCURVE",
"241 513 OFFCURVE",
"299 513 CURVE SMOOTH",
"369 513 OFFCURVE",
"408 464 OFFCURVE",
"408 377 CURVE SMOOTH",
"408 0 LINE"
);
},
{
closed = 1;
nodes = (
"81 396 OFFCURVE",
"67 417 OFFCURVE",
"67 454 CURVE SMOOTH",
"67 491 OFFCURVE",
"81 512 OFFCURVE",
"106 512 CURVE SMOOTH",
"132 512 OFFCURVE",
"146 489 OFFCURVE",
"146 444 CURVE SMOOTH",
"146 438 OFFCURVE",
"146 431 OFFCURVE",
"146 423 CURVE",
"137 406 OFFCURVE",
"123 396 OFFCURVE",
"106 396 CURVE SMOOTH"
);
},
{
closed = 1;
nodes = (
"144 114 LINE",
"150 114 OFFCURVE",
"157 93 OFFCURVE",
"157 75 CURVE",
"160 75 LINE",
"160 121 OFFCURVE",
"141 153 OFFCURVE",
"105 153 CURVE SMOOTH",
"69 153 OFFCURVE",
"45 122 OFFCURVE",
"45 75 CURVE SMOOTH",
"45 26 OFFCURVE",
"69 -5 OFFCURVE",
"106 -5 CURVE SMOOTH",
"144 -5 OFFCURVE",
"168 27 OFFCURVE",
"168 76 CURVE",
"168 451 LINE",
"168 500 OFFCURVE",
"144 533 OFFCURVE",
"107 533 CURVE SMOOTH",
"70 533 OFFCURVE",
"45 502 OFFCURVE",
"45 454 CURVE SMOOTH",
"45 406 OFFCURVE",
"69 375 OFFCURVE",
"105 375 CURVE SMOOTH",
"147 375 OFFCURVE",
"166 421 OFFCURVE",
"166 450 CURVE",
"162 450 LINE",
"162 432 OFFCURVE",
"152 407 OFFCURVE",
"144 407 CURVE"
);
},
{
closed = 1;
nodes = (
"131 132 OFFCURVE",
"145 111 OFFCURVE",
"145 74 CURVE SMOOTH",
"145 37 OFFCURVE",
"131 16 OFFCURVE",
"106 16 CURVE SMOOTH",
"81 16 OFFCURVE",
"67 37 OFFCURVE",
"67 74 CURVE SMOOTH",
"67 111 OFFCURVE",
"81 132 OFFCURVE",
"106 132 CURVE SMOOTH"
);
}
);
width = 502;
},
{
anchors = (
{
name = bottom;
position = "{282, 0}";
},
{
name = bottomright;
position = "{473, 0}";
},
{
name = top;
position = "{287, 578}";
},
{
name = topright;
position = "{468, 578}";
}
);
layerId = "CACD10EA-8E27-4203-9979-86A2B0F7ED74";
paths = (
{
closed = 1;
nodes = (
"473 0 LINE",
"473 385 LINE SMOOTH",
"473 482 OFFCURVE",
"415 541 OFFCURVE",
"330 541 CURVE SMOOTH",
"258 541 OFFCURVE",
"214 495 OFFCURVE",
"187 450 CURVE",
"206 468 LINE",
"178 468 LINE",
"192 388 LINE",
"225 442 OFFCURVE",
"263 475 OFFCURVE",
"309 475 CURVE SMOOTH",
"360 475 OFFCURVE",
"395 440 OFFCURVE",
"395 377 CURVE SMOOTH",
"395 0 LINE"
);
},
{
closed = 1;
nodes = (
"95 384 OFFCURVE",
"81 407 OFFCURVE",
"81 440 CURVE SMOOTH",
"81 472 OFFCURVE",
"95 494 OFFCURVE",
"115 494 CURVE SMOOTH",
"138 494 OFFCURVE",
"151 473 OFFCURVE",
"151 440 CURVE SMOOTH",
"151 419 OFFCURVE",
"150 409 OFFCURVE",
"149 399 CURVE",
"141 392 OFFCURVE",
"132 384 OFFCURVE",
"115 384 CURVE SMOOTH"
);
},
{
closed = 1;
nodes = (
"121 157 LINE",
"150 157 OFFCURVE",
"181 119 OFFCURVE",
"181 89 CURVE",
"192 89 LINE",
"192 153 OFFCURVE",
"156 191 OFFCURVE",
"107 191 CURVE SMOOTH",
"65 191 OFFCURVE",
"36 151 OFFCURVE",
"36 92 CURVE SMOOTH",
"36 30 OFFCURVE",
"67 -7 OFFCURVE",
"118 -7 CURVE SMOOTH",
"171 -7 OFFCURVE",
"199 32 OFFCURVE",
"199 103 CURVE",
"199 433 LINE",
"199 500 OFFCURVE",
"169 538 OFFCURVE",
"116 538 CURVE SMOOTH",
"66 538 OFFCURVE",
"36 501 OFFCURVE",
"36 440 CURVE SMOOTH",
"36 380 OFFCURVE",
"65 340 OFFCURVE",
"108 340 CURVE SMOOTH",
"159 340 OFFCURVE",
"195 394 OFFCURVE",
"195 440 CURVE",
"185 440 LINE",
"185 408 OFFCURVE",
"151 372 OFFCURVE",
"121 372 CURVE"
);
},
{
closed = 1;
nodes = (
"138 147 OFFCURVE",
"151 126 OFFCURVE",
"151 92 CURVE SMOOTH",
"151 58 OFFCURVE",
"138 37 OFFCURVE",
"116 37 CURVE SMOOTH",
"95 37 OFFCURVE",
"81 58 OFFCURVE",
"81 92 CURVE SMOOTH",
"81 126 OFFCURVE",
"95 147 OFFCURVE",
"116 147 CURVE SMOOTH"
);
}
);
width = 537;
},
{
anchors = (
{
name = bottom;
position = "{314, 0}";
},
{
name = bottomright;
position = "{563, 0}";
},
{
name = top;
position = "{317, 578}";
},
{
name = topright;
position = "{553, 578}";
}
);
layerId = "96C6A4AF-11F2-4EC9-996B-29C760E40A38";
paths = (
{
closed = 1;
nodes = (
"563 0 LINE",
"563 372 LINE SMOOTH",
"563 486 OFFCURVE",
"497 556 OFFCURVE",
"393 556 CURVE SMOOTH",
"317 556 OFFCURVE",
"268 518 OFFCURVE",
"239 468 CURVE",
"256 485 LINE",
"214 485 LINE",
"252 373 LINE",
"273 398 OFFCURVE",
"301 410 OFFCURVE",
"329 410 CURVE SMOOTH",
"367 410 OFFCURVE",
"391 388 OFFCURVE",
"391 349 CURVE SMOOTH",
"391 0 LINE"
);
},
{
closed = 1;
nodes = (
"99 399 OFFCURVE",
"85 417 OFFCURVE",
"85 445 CURVE SMOOTH",
"85 473 OFFCURVE",
"100 491 OFFCURVE",
"123 491 CURVE SMOOTH",
"148 491 OFFCURVE",
"163 473 OFFCURVE",
"163 445 CURVE SMOOTH",
"163 432 OFFCURVE",
"163 422 OFFCURVE",
"161 411 CURVE",
"151 404 OFFCURVE",
"135 399 OFFCURVE",
"122 399 CURVE SMOOTH"
);
},
{
closed = 1;
nodes = (
"90 179 LINE",
"163 179 OFFCURVE",
"222 140 OFFCURVE",
"222 95 CURVE",
"245 95 LINE",
"245 171 OFFCURVE",
"177 202 OFFCURVE",
"111 202 CURVE SMOOTH",
"58 202 OFFCURVE",
"21 158 OFFCURVE",
"21 96 CURVE SMOOTH",
"21 33 OFFCURVE",
"66 -10 OFFCURVE",
"134 -10 CURVE SMOOTH",
"212 -10 OFFCURVE",
"262 45 OFFCURVE",
"262 132 CURVE",
"262 401 LINE",
"262 496 OFFCURVE",
"214 551 OFFCURVE",
"132 551 CURVE SMOOTH",
"66 551 OFFCURVE",
"21 508 OFFCURVE",
"21 446 CURVE SMOOTH",
"21 383 OFFCURVE",
"59 339 OFFCURVE",
"112 339 CURVE SMOOTH",
"184 339 OFFCURVE",
"242 380 OFFCURVE",
"242 438 CURVE",
"219 438 LINE",
"219 396 OFFCURVE",
"162 362 OFFCURVE",
"90 362 CURVE"
);
},
{
closed = 1;
nodes = (
"148 142 OFFCURVE",
"163 125 OFFCURVE",
"163 96 CURVE SMOOTH",
"163 67 OFFCURVE",
"148 50 OFFCURVE",
"124 50 CURVE SMOOTH",
"100 50 OFFCURVE",
"85 67 OFFCURVE",
"85 96 CURVE SMOOTH",
"85 125 OFFCURVE",
"100 142 OFFCURVE",
"124 142 CURVE SMOOTH"
);
}
);
width = 613;
}
);
leftKerningGroup = "koKai-lao";
rightKerningGroup = "doDek-lao";
rightMetricsKey = "doDek-lao";
unicode = 0E81;
subCategory = Spacing;
},
{
glyphname = "khoKhai-lao";
lastChange = "2020-12-17 09:42:54 +0000";
layers = (
{
anchors = (
{
name = bottom;
position = "{303, 0}";
},
{
name = bottomright;
position = "{530, 0}";
},
{
name = top;
position = "{317, 578}";
},
{
name = topright;
position = "{528, 578}";
}
);
layerId = "2CD50835-5B7E-4D2A-958C-2F579F79E971";
paths = (
{
closed = 1;
nodes = (
"292 -8 OFFCURVE",
"394 71 OFFCURVE",
"452 71 CURVE SMOOTH",
"486 71 OFFCURVE",
"501 53 OFFCURVE",
"516 -8 CURVE",
"542 0 LINE",
"525 71 OFFCURVE",
"502 96 OFFCURVE",
"455 96 CURVE SMOOTH",
"387 96 OFFCURVE",
"283 17 OFFCURVE",
"207 17 CURVE SMOOTH",
"158 17 OFFCURVE",
"119 50 OFFCURVE",
"119 103 CURVE SMOOTH",
"119 151 OFFCURVE",
"143 179 OFFCURVE",
"202 197 CURVE SMOOTH",
"261 215 OFFCURVE",
"341 227 OFFCURVE",
"415 249 CURVE SMOOTH",
"489 271 OFFCURVE",
"528 308 OFFCURVE",
"528 381 CURVE SMOOTH",
"528 479 OFFCURVE",
"452 538 OFFCURVE",
"324 538 CURVE SMOOTH",
"182 538 OFFCURVE",
"92 485 OFFCURVE",
"92 398 CURVE SMOOTH",
"92 348 OFFCURVE",
"123 316 OFFCURVE",
"173 316 CURVE SMOOTH",
"223 316 OFFCURVE",
"254 347 OFFCURVE",
"254 396 CURVE SMOOTH",
"254 445 OFFCURVE",
"222 475 OFFCURVE",
"178 475 CURVE SMOOTH",
"133 475 OFFCURVE",
"100 440 OFFCURVE",
"100 396 CURVE",
"104 413 OFFCURVE",
"121 440 OFFCURVE",
"134 446 CURVE",
"134 470 OFFCURVE",
"192 513 OFFCURVE",
"324 513 CURVE SMOOTH",
"437 513 OFFCURVE",
"501 465 OFFCURVE",
"501 381 CURVE SMOOTH",
"501 321 OFFCURVE",
"466 291 OFFCURVE",
"403 271 CURVE SMOOTH",
"340 251 OFFCURVE",
"248 237 OFFCURVE",
"188 219 CURVE SMOOTH",
"128 201 OFFCURVE",
"92 163 OFFCURVE",
"92 101 CURVE SMOOTH",
"92 35 OFFCURVE",
"141 -8 OFFCURVE",
"205 -8 CURVE SMOOTH"
);
},
{
closed = 1;
nodes = (
"138 339 OFFCURVE",
"117 361 OFFCURVE",
"117 396 CURVE SMOOTH",
"117 431 OFFCURVE",
"139 453 OFFCURVE",
"173 453 CURVE SMOOTH",
"208 453 OFFCURVE",
"229 432 OFFCURVE",
"229 396 CURVE SMOOTH",
"229 360 OFFCURVE",
"208 339 OFFCURVE",
"173 339 CURVE SMOOTH"
);
}
);
width = 616;
},
{
anchors = (
{
name = bottom;
position = "{300, 0}";
},
{
name = bottomright;
position = "{561, 0}";
},
{
name = top;
position = "{325, 578}";
},
{
name = topright;
position = "{552, 578}";
}
);
hints = (
{
horizontal = 1;
origin = "{0, 27}";
target = "{0, 48}";
type = Stem;
},
{
horizontal = 1;
origin = "{0, 63}";
target = "{0, 12}";
type = Stem;
}
);
layerId = "6E668239-F79A-4803-9842-9160852853A7";
paths = (
{
closed = 1;
nodes = (
"280 -10 OFFCURVE",
"370 55 OFFCURVE",
"431 55 CURVE SMOOTH",
"461 55 OFFCURVE",
"478 35 OFFCURVE",
"491 -10 CURVE",
"571 15 LINE",
"549 97 OFFCURVE",
"520 129 OFFCURVE",
"459 129 CURVE SMOOTH",
"385 129 OFFCURVE",
"278 58 OFFCURVE",
"209 58 CURVE SMOOTH",
"166 58 OFFCURVE",
"147 82 OFFCURVE",
"147 116 CURVE SMOOTH",
"147 153 OFFCURVE",
"170 169 OFFCURVE",
"222 182 CURVE SMOOTH",
"274 195 OFFCURVE",
"367 206 OFFCURVE",
"438 230 CURVE SMOOTH",
"509 254 OFFCURVE",
"557 295 OFFCURVE",
"557 375 CURVE SMOOTH",
"557 480 OFFCURVE",
"470 543 OFFCURVE",
"323 543 CURVE SMOOTH",
"169 543 OFFCURVE",
"64 480 OFFCURVE",
"64 385 CURVE SMOOTH",
"64 323 OFFCURVE",
"104 284 OFFCURVE",
"166 284 CURVE SMOOTH",
"230 284 OFFCURVE",
"270 323 OFFCURVE",
"270 382 CURVE SMOOTH",
"270 439 OFFCURVE",
"231 474 OFFCURVE",
"164 474 CURVE SMOOTH",
"146 474 OFFCURVE",
"121 465 OFFCURVE",
"107 453 CURVE",
"141 458 OFFCURVE",
"172 457 OFFCURVE",
"205 453 CURVE",
"239 466 OFFCURVE",
"277 473 OFFCURVE",
"319 473 CURVE SMOOTH",
"417 473 OFFCURVE",
"473 436 OFFCURVE",
"473 374 CURVE SMOOTH",
"473 330 OFFCURVE",
"452 305 OFFCURVE",
"398 288 CURVE SMOOTH",
"344 271 OFFCURVE",
"224 252 OFFCURVE",
"167 235 CURVE SMOOTH",
"110 218 OFFCURVE",
"64 181 OFFCURVE",
"64 114 CURVE SMOOTH",
"64 41 OFFCURVE",
"117 -10 OFFCURVE",
"193 -10 CURVE SMOOTH"
);
},
{
closed = 1;
nodes = (
"137 332 OFFCURVE",
"118 351 OFFCURVE",
"118 383 CURVE SMOOTH",
"118 414 OFFCURVE",
"137 434 OFFCURVE",
"168 434 CURVE SMOOTH",
"199 434 OFFCURVE",
"218 414 OFFCURVE",
"218 383 CURVE SMOOTH",
"218 351 OFFCURVE",
"199 332 OFFCURVE",
"168 332 CURVE SMOOTH"
);
}
);
width = 624;
},
{
anchors = (
{
name = bottom;
position = "{321, 0}";
},
{
name = bottomright;
position = "{617, 0}";
},
{
name = top;
position = "{321, 578}";
},
{
name = topright;
position = "{596, 578}";
}
);
layerId = "EC79AED6-C145-434E-AE62-F6F3D2AFA8D1";
paths = (
{
closed = 1;
nodes = (
"281 -15 OFFCURVE",
"354 27 OFFCURVE",
"400 27 CURVE SMOOTH",
"435 27 OFFCURVE",
"449 7 OFFCURVE",
"456 -15 CURVE",
"624 44 LINE",
"601 135 OFFCURVE",
"570 175 OFFCURVE",
"496 175 CURVE SMOOTH",
"406 175 OFFCURVE",
"305 112 OFFCURVE",
"262 112 CURVE SMOOTH",
"243 112 OFFCURVE",
"233 121 OFFCURVE",
"233 134 CURVE SMOOTH",
"233 150 OFFCURVE",
"244 157 OFFCURVE",
"282 165 CURVE SMOOTH",
"320 173 OFFCURVE",
"372 181 OFFCURVE",
"451 200 CURVE SMOOTH",
"530 219 OFFCURVE",
"606 256 OFFCURVE",
"606 367 CURVE SMOOTH",
"606 489 OFFCURVE",
"505 558 OFFCURVE",
"330 558 CURVE SMOOTH",
"154 558 OFFCURVE",
"51 500 OFFCURVE",
"51 400 CURVE SMOOTH",
"51 331 OFFCURVE",
"98 288 OFFCURVE",
"176 288 CURVE SMOOTH",
"250 288 OFFCURVE",
"296 327 OFFCURVE",
"296 392 CURVE SMOOTH",
"296 434 OFFCURVE",
"275 481 OFFCURVE",
"196 481 CURVE SMOOTH",
"161 481 OFFCURVE",
"137 468 OFFCURVE",
"129 458 CURVE",
"216 457 OFFCURVE",
"250 444 OFFCURVE",
"252 420 CURVE",
"269 425 OFFCURVE",
"292 426 OFFCURVE",
"321 426 CURVE SMOOTH",
"387 426 OFFCURVE",
"423 406 OFFCURVE",
"423 369 CURVE SMOOTH",
"423 344 OFFCURVE",
"412 317 OFFCURVE",
"360 301 CURVE SMOOTH",
"308 285 OFFCURVE",
"251 278 OFFCURVE",
"183 260 CURVE SMOOTH",
"115 242 OFFCURVE",
"51 200 OFFCURVE",
"51 123 CURVE SMOOTH",
"51 41 OFFCURVE",
"113 -15 OFFCURVE",
"204 -15 CURVE SMOOTH"
);
},
{
closed = 1;
nodes = (
"153 347 OFFCURVE",
"135 364 OFFCURVE",
"135 392 CURVE SMOOTH",
"135 420 OFFCURVE",
"153 437 OFFCURVE",
"183 437 CURVE SMOOTH",
"213 437 OFFCURVE",
"231 420 OFFCURVE",
"231 392 CURVE SMOOTH",
"231 364 OFFCURVE",
"213 347 OFFCURVE",
"183 347 CURVE SMOOTH"
);
}
);
width = 662;
},
{
anchors = (
{
name = bottom;
position = "{226, 0}";
},
{
name = bottomright;
position = "{379, 0}";
},
{
name = top;
position = "{226, 578}";
},
{
name = topright;
position = "{378, 578}";
}
);
layerId = "FFE3C573-8034-42D7-BBA7-2D1C8826F1F5";
paths = (
{
closed = 1;
nodes = (
"214 -8 OFFCURVE",
"279 72 OFFCURVE",
"319 72 CURVE SMOOTH",
"342 72 OFFCURVE",
"353 54 OFFCURVE",
"364 -8 CURVE",
"388 -3 LINE",
"375 70 OFFCURVE",
"357 95 OFFCURVE",
"321 95 CURVE SMOOTH",
"274 95 OFFCURVE",
"207 15 OFFCURVE",
"153 15 CURVE SMOOTH",
"115 15 OFFCURVE",
"86 49 OFFCURVE",
"86 103 CURVE SMOOTH",
"86 150 OFFCURVE",
"115 177 OFFCURVE",
"156 196 CURVE SMOOTH",
"197 215 OFFCURVE",
"238 227 OFFCURVE",
"292 251 CURVE SMOOTH",
"346 275 OFFCURVE",
"378 308 OFFCURVE",
"378 382 CURVE SMOOTH",
"378 477 OFFCURVE",
"322 536 OFFCURVE",
"230 536 CURVE SMOOTH",
"129 536 OFFCURVE",
"62 483 OFFCURVE",
"62 396 CURVE SMOOTH",
"62 346 OFFCURVE",
"85 315 OFFCURVE",
"122 315 CURVE SMOOTH",
"160 315 OFFCURVE",
"184 344 OFFCURVE",
"184 394 CURVE SMOOTH",
"184 444 OFFCURVE",
"160 473 OFFCURVE",
"125 473 CURVE SMOOTH",
"93 473 OFFCURVE",
"69 434 OFFCURVE",
"69 393 CURVE",
"72 410 OFFCURVE",
"80 448 OFFCURVE",
"95 448 CURVE",
"98 468 OFFCURVE",
"140 513 OFFCURVE",
"230 513 CURVE SMOOTH",
"309 513 OFFCURVE",
"354 463 OFFCURVE",
"354 382 CURVE SMOOTH",
"354 317 OFFCURVE",
"324 290 OFFCURVE",
"280 270 CURVE SMOOTH",
"236 250 OFFCURVE",
"195 237 OFFCURVE",
"144 215 CURVE SMOOTH",
"93 193 OFFCURVE",
"62 160 OFFCURVE",
"62 101 CURVE SMOOTH",
"62 36 OFFCURVE",
"102 -8 OFFCURVE",
"153 -8 CURVE SMOOTH"
);
},
{
closed = 1;
nodes = (
"98 336 OFFCURVE",
"84 357 OFFCURVE",
"84 394 CURVE SMOOTH",
"84 431 OFFCURVE",
"98 452 OFFCURVE",
"123 452 CURVE SMOOTH",
"148 452 OFFCURVE",
"162 431 OFFCURVE",
"162 394 CURVE SMOOTH",
"162 357 OFFCURVE",
"148 336 OFFCURVE",
"123 336 CURVE SMOOTH"
);
}
);
width = 439;
},
{
anchors = (
{
name = bottom;
position = "{239, 0}";
},
{
name = bottomright;
position = "{421, 0}";
},
{
name = top;
position = "{239, 578}";
},
{
name = topright;
position = "{414, 578}";
}
);
layerId = "CACD10EA-8E27-4203-9979-86A2B0F7ED74";
paths = (
{
closed = 1;
nodes = (
"233 -10 OFFCURVE",
"285 58 OFFCURVE",
"321 58 CURVE SMOOTH",
"344 58 OFFCURVE",
"355 34 OFFCURVE",
"362 -10 CURVE",
"431 13 LINE",
"418 91 OFFCURVE",
"393 124 OFFCURVE",
"340 124 CURVE SMOOTH",
"270 124 OFFCURVE",
"218 56 OFFCURVE",
"172 56 CURVE SMOOTH",
"146 56 OFFCURVE",
"125 79 OFFCURVE",
"125 113 CURVE SMOOTH",
"125 146 OFFCURVE",
"141 170 OFFCURVE",
"181 185 CURVE SMOOTH",
"221 200 OFFCURVE",
"277 212 OFFCURVE",
"325 233 CURVE SMOOTH",
"373 254 OFFCURVE",
"419 297 OFFCURVE",
"419 375 CURVE SMOOTH",
"419 479 OFFCURVE",
"353 541 OFFCURVE",
"241 541 CURVE SMOOTH",
"124 541 OFFCURVE",
"49 479 OFFCURVE",
"49 388 CURVE SMOOTH",
"49 328 OFFCURVE",
"78 287 OFFCURVE",
"129 287 CURVE SMOOTH",
"180 287 OFFCURVE",
"210 327 OFFCURVE",
"210 386 CURVE SMOOTH",
"210 441 OFFCURVE",
"180 475 OFFCURVE",
"136 475 CURVE SMOOTH",
"109 475 OFFCURVE",
"90 462 OFFCURVE",
"84 445 CURVE",
"116 450 OFFCURVE",
"136 453 OFFCURVE",
"152 451 CURVE",
"167 464 OFFCURVE",
"193 476 OFFCURVE",
"238 476 CURVE SMOOTH",
"305 476 OFFCURVE",
"343 438 OFFCURVE",
"343 374 CURVE SMOOTH",
"343 328 OFFCURVE",
"321 301 OFFCURVE",
"284 285 CURVE SMOOTH",
"247 269 OFFCURVE",
"181 252 OFFCURVE",
"132 233 CURVE SMOOTH",
"83 214 OFFCURVE",
"49 176 OFFCURVE",
"49 111 CURVE SMOOTH",
"49 40 OFFCURVE",
"96 -10 OFFCURVE",
"155 -10 CURVE SMOOTH"
);
},
{
closed = 1;
nodes = (
"111 331 OFFCURVE",
"97 353 OFFCURVE",
"97 386 CURVE SMOOTH",
"97 420 OFFCURVE",
"111 441 OFFCURVE",
"132 441 CURVE SMOOTH",
"153 441 OFFCURVE",
"167 420 OFFCURVE",
"167 386 CURVE SMOOTH",
"167 353 OFFCURVE",
"153 331 OFFCURVE",
"132 331 CURVE SMOOTH"
);
}
);
width = 470;
},
{
anchors = (
{
name = bottom;
position = "{264, 0}";
},
{
name = bottomright;
position = "{517, 0}";
},
{
name = top;
position = "{264, 578}";
},
{
name = topright;
position = "{497, 578}";
}
);
layerId = "96C6A4AF-11F2-4EC9-996B-29C760E40A38";
paths = (
{
closed = 1;
nodes = (
"229 -15 OFFCURVE",
"286 31 OFFCURVE",
"322 31 CURVE SMOOTH",
"352 31 OFFCURVE",
"362 9 OFFCURVE",
"367 -14 CURVE",
"522 40 LINE",
"502 130 OFFCURVE",
"477 169 OFFCURVE",
"412 169 CURVE SMOOTH",
"335 169 OFFCURVE",
"259 113 OFFCURVE",
"228 113 CURVE SMOOTH",
"216 113 OFFCURVE",
"203 120 OFFCURVE",
"203 134 CURVE SMOOTH",
"203 152 OFFCURVE",
"213 159 OFFCURVE",
"236 166 CURVE SMOOTH",
"259 173 OFFCURVE",
"309 185 OFFCURVE",
"371 203 CURVE SMOOTH",
"433 221 OFFCURVE",
"507 261 OFFCURVE",
"507 368 CURVE SMOOTH",
"507 488 OFFCURVE",
"420 556 OFFCURVE",
"271 556 CURVE SMOOTH",
"123 556 OFFCURVE",
"37 497 OFFCURVE",
"37 398 CURVE SMOOTH",
"37 330 OFFCURVE",
"77 288 OFFCURVE",
"142 288 CURVE SMOOTH",
"207 288 OFFCURVE",
"248 327 OFFCURVE",
"248 391 CURVE SMOOTH",
"248 435 OFFCURVE",
"223 480 OFFCURVE",
"163 480 CURVE SMOOTH",
"136 480 OFFCURVE",
"117 468 OFFCURVE",
"109 457 CURVE",
"192 456 OFFCURVE",
"221 446 OFFCURVE",
"221 425 CURVE",
"235 431 OFFCURVE",
"251 432 OFFCURVE",
"263 432 CURVE SMOOTH",
"311 432 OFFCURVE",
"339 410 OFFCURVE",
"339 370 CURVE SMOOTH",
"339 342 OFFCURVE",
"332 315 OFFCURVE",
"289 299 CURVE SMOOTH",
"246 283 OFFCURVE",
"216 277 OFFCURVE",
"150 257 CURVE SMOOTH",
"84 237 OFFCURVE",
"37 195 OFFCURVE",
"37 122 CURVE SMOOTH",
"37 40 OFFCURVE",
"90 -15 OFFCURVE",
"167 -15 CURVE SMOOTH"
);
},
{
closed = 1;
nodes = (
"127 345 OFFCURVE",
"112 362 OFFCURVE",
"112 391 CURVE SMOOTH",
"112 420 OFFCURVE",
"127 437 OFFCURVE",
"151 437 CURVE SMOOTH",
"175 437 OFFCURVE",
"190 420 OFFCURVE",
"190 391 CURVE SMOOTH",
"190 362 OFFCURVE",
"175 345 OFFCURVE",
"151 345 CURVE SMOOTH"
);
}
);
width = 549;
}
);
leftKerningGroup = "khoKhai-lao";
rightKerningGroup = "khoKhai-lao";
unicode = 0E82;
subCategory = Spacing;
},
{
glyphname = "khoKhuay-lao";
lastChange = "2020-12-17 09:42:54 +0000";
layers = (
{
anchors = (
{
name = bottom;
position = "{322, 0}";
},
{
name = bottomright;
position = "{545, 0}";
},
{
name = top;
position = "{318, 578}";
},
{
name = topright;
position = "{545, 578}";
}
);
layerId = "2CD50835-5B7E-4D2A-958C-2F579F79E971";
paths = (
{
closed = 1;
nodes = (
"236 -5 OFFCURVE",
"270 28 OFFCURVE",
"270 75 CURVE SMOOTH",
"270 122 OFFCURVE",
"237 155 OFFCURVE",
"189 155 CURVE SMOOTH",
"146 155 OFFCURVE",
"116 126 OFFCURVE",
"116 86 CURVE",
"119 84 LINE",
"116 101 OFFCURVE",
"114 109 OFFCURVE",
"114 126 CURVE SMOOTH",
"114 204 OFFCURVE",
"167 261 OFFCURVE",
"244 261 CURVE SMOOTH",
"299 261 LINE",
"299 285 LINE",
"244 285 LINE SMOOTH",
"165 285 OFFCURVE",
"117 325 OFFCURVE",
"117 392 CURVE SMOOTH",
"117 469 OFFCURVE",
"196 513 OFFCURVE",
"313 513 CURVE SMOOTH",
"449 513 OFFCURVE",
"519 454 OFFCURVE",
"519 355 CURVE SMOOTH",
"519 0 LINE",
"545 0 LINE",
"545 360 LINE SMOOTH",
"545 469 OFFCURVE",
"463 538 OFFCURVE",
"313 538 CURVE SMOOTH",
"181 538 OFFCURVE",
"90 484 OFFCURVE",
"90 392 CURVE SMOOTH",
"90 307 OFFCURVE",
"158 281 OFFCURVE",
"197 274 CURVE",
"197 272 LINE",
"160 264 OFFCURVE",
"87 228 OFFCURVE",
"87 125 CURVE SMOOTH",
"87 49 OFFCURVE",
"128 -5 OFFCURVE",
"189 -5 CURVE SMOOTH"
);
},
{
closed = 1;
nodes = (
"154 18 OFFCURVE",
"133 40 OFFCURVE",
"133 75 CURVE SMOOTH",
"133 110 OFFCURVE",
"154 132 OFFCURVE",
"189 132 CURVE SMOOTH",
"224 132 OFFCURVE",
"245 110 OFFCURVE",
"245 75 CURVE SMOOTH",
"245 40 OFFCURVE",
"224 18 OFFCURVE",
"189 18 CURVE SMOOTH"
);
}
);
width = 649;
},
{
anchors = (
{
name = bottom;
position = "{333, 0}";
},
{
name = bottomright;
position = "{577, 0}";
},
{
name = top;
position = "{329, 578}";
},
{
name = topright;
position = "{572, 578}";
}
);
hints = (
{
horizontal = 1;
origin = "{0, 33}";
target = "{0, 24}";
type = Stem;
},
{
horizontal = 1;
origin = "{0, 28}";
target = up;
type = BottomGhost;
},
{
origin = "{0, 28}";
target = "{0, 29}";
type = Stem;
},
{
horizontal = 1;
origin = "{0, 46}";
target = "{1, 11}";
type = Stem;
}
);
layerId = "6E668239-F79A-4803-9842-9160852853A7";
paths = (
{
closed = 1;
nodes = (
"254 -7 OFFCURVE",
"295 32 OFFCURVE",
"295 93 CURVE SMOOTH",
"295 151 OFFCURVE",
"256 191 OFFCURVE",
"199 191 CURVE SMOOTH",
"156 191 OFFCURVE",
"131 166 OFFCURVE",
"131 130 CURVE",
"147 131 LINE",
"147 137 OFFCURVE",
"147 146 OFFCURVE",
"147 148 CURVE SMOOTH",
"147 200 OFFCURVE",
"195 237 OFFCURVE",
"267 237 CURVE SMOOTH",
"305 237 LINE",
"305 304 LINE",
"267 304 LINE SMOOTH",
"197 304 OFFCURVE",
"162 330 OFFCURVE",
"162 381 CURVE SMOOTH",
"162 438 OFFCURVE",
"226 470 OFFCURVE",
"319 470 CURVE SMOOTH",
"434 470 OFFCURVE",
"491 421 OFFCURVE",
"491 340 CURVE SMOOTH",
"491 0 LINE",
"577 0 LINE",
"577 352 LINE SMOOTH",
"577 468 OFFCURVE",
"485 543 OFFCURVE",
"319 543 CURVE SMOOTH",
"173 543 OFFCURVE",
"75 487 OFFCURVE",
"75 392 CURVE SMOOTH",
"75 302 OFFCURVE",
"157 276 OFFCURVE",
"193 271 CURVE",
"193 267 LINE",
"151 260 OFFCURVE",
"72 220 OFFCURVE",
"72 119 CURVE SMOOTH",
"72 44 OFFCURVE",
"118 -7 OFFCURVE",
"191 -7 CURVE SMOOTH"
);
},
{
closed = 1;
nodes = (
"160 41 OFFCURVE",
"141 60 OFFCURVE",
"141 92 CURVE SMOOTH",
"141 124 OFFCURVE",
"160 143 OFFCURVE",
"191 143 CURVE SMOOTH",
"222 143 OFFCURVE",
"241 124 OFFCURVE",
"241 92 CURVE SMOOTH",
"241 60 OFFCURVE",
"222 41 OFFCURVE",
"191 41 CURVE SMOOTH"
);
}
);
width = 667;
},
{
anchors = (
{
name = bottom;
position = "{343, 0}";
},
{
name = bottomright;
position = "{632, 0}";
},
{
name = top;
position = "{343, 578}";
},
{
name = topright;
position = "{622, 578}";
}
);
layerId = "EC79AED6-C145-434E-AE62-F6F3D2AFA8D1";
paths = (
{
closed = 1;
nodes = (
"275 -10 OFFCURVE",
"326 33 OFFCURVE",
"326 96 CURVE SMOOTH",
"326 160 OFFCURVE",
"283 204 OFFCURVE",
"220 204 CURVE SMOOTH",
"181 204 OFFCURVE",
"139 172 OFFCURVE",
"139 147 CURVE",
"194 151 LINE",
"194 154 OFFCURVE",
"194 158 OFFCURVE",
"194 161 CURVE SMOOTH",
"194 207 OFFCURVE",
"234 233 OFFCURVE",
"308 233 CURVE SMOOTH",
"317 233 LINE",
"317 344 LINE",
"303 344 LINE SMOOTH",
"263 344 OFFCURVE",
"237 356 OFFCURVE",
"237 375 CURVE SMOOTH",
"237 399 OFFCURVE",
"278 412 OFFCURVE",
"330 412 CURVE SMOOTH",
"410 412 OFFCURVE",
"446 379 OFFCURVE",
"446 327 CURVE SMOOTH",
"446 0 LINE",
"632 0 LINE",
"632 345 LINE SMOOTH",
"632 476 OFFCURVE",
"523 558 OFFCURVE",
"329 558 CURVE SMOOTH",
"163 558 OFFCURVE",
"53 499 OFFCURVE",
"53 401 CURVE SMOOTH",
"53 323 OFFCURVE",
"114 291 OFFCURVE",
"163 284 CURVE",
"163 279 LINE",
"109 261 OFFCURVE",
"48 219 OFFCURVE",
"48 127 CURVE SMOOTH",
"48 48 OFFCURVE",
"107 -10 OFFCURVE",
"201 -10 CURVE SMOOTH"
);
},
{
closed = 1;
nodes = (
"177 52 OFFCURVE",
"159 69 OFFCURVE",
"159 97 CURVE SMOOTH",
"159 125 OFFCURVE",
"177 142 OFFCURVE",
"207 142 CURVE SMOOTH",
"237 142 OFFCURVE",
"255 125 OFFCURVE",
"255 97 CURVE SMOOTH",
"255 69 OFFCURVE",
"237 52 OFFCURVE",
"207 52 CURVE SMOOTH"
);
}
);
width = 698;
},
{
anchors = (
{
name = bottom;
position = "{231, 0}";
},
{
name = bottomright;
position = "{389, 0}";
},
{
name = top;
position = "{226, 578}";
},
{
name = topright;
position = "{389, 578}";
}
);
layerId = "FFE3C573-8034-42D7-BBA7-2D1C8826F1F5";
paths = (
{
closed = 1;
nodes = (
"171 -5 OFFCURVE",
"195 26 OFFCURVE",
"195 75 CURVE SMOOTH",
"195 122 OFFCURVE",
"171 153 OFFCURVE",
"135 153 CURVE SMOOTH",
"102 153 OFFCURVE",
"80 128 OFFCURVE",
"80 85 CURVE",
"86 83 LINE",
"84 97 OFFCURVE",
"83 107 OFFCURVE",
"83 126 CURVE SMOOTH",
"83 203 OFFCURVE",
"121 260 OFFCURVE",
"175 260 CURVE SMOOTH",
"212 260 LINE",
"212 282 LINE",
"175 282 LINE SMOOTH",
"120 282 OFFCURVE",
"86 324 OFFCURVE",
"86 390 CURVE SMOOTH",
"86 468 OFFCURVE",
"141 513 OFFCURVE",
"222 513 CURVE SMOOTH",
"316 513 OFFCURVE",
"365 460 OFFCURVE",
"365 373 CURVE SMOOTH",
"365 0 LINE",
"389 0 LINE",
"389 377 LINE SMOOTH",
"389 475 OFFCURVE",
"330 536 OFFCURVE",
"222 536 CURVE SMOOTH",
"128 536 OFFCURVE",
"62 482 OFFCURVE",
"62 390 CURVE SMOOTH",
"62 307 OFFCURVE",
"112 279 OFFCURVE",
"139 272 CURVE",
"139 270 LINE",
"113 262 OFFCURVE",
"60 229 OFFCURVE",
"60 125 CURVE SMOOTH",
"60 47 OFFCURVE",
"87 -5 OFFCURVE",
"134 -5 CURVE SMOOTH"
);
},
{
closed = 1;
nodes = (
"109 16 OFFCURVE",
"95 37 OFFCURVE",
"95 74 CURVE SMOOTH",
"95 111 OFFCURVE",
"109 132 OFFCURVE",
"134 132 CURVE SMOOTH",
"159 132 OFFCURVE",
"173 111 OFFCURVE",
"173 74 CURVE SMOOTH",
"173 37 OFFCURVE",
"159 16 OFFCURVE",
"134 16 CURVE SMOOTH"
);
}
);
width = 459;
},
{
anchors = (
{
name = bottom;
position = "{245, 0}";
},
{
name = bottomright;
position = "{435, 0}";
},
{
name = top;
position = "{245, 578}";
},
{
name = topright;
position = "{430, 578}";
}
);
layerId = "CACD10EA-8E27-4203-9979-86A2B0F7ED74";
paths = (
{
closed = 1;
nodes = (
"192 -7 OFFCURVE",
"223 30 OFFCURVE",
"223 92 CURVE SMOOTH",
"223 151 OFFCURVE",
"194 191 OFFCURVE",
"152 191 CURVE SMOOTH",
"103 191 OFFCURVE",
"96 159 OFFCURVE",
"96 123 CURVE",
"115 143 LINE",
"115 147 OFFCURVE",
"115 152 OFFCURVE",
"115 153 CURVE SMOOTH",
"115 207 OFFCURVE",
"149 239 OFFCURVE",
"204 239 CURVE SMOOTH",
"228 239 LINE",
"228 299 LINE",
"202 299 LINE SMOOTH",
"156 299 OFFCURVE",
"130 333 OFFCURVE",
"130 381 CURVE SMOOTH",
"130 443 OFFCURVE",
"175 475 OFFCURVE",
"238 475 CURVE SMOOTH",
"318 475 OFFCURVE",
"357 425 OFFCURVE",
"357 342 CURVE SMOOTH",
"357 0 LINE",
"435 0 LINE",
"435 352 LINE SMOOTH",
"435 467 OFFCURVE",
"364 541 OFFCURVE",
"237 541 CURVE SMOOTH",
"127 541 OFFCURVE",
"53 485 OFFCURVE",
"53 391 CURVE SMOOTH",
"53 304 OFFCURVE",
"108 275 OFFCURVE",
"136 270 CURVE",
"136 268 LINE",
"103 259 OFFCURVE",
"50 221 OFFCURVE",
"50 120 CURVE SMOOTH",
"50 36 OFFCURVE",
"87 -7 OFFCURVE",
"141 -7 CURVE SMOOTH"
);
},
{
closed = 1;
nodes = (
"121 37 OFFCURVE",
"108 58 OFFCURVE",
"108 92 CURVE SMOOTH",
"108 126 OFFCURVE",
"121 147 OFFCURVE",
"143 147 CURVE SMOOTH",
"164 147 OFFCURVE",
"178 126 OFFCURVE",
"178 92 CURVE SMOOTH",
"178 58 OFFCURVE",
"164 37 OFFCURVE",
"143 37 CURVE SMOOTH"
);
}
);
width = 499;
},
{
anchors = (
{
name = bottom;
position = "{285, 0}";
},
{
name = bottomright;
position = "{529, 0}";
},
{
name = top;
position = "{285, 578}";
},
{
name = topright;
position = "{519, 578}";
}
);
layerId = "96C6A4AF-11F2-4EC9-996B-29C760E40A38";
paths = (
{
closed = 1;
nodes = (
"231 -10 OFFCURVE",
"276 33 OFFCURVE",
"276 96 CURVE SMOOTH",
"276 158 OFFCURVE",
"239 202 OFFCURVE",
"186 202 CURVE SMOOTH",
"153 202 OFFCURVE",
"117 170 OFFCURVE",
"117 144 CURVE",
"169 147 LINE",
"169 151 OFFCURVE",
"169 158 OFFCURVE",
"169 159 CURVE SMOOTH",
"169 205 OFFCURVE",
"200 233 OFFCURVE",
"261 233 CURVE SMOOTH",
"263 233 LINE",
"263 338 LINE",
"256 338 LINE SMOOTH",
"229 338 OFFCURVE",
"210 351 OFFCURVE",
"210 373 CURVE SMOOTH",
"210 398 OFFCURVE",
"240 410 OFFCURVE",
"273 410 CURVE SMOOTH",
"331 410 OFFCURVE",
"357 379 OFFCURVE",
"357 328 CURVE SMOOTH",
"357 0 LINE",
"529 0 LINE",
"529 346 LINE SMOOTH",
"529 475 OFFCURVE",
"436 556 OFFCURVE",
"272 556 CURVE SMOOTH",
"132 556 OFFCURVE",
"39 497 OFFCURVE",
"39 401 CURVE SMOOTH",
"39 326 OFFCURVE",
"88 288 OFFCURVE",
"130 282 CURVE",
"130 277 LINE",
"83 260 OFFCURVE",
"35 218 OFFCURVE",
"35 129 CURVE SMOOTH",
"35 45 OFFCURVE",
"83 -10 OFFCURVE",
"163 -10 CURVE SMOOTH"
);
},
{
closed = 1;
nodes = (
"149 50 OFFCURVE",
"134 67 OFFCURVE",
"134 96 CURVE SMOOTH",
"134 125 OFFCURVE",
"149 142 OFFCURVE",
"173 142 CURVE SMOOTH",
"197 142 OFFCURVE",
"212 125 OFFCURVE",
"212 96 CURVE SMOOTH",
"212 67 OFFCURVE",
"197 50 OFFCURVE",
"173 50 CURVE SMOOTH"
);
}
);
width = 579;
}
);
leftKerningGroup = "khoKhuay-lao";
leftMetricsKey = "nyoNyung-lao";
rightKerningGroup = "doDek-lao";
rightMetricsKey = "doDek-lao";
unicode = 0E84;
subCategory = Spacing;
},
{
glyphname = "ngoNgu-lao";
lastChange = "2020-12-17 09:42:54 +0000";
layers = (
{
anchors = (
{
name = bottom;
position = "{233, -200}";
},
{
name = bottomright;
position = "{434, -190}";
},
{
name = top;
position = "{233, 578}";
},
{
name = topright;
position = "{414, 578}";
}
);
layerId = "2CD50835-5B7E-4D2A-958C-2F579F79E971";
paths = (
{
closed = 1;
nodes = (
"434 354 LINE SMOOTH",
"434 466 OFFCURVE",
"360 538 OFFCURVE",
"243 538 CURVE SMOOTH",
"125 538 OFFCURVE",
"52 474 OFFCURVE",
"52 385 CURVE SMOOTH",
"52 327 OFFCURVE",
"85 296 OFFCURVE",
"134 296 CURVE SMOOTH",
"184 296 OFFCURVE",
"216 328 OFFCURVE",
"216 376 CURVE SMOOTH",
"216 424 OFFCURVE",
"184 455 OFFCURVE",
"136 455 CURVE SMOOTH",
"89 455 OFFCURVE",
"60 425 OFFCURVE",
"60 373 CURVE",
"69 359 LINE",
"69 456 OFFCURVE",
"134 513 OFFCURVE",
"241 513 CURVE SMOOTH",
"343 513 OFFCURVE",
"408 449 OFFCURVE",
"408 349 CURVE SMOOTH",
"408 19 LINE SMOOTH",
"408 -87 OFFCURVE",
"341 -155 OFFCURVE",
"237 -155 CURVE SMOOTH",
"162 -155 OFFCURVE",
"120 -135 OFFCURVE",
"70 -102 CURVE",
"59 -123 LINE",
"107 -160 OFFCURVE",
"162 -180 OFFCURVE",
"237 -180 CURVE SMOOTH",
"357 -180 OFFCURVE",
"434 -104 OFFCURVE",
"434 14 CURVE SMOOTH"
);
},
{
closed = 1;
nodes = (
"99 319 OFFCURVE",
"77 341 OFFCURVE",
"77 376 CURVE SMOOTH",
"77 411 OFFCURVE",
"99 433 OFFCURVE",
"134 433 CURVE SMOOTH",
"169 433 OFFCURVE",
"191 411 OFFCURVE",
"191 376 CURVE SMOOTH",
"191 341 OFFCURVE",
"169 319 OFFCURVE",
"134 319 CURVE SMOOTH"
);
}
);
width = 538;
},
{
anchors = (
{
name = bottom;
position = "{231, -190}";
},
{
name = bottomright;
position = "{452, -180}";
},
{
name = top;
position = "{240, 578}";
},
{
name = topright;
position = "{457, 578}";
}
);
hints = (
{
horizontal = 1;
origin = "{0, 36}";
target = "{0, 29}";
type = Stem;
},
{
horizontal = 1;
origin = "{0, 3}";
target = "{0, 22}";
type = Stem;
},
{
origin = "{0, 26}";
target = "{0, 39}";
type = Stem;
}
);
layerId = "6E668239-F79A-4803-9842-9160852853A7";
paths = (
{
closed = 1;
nodes = (
"457 348 LINE SMOOTH",
"457 467 OFFCURVE",
"369 543 OFFCURVE",
"234 543 CURVE SMOOTH",
"107 543 OFFCURVE",
"23 478 OFFCURVE",
"23 376 CURVE SMOOTH",
"23 301 OFFCURVE",
"67 258 OFFCURVE",
"132 258 CURVE SMOOTH",
"193 258 OFFCURVE",
"235 296 OFFCURVE",
"235 352 CURVE SMOOTH",
"235 408 OFFCURVE",
"193 448 OFFCURVE",
"136 448 CURVE SMOOTH",
"78 448 OFFCURVE",
"37 409 OFFCURVE",
"37 353 CURVE",
"76 344 LINE",
"76 421 OFFCURVE",
"134 470 OFFCURVE",
"224 470 CURVE SMOOTH",
"314 470 OFFCURVE",
"371 417 OFFCURVE",
"371 334 CURVE SMOOTH",
"371 30 LINE SMOOTH",
"371 -53 OFFCURVE",
"309 -107 OFFCURVE",
"213 -107 CURVE SMOOTH",
"155 -107 OFFCURVE",
"110 -88 OFFCURVE",
"67 -63 CURVE",
"34 -127 LINE",
"79 -161 OFFCURVE",
"149 -180 OFFCURVE",
"221 -180 CURVE SMOOTH",
"365 -180 OFFCURVE",
"457 -103 OFFCURVE",
"457 16 CURVE SMOOTH"
);
},
{
closed = 1;
nodes = (
"102 303 OFFCURVE",
"84 321 OFFCURVE",
"84 353 CURVE SMOOTH",
"84 384 OFFCURVE",
"102 403 OFFCURVE",
"133 403 CURVE SMOOTH",
"164 403 OFFCURVE",
"182 385 OFFCURVE",
"182 353 CURVE SMOOTH",
"182 321 OFFCURVE",
"164 303 OFFCURVE",
"133 303 CURVE SMOOTH"
);
}
);
width = 547;
},
{
anchors = (
{
name = bottom;
position = "{272, -192}";
},
{
name = bottomright;
position = "{513, -182}";
},
{
name = top;
position = "{263, 578}";
},
{
name = topright;
position = "{525, 578}";
}
);
layerId = "EC79AED6-C145-434E-AE62-F6F3D2AFA8D1";
paths = (
{
closed = 1;
nodes = (
"523 342 LINE SMOOTH",
"523 474 OFFCURVE",
"421 558 OFFCURVE",
"261 558 CURVE SMOOTH",
"107 558 OFFCURVE",
"9 488 OFFCURVE",
"9 378 CURVE SMOOTH",
"9 297 OFFCURVE",
"58 247 OFFCURVE",
"136 247 CURVE SMOOTH",
"207 247 OFFCURVE",
"250 287 OFFCURVE",
"250 352 CURVE SMOOTH",
"250 417 OFFCURVE",
"207 457 OFFCURVE",
"144 457 CURVE SMOOTH",
"81 457 OFFCURVE",
"37 414 OFFCURVE",
"37 352 CURVE",
"82 344 LINE",
"82 402 OFFCURVE",
"132 436 OFFCURVE",
"210 436 CURVE SMOOTH",
"288 436 OFFCURVE",
"337 398 OFFCURVE",
"337 334 CURVE SMOOTH",
"337 76 LINE SMOOTH",
"337 8 OFFCURVE",
"287 -36 OFFCURVE",
"208 -36 CURVE SMOOTH",
"158 -36 OFFCURVE",
"118 -21 OFFCURVE",
"83 -2 CURVE",
"19 -129 LINE",
"71 -164 OFFCURVE",
"152 -182 OFFCURVE",
"244 -182 CURVE SMOOTH",
"414 -182 OFFCURVE",
"523 -94 OFFCURVE",
"523 44 CURVE SMOOTH"
);
},
{
closed = 1;
nodes = (
"109 306 OFFCURVE",
"90 324 OFFCURVE",
"90 352 CURVE SMOOTH",
"90 380 OFFCURVE",
"109 398 OFFCURVE",
"138 398 CURVE SMOOTH",
"167 398 OFFCURVE",
"186 380 OFFCURVE",
"186 352 CURVE SMOOTH",
"186 324 OFFCURVE",
"167 306 OFFCURVE",
"138 306 CURVE SMOOTH"
);
}
);
width = 589;
},
{
anchors = (
{
name = bottom;
position = "{175, -200}";
},
{
name = bottomright;
position = "{310, -190}";
},
{
name = top;
position = "{166, 578}";
},
{
name = topright;
position = "{297, 578}";
}
);
layerId = "FFE3C573-8034-42D7-BBA7-2D1C8826F1F5";
paths = (
{
closed = 1;
nodes = (
"310 367 LINE SMOOTH",
"310 472 OFFCURVE",
"256 536 OFFCURVE",
"171 536 CURVE SMOOTH",
"87 536 OFFCURVE",
"34 472 OFFCURVE",
"34 383 CURVE SMOOTH",
"34 325 OFFCURVE",
"58 295 OFFCURVE",
"95 295 CURVE SMOOTH",
"132 295 OFFCURVE",
"157 326 OFFCURVE",
"157 375 CURVE SMOOTH",
"157 422 OFFCURVE",
"132 452 OFFCURVE",
"96 452 CURVE SMOOTH",
"61 452 OFFCURVE",
"40 422 OFFCURVE",
"40 371 CURVE",
"49 357 LINE",
"49 454 OFFCURVE",
"95 513 OFFCURVE",
"169 513 CURVE SMOOTH",
"240 513 OFFCURVE",
"286 462 OFFCURVE",
"286 362 CURVE SMOOTH",
"286 8 LINE SMOOTH",
"286 -95 OFFCURVE",
"242 -156 OFFCURVE",
"166 -156 CURVE SMOOTH",
"117 -156 OFFCURVE",
"88 -138 OFFCURVE",
"53 -103 CURVE",
"40 -123 LINE",
"74 -160 OFFCURVE",
"114 -180 OFFCURVE",
"167 -180 CURVE SMOOTH",
"256 -180 OFFCURVE",
"310 -110 OFFCURVE",
"310 4 CURVE SMOOTH"
);
},
{
closed = 1;
nodes = (
"70 316 OFFCURVE",
"55 337 OFFCURVE",
"55 374 CURVE SMOOTH",
"55 411 OFFCURVE",
"70 432 OFFCURVE",
"95 432 CURVE SMOOTH",
"120 432 OFFCURVE",
"135 411 OFFCURVE",
"135 374 CURVE SMOOTH",
"135 337 OFFCURVE",
"120 316 OFFCURVE",
"95 316 CURVE SMOOTH"
);
}
);
width = 380;
},
{
anchors = (
{
name = bottom;
position = "{187, -190}";
},
{
name = bottomright;
position = "{346, -180}";
},
{
name = top;
position = "{183, 578}";
},
{
name = topright;
position = "{348, 578}";
}
);
layerId = "CACD10EA-8E27-4203-9979-86A2B0F7ED74";
paths = (
{
closed = 1;
nodes = (
"351 358 LINE SMOOTH",
"351 473 OFFCURVE",
"282 541 OFFCURVE",
"178 541 CURVE SMOOTH",
"78 541 OFFCURVE",
"13 476 OFFCURVE",
"13 376 CURVE SMOOTH",
"13 304 OFFCURVE",
"47 260 OFFCURVE",
"100 260 CURVE SMOOTH",
"148 260 OFFCURVE",
"179 301 OFFCURVE",
"179 355 CURVE SMOOTH",
"179 411 OFFCURVE",
"148 449 OFFCURVE",
"105 449 CURVE SMOOTH",
"62 449 OFFCURVE",
"32 411 OFFCURVE",
"32 355 CURVE",
"59 351 LINE",
"59 426 OFFCURVE",
"100 475 OFFCURVE",
"166 475 CURVE SMOOTH",
"231 475 OFFCURVE",
"273 427 OFFCURVE",
"273 345 CURVE SMOOTH",
"273 20 LINE SMOOTH",
"273 -67 OFFCURVE",
"235 -114 OFFCURVE",
"165 -114 CURVE SMOOTH",
"119 -114 OFFCURVE",
"91 -95 OFFCURVE",
"57 -69 CURVE",
"26 -126 LINE",
"61 -161 OFFCURVE",
"115 -180 OFFCURVE",
"172 -180 CURVE SMOOTH",
"284 -180 OFFCURVE",
"351 -110 OFFCURVE",
"351 8 CURVE SMOOTH"
);
},
{
closed = 1;
nodes = (
"80 301 OFFCURVE",
"67 321 OFFCURVE",
"67 355 CURVE SMOOTH",
"67 389 OFFCURVE",
"80 409 OFFCURVE",
"101 409 CURVE SMOOTH",
"122 409 OFFCURVE",
"135 389 OFFCURVE",
"135 355 CURVE SMOOTH",
"135 321 OFFCURVE",
"122 301 OFFCURVE",
"101 301 CURVE SMOOTH"
);
}
);
width = 415;
},
{
anchors = (
{
name = bottom;
position = "{227, -192}";
},
{
name = bottomright;
position = "{431, -182}";
},
{
name = top;
position = "{220, 578}";
},
{
name = topright;
position = "{445, 578}";
}
);
layerId = "96C6A4AF-11F2-4EC9-996B-29C760E40A38";
paths = (
{
closed = 1;
nodes = (
"441 344 LINE SMOOTH",
"441 473 OFFCURVE",
"353 556 OFFCURVE",
"217 556 CURVE SMOOTH",
"87 556 OFFCURVE",
"3 487 OFFCURVE",
"3 378 CURVE SMOOTH",
"3 298 OFFCURVE",
"45 249 OFFCURVE",
"113 249 CURVE SMOOTH",
"173 249 OFFCURVE",
"212 289 OFFCURVE",
"212 352 CURVE SMOOTH",
"212 415 OFFCURVE",
"173 456 OFFCURVE",
"120 456 CURVE SMOOTH",
"66 456 OFFCURVE",
"28 413 OFFCURVE",
"28 352 CURVE",
"70 344 LINE",
"70 399 OFFCURVE",
"109 431 OFFCURVE",
"174 431 CURVE SMOOTH",
"241 431 OFFCURVE",
"269 397 OFFCURVE",
"269 340 CURVE SMOOTH",
"269 64 LINE SMOOTH",
"269 0 OFFCURVE",
"235 -36 OFFCURVE",
"172 -36 CURVE SMOOTH",
"131 -36 OFFCURVE",
"97 -20 OFFCURVE",
"70 -1 CURVE",
"14 -129 LINE",
"55 -162 OFFCURVE",
"121 -182 OFFCURVE",
"201 -182 CURVE SMOOTH",
"347 -182 OFFCURVE",
"441 -95 OFFCURVE",
"441 39 CURVE SMOOTH"
);
},
{
closed = 1;
nodes = (
"91 306 OFFCURVE",
"76 323 OFFCURVE",
"76 353 CURVE SMOOTH",
"76 383 OFFCURVE",
"91 400 OFFCURVE",
"115 400 CURVE SMOOTH",
"139 400 OFFCURVE",
"154 383 OFFCURVE",
"154 353 CURVE SMOOTH",
"154 323 OFFCURVE",
"139 306 OFFCURVE",
"115 306 CURVE SMOOTH"
);
}
);
width = 491;
}
);
leftKerningGroup = "ngoNgu-lao";
rightKerningGroup = "doDek-lao";
rightMetricsKey = "doDek-lao";
unicode = 0E87;
subCategory = Spacing;
},
{
glyphname = "ngoNgu-lao.short";
lastChange = "2020-12-17 09:42:54 +0000";
layers = (
{
anchors = (
{
name = bottom;
position = "{233, -124}";
},
{
name = bottomright;
position = "{434, -114}";
},
{
name = top;
position = "{233, 578}";
},
{
name = topright;
position = "{414, 578}";
}
);
layerId = "2CD50835-5B7E-4D2A-958C-2F579F79E971";
paths = (
{
closed = 1;
nodes = (
"434 354 LINE SMOOTH",
"434 466 OFFCURVE",
"360 538 OFFCURVE",
"243 538 CURVE SMOOTH",
"125 538 OFFCURVE",
"52 474 OFFCURVE",
"52 385 CURVE SMOOTH",
"52 327 OFFCURVE",
"85 296 OFFCURVE",
"134 296 CURVE SMOOTH",
"184 296 OFFCURVE",
"216 328 OFFCURVE",
"216 376 CURVE SMOOTH",
"216 424 OFFCURVE",
"184 455 OFFCURVE",
"136 455 CURVE SMOOTH",
"89 455 OFFCURVE",
"60 425 OFFCURVE",
"60 373 CURVE",
"69 359 LINE",
"69 456 OFFCURVE",
"134 513 OFFCURVE",
"241 513 CURVE SMOOTH",
"343 513 OFFCURVE",
"408 449 OFFCURVE",
"408 349 CURVE SMOOTH",
"408 89 LINE SMOOTH",
"408 -17 OFFCURVE",
"341 -85 OFFCURVE",
"237 -85 CURVE SMOOTH",
"162 -85 OFFCURVE",
"120 -65 OFFCURVE",
"70 -32 CURVE",
"59 -53 LINE",
"107 -90 OFFCURVE",
"162 -110 OFFCURVE",
"237 -110 CURVE SMOOTH",
"357 -110 OFFCURVE",
"434 -34 OFFCURVE",
"434 84 CURVE SMOOTH"
);
},
{
closed = 1;
nodes = (
"99 319 OFFCURVE",
"77 341 OFFCURVE",
"77 376 CURVE SMOOTH",
"77 411 OFFCURVE",
"99 433 OFFCURVE",
"134 433 CURVE SMOOTH",
"169 433 OFFCURVE",
"191 411 OFFCURVE",
"191 376 CURVE SMOOTH",
"191 341 OFFCURVE",
"169 319 OFFCURVE",
"134 319 CURVE SMOOTH"
);
}
);
width = 538;
},
{
anchors = (
{
name = bottom;
position = "{231, -132}";
},
{
name = bottomright;
position = "{452, -122}";
},
{
name = top;
position = "{240, 578}";
},
{
name = topright;
position = "{457, 578}";
}
);
hints = (
{
horizontal = 1;
origin = "{0, 36}";
target = "{0, 29}";
type = Stem;
},
{
horizontal = 1;
origin = "{0, 3}";
target = "{0, 22}";
type = Stem;
},
{
origin = "{0, 26}";
target = "{0, 39}";
type = Stem;
}
);
layerId = "6E668239-F79A-4803-9842-9160852853A7";
paths = (
{
closed = 1;
nodes = (
"457 348 LINE SMOOTH",
"457 467 OFFCURVE",
"369 543 OFFCURVE",
"234 543 CURVE SMOOTH",
"107 543 OFFCURVE",
"23 478 OFFCURVE",
"23 376 CURVE SMOOTH",
"23 301 OFFCURVE",
"67 258 OFFCURVE",
"132 258 CURVE SMOOTH",
"193 258 OFFCURVE",
"235 296 OFFCURVE",
"235 352 CURVE SMOOTH",
"235 408 OFFCURVE",
"193 448 OFFCURVE",
"136 448 CURVE SMOOTH",
"78 448 OFFCURVE",
"37 409 OFFCURVE",
"37 353 CURVE",
"76 344 LINE",
"76 421 OFFCURVE",
"134 470 OFFCURVE",
"224 470 CURVE SMOOTH",
"314 470 OFFCURVE",
"371 417 OFFCURVE",
"371 334 CURVE SMOOTH",
"371 90 LINE SMOOTH",
"371 7 OFFCURVE",
"309 -47 OFFCURVE",
"213 -47 CURVE SMOOTH",
"155 -47 OFFCURVE",
"110 -28 OFFCURVE",
"67 -3 CURVE",
"34 -67 LINE",
"79 -101 OFFCURVE",
"149 -120 OFFCURVE",
"221 -120 CURVE SMOOTH",
"365 -120 OFFCURVE",
"457 -43 OFFCURVE",
"457 76 CURVE SMOOTH"
);
},
{
closed = 1;
nodes = (
"102 303 OFFCURVE",
"84 321 OFFCURVE",
"84 353 CURVE SMOOTH",
"84 384 OFFCURVE",
"102 403 OFFCURVE",
"133 403 CURVE SMOOTH",
"164 403 OFFCURVE",
"182 385 OFFCURVE",
"182 353 CURVE SMOOTH",
"182 321 OFFCURVE",
"164 303 OFFCURVE",
"133 303 CURVE SMOOTH"
);
}
);
width = 547;
},
{
anchors = (
{
name = bottom;
position = "{272, -136}";
},
{
name = bottomright;
position = "{513, -126}";
},
{
name = top;
position = "{263, 578}";
},
{
name = topright;
position = "{525, 578}";
}
);
layerId = "EC79AED6-C145-434E-AE62-F6F3D2AFA8D1";
paths = (
{
closed = 1;
nodes = (
"523 342 LINE SMOOTH",
"523 474 OFFCURVE",
"421 558 OFFCURVE",
"261 558 CURVE SMOOTH",
"107 558 OFFCURVE",
"9 488 OFFCURVE",
"9 378 CURVE SMOOTH",
"9 297 OFFCURVE",
"58 247 OFFCURVE",
"136 247 CURVE SMOOTH",
"207 247 OFFCURVE",
"250 287 OFFCURVE",
"250 352 CURVE SMOOTH",
"250 417 OFFCURVE",
"207 457 OFFCURVE",
"144 457 CURVE SMOOTH",
"81 457 OFFCURVE",
"37 414 OFFCURVE",
"37 352 CURVE",
"82 344 LINE",
"82 402 OFFCURVE",
"132 436 OFFCURVE",
"210 436 CURVE SMOOTH",
"288 436 OFFCURVE",
"337 398 OFFCURVE",
"337 334 CURVE SMOOTH",
"337 136 LINE SMOOTH",
"337 68 OFFCURVE",
"287 24 OFFCURVE",
"208 24 CURVE SMOOTH",
"158 24 OFFCURVE",
"118 39 OFFCURVE",
"83 58 CURVE",
"19 -69 LINE",
"71 -104 OFFCURVE",
"152 -122 OFFCURVE",
"244 -122 CURVE SMOOTH",
"414 -122 OFFCURVE",
"523 -34 OFFCURVE",
"523 104 CURVE SMOOTH"
);
},
{
closed = 1;
nodes = (
"109 306 OFFCURVE",
"90 324 OFFCURVE",
"90 352 CURVE SMOOTH",
"90 380 OFFCURVE",
"109 398 OFFCURVE",
"138 398 CURVE SMOOTH",
"167 398 OFFCURVE",
"186 380 OFFCURVE",
"186 352 CURVE SMOOTH",
"186 324 OFFCURVE",
"167 306 OFFCURVE",
"138 306 CURVE SMOOTH"
);
}
);
width = 589;
},
{
anchors = (
{
name = bottom;
position = "{175, -160}";
},
{
name = bottomright;
position = "{310, -150}";
},
{
name = top;
position = "{166, 578}";
},
{
name = topright;
position = "{297, 578}";
}
);
layerId = "FFE3C573-8034-42D7-BBA7-2D1C8826F1F5";
paths = (
{
closed = 1;
nodes = (
"310 367 LINE SMOOTH",
"310 472 OFFCURVE",
"256 536 OFFCURVE",
"171 536 CURVE SMOOTH",
"87 536 OFFCURVE",
"34 472 OFFCURVE",
"34 383 CURVE SMOOTH",
"34 325 OFFCURVE",
"58 295 OFFCURVE",
"95 295 CURVE SMOOTH",
"132 295 OFFCURVE",
"157 326 OFFCURVE",
"157 375 CURVE SMOOTH",
"157 422 OFFCURVE",
"132 452 OFFCURVE",
"96 452 CURVE SMOOTH",
"61 452 OFFCURVE",
"40 422 OFFCURVE",
"40 371 CURVE",
"49 357 LINE",
"49 454 OFFCURVE",
"95 513 OFFCURVE",
"169 513 CURVE SMOOTH",
"240 513 OFFCURVE",
"286 462 OFFCURVE",
"286 362 CURVE SMOOTH",
"286 48 LINE SMOOTH",
"286 -55 OFFCURVE",
"242 -116 OFFCURVE",
"166 -116 CURVE SMOOTH",
"117 -116 OFFCURVE",
"88 -98 OFFCURVE",
"53 -63 CURVE",
"40 -83 LINE",
"74 -120 OFFCURVE",
"114 -140 OFFCURVE",
"167 -140 CURVE SMOOTH",
"256 -140 OFFCURVE",
"310 -70 OFFCURVE",
"310 44 CURVE SMOOTH"
);
},
{
closed = 1;
nodes = (
"70 316 OFFCURVE",
"55 337 OFFCURVE",
"55 374 CURVE SMOOTH",
"55 411 OFFCURVE",
"70 432 OFFCURVE",
"95 432 CURVE SMOOTH",
"120 432 OFFCURVE",
"135 411 OFFCURVE",
"135 374 CURVE SMOOTH",
"135 337 OFFCURVE",
"120 316 OFFCURVE",
"95 316 CURVE SMOOTH"
);
}
);
width = 380;
},
{
anchors = (
{
name = bottom;
position = "{187, -145}";
},
{
name = bottomright;
position = "{346, -135}";
},
{
name = top;
position = "{183, 578}";
},
{
name = topright;
position = "{348, 578}";
}
);
layerId = "CACD10EA-8E27-4203-9979-86A2B0F7ED74";
paths = (
{
closed = 1;
nodes = (
"351 358 LINE SMOOTH",
"351 473 OFFCURVE",
"282 541 OFFCURVE",
"178 541 CURVE SMOOTH",
"78 541 OFFCURVE",
"13 476 OFFCURVE",
"13 376 CURVE SMOOTH",
"13 304 OFFCURVE",
"47 260 OFFCURVE",
"100 260 CURVE SMOOTH",
"148 260 OFFCURVE",
"179 301 OFFCURVE",
"179 355 CURVE SMOOTH",
"179 411 OFFCURVE",
"148 449 OFFCURVE",
"105 449 CURVE SMOOTH",
"62 449 OFFCURVE",
"32 411 OFFCURVE",
"32 355 CURVE",
"59 351 LINE",
"59 426 OFFCURVE",
"100 475 OFFCURVE",
"166 475 CURVE SMOOTH",
"231 475 OFFCURVE",
"273 427 OFFCURVE",
"273 345 CURVE SMOOTH",
"273 60 LINE SMOOTH",
"273 -27 OFFCURVE",
"235 -74 OFFCURVE",
"165 -74 CURVE SMOOTH",
"119 -74 OFFCURVE",
"91 -55 OFFCURVE",
"57 -29 CURVE",
"26 -86 LINE",
"61 -121 OFFCURVE",
"115 -140 OFFCURVE",
"172 -140 CURVE SMOOTH",
"284 -140 OFFCURVE",
"351 -70 OFFCURVE",
"351 48 CURVE SMOOTH"
);
},
{
closed = 1;
nodes = (
"80 301 OFFCURVE",
"67 321 OFFCURVE",
"67 355 CURVE SMOOTH",
"67 389 OFFCURVE",
"80 409 OFFCURVE",
"101 409 CURVE SMOOTH",
"122 409 OFFCURVE",
"135 389 OFFCURVE",
"135 355 CURVE SMOOTH",
"135 321 OFFCURVE",
"122 301 OFFCURVE",
"101 301 CURVE SMOOTH"
);
}
);
width = 415;
},
{
anchors = (
{
name = bottom;
position = "{227, -152}";
},
{
name = bottomright;
position = "{431, -142}";
},
{
name = top;
position = "{220, 578}";
},
{
name = topright;
position = "{445, 578}";
}
);
layerId = "96C6A4AF-11F2-4EC9-996B-29C760E40A38";
paths = (
{
closed = 1;
nodes = (
"441 344 LINE SMOOTH",
"441 473 OFFCURVE",
"353 556 OFFCURVE",
"217 556 CURVE SMOOTH",
"87 556 OFFCURVE",
"3 487 OFFCURVE",
"3 378 CURVE SMOOTH",
"3 298 OFFCURVE",
"45 249 OFFCURVE",
"113 249 CURVE SMOOTH",
"173 249 OFFCURVE",
"212 289 OFFCURVE",
"212 352 CURVE SMOOTH",
"212 415 OFFCURVE",
"173 456 OFFCURVE",
"120 456 CURVE SMOOTH",
"66 456 OFFCURVE",
"28 413 OFFCURVE",
"28 352 CURVE",
"70 344 LINE",
"70 399 OFFCURVE",
"109 431 OFFCURVE",
"174 431 CURVE SMOOTH",
"241 431 OFFCURVE",
"269 397 OFFCURVE",
"269 340 CURVE SMOOTH",
"269 104 LINE SMOOTH",
"269 40 OFFCURVE",
"235 4 OFFCURVE",
"172 4 CURVE SMOOTH",
"131 4 OFFCURVE",
"97 20 OFFCURVE",
"70 39 CURVE",
"14 -89 LINE",
"55 -122 OFFCURVE",
"121 -142 OFFCURVE",
"201 -142 CURVE SMOOTH",
"347 -142 OFFCURVE",
"441 -55 OFFCURVE",
"441 79 CURVE SMOOTH"
);
},
{
closed = 1;
nodes = (
"91 306 OFFCURVE",
"76 323 OFFCURVE",
"76 353 CURVE SMOOTH",
"76 383 OFFCURVE",
"91 400 OFFCURVE",
"115 400 CURVE SMOOTH",
"139 400 OFFCURVE",
"154 383 OFFCURVE",
"154 353 CURVE SMOOTH",
"154 323 OFFCURVE",
"139 306 OFFCURVE",
"115 306 CURVE SMOOTH"
);
}
);
width = 491;
}
);
leftKerningGroup = "ngoNgu-lao";
rightKerningGroup = "doDek-lao";
rightMetricsKey = "doDek-lao";
subCategory = Spacing;
},
{
glyphname = "coCok-lao";
lastChange = "2020-12-17 10:33:53 +0000";
layers = (
{
anchors = (
{
name = bottom;
position = "{352, 0}";
},
{
name = bottomright;
position = "{469, 0}";
},
{
name = top;
position = "{271, 578}";
},
{
name = topright;
position = "{469, 578}";
}
);
layerId = "2CD50835-5B7E-4D2A-958C-2F579F79E971";
paths = (
{
closed = 1;
nodes = (
"430 -8 OFFCURVE",
"469 33 OFFCURVE",
"469 100 CURVE SMOOTH",
"469 356 LINE SMOOTH",
"469 467 OFFCURVE",
"380 538 OFFCURVE",
"239 538 CURVE SMOOTH",
"168 538 OFFCURVE",
"83 520 OFFCURVE",
"24 482 CURVE",
"34 460 LINE",
"90 496 OFFCURVE",
"169 513 OFFCURVE",
"238 513 CURVE SMOOTH",
"366 513 OFFCURVE",
"443 452 OFFCURVE",
"443 351 CURVE SMOOTH",
"443 102 LINE SMOOTH",
"443 50 OFFCURVE",
"414 17 OFFCURVE",
"366 17 CURVE SMOOTH",
"317 17 OFFCURVE",
"289 47 OFFCURVE",
"289 99 CURVE SMOOTH",
"289 257 LINE SMOOTH",
"289 307 OFFCURVE",
"256 340 OFFCURVE",
"207 340 CURVE SMOOTH",
"157 340 OFFCURVE",
"124 308 OFFCURVE",
"124 260 CURVE SMOOTH",
"124 213 OFFCURVE",
"156 180 OFFCURVE",
"203 180 CURVE SMOOTH",
"251 180 OFFCURVE",
"281 211 OFFCURVE",
"281 260 CURVE",
"277 260 LINE",
"277 241 OFFCURVE",
"268 220 OFFCURVE",
"263 220 CURVE",
"263 96 LINE SMOOTH",
"263 32 OFFCURVE",
"303 -8 OFFCURVE",
"366 -8 CURVE SMOOTH"
);
},
{
closed = 1;
nodes = (
"170 203 OFFCURVE",
"149 225 OFFCURVE",
"149 260 CURVE SMOOTH",
"149 295 OFFCURVE",
"170 317 OFFCURVE",
"205 317 CURVE SMOOTH",
"240 317 OFFCURVE",
"261 295 OFFCURVE",
"261 260 CURVE SMOOTH",
"261 225 OFFCURVE",
"240 203 OFFCURVE",
"205 203 CURVE SMOOTH"
);
}
);
width = 568;
},
{
anchors = (
{
name = bottom;
position = "{361, 0}";
},
{
name = bottomright;
position = "{505, 0}";
},
{
name = top;
position = "{273, 578}";
},
{
name = topright;
position = "{505, 578}";
}
);
hints = (
{
horizontal = 1;
origin = "{0, 44}";
target = "{0, 20}";
type = Stem;
},
{
horizontal = 1;
origin = "{0, 6}";
target = "{0, 13}";
type = Stem;
},
{
origin = "{0, 17}";
target = "{0, 2}";
type = Stem;
}
);
layerId = "6E668239-F79A-4803-9842-9160852853A7";
paths = (
{
closed = 1;
nodes = (
"454 -10 OFFCURVE",
"510 38 OFFCURVE",
"510 116 CURVE SMOOTH",
"510 350 LINE SMOOTH",
"510 469 OFFCURVE",
"408 543 OFFCURVE",
"247 543 CURVE SMOOTH",
"167 543 OFFCURVE",
"84 525 OFFCURVE",
"21 488 CURVE",
"48 421 LINE",
"102 454 OFFCURVE",
"170 470 OFFCURVE",
"237 470 CURVE SMOOTH",
"353 470 OFFCURVE",
"424 420 OFFCURVE",
"424 336 CURVE SMOOTH",
"424 120 LINE SMOOTH",
"424 84 OFFCURVE",
"404 62 OFFCURVE",
"369 62 CURVE SMOOTH",
"335 62 OFFCURVE",
"317 82 OFFCURVE",
"317 115 CURVE SMOOTH",
"317 253 LINE SMOOTH",
"317 314 OFFCURVE",
"277 353 OFFCURVE",
"213 353 CURVE SMOOTH",
"150 353 OFFCURVE",
"109 314 OFFCURVE",
"109 253 CURVE SMOOTH",
"109 195 OFFCURVE",
"148 155 OFFCURVE",
"205 155 CURVE SMOOTH",
"272 155 OFFCURVE",
"311 191 OFFCURVE",
"311 254 CURVE",
"298 254 LINE",
"298 222 OFFCURVE",
"260 181 OFFCURVE",
"233 181 CURVE",
"233 109 LINE SMOOTH",
"233 35 OFFCURVE",
"282 -10 OFFCURVE",
"363 -10 CURVE SMOOTH"
);
},
{
closed = 1;
nodes = (
"182 203 OFFCURVE",
"163 222 OFFCURVE",
"163 254 CURVE SMOOTH",
"163 286 OFFCURVE",
"182 305 OFFCURVE",
"213 305 CURVE SMOOTH",
"244 305 OFFCURVE",
"263 286 OFFCURVE",
"263 254 CURVE SMOOTH",
"263 222 OFFCURVE",
"244 203 OFFCURVE",
"213 203 CURVE SMOOTH"
);
}
);
width = 595;
},
{
anchors = (
{
name = bottom;
position = "{354, 0}";
},
{
name = bottomright;
position = "{563, 0}";
},
{
name = top;
position = "{303, 578}";
},
{
name = topright;
position = "{563, 578}";
}
);
layerId = "EC79AED6-C145-434E-AE62-F6F3D2AFA8D1";
paths = (
{
closed = 1;
nodes = (
"501 -15 OFFCURVE",
"573 45 OFFCURVE",
"573 161 CURVE SMOOTH",
"573 350 LINE SMOOTH",
"573 478 OFFCURVE",
"451 558 OFFCURVE",
"252 558 CURVE SMOOTH",
"163 558 OFFCURVE",
"76 542 OFFCURVE",
"6 507 CURVE",
"47 370 LINE",
"104 398 OFFCURVE",
"170 412 OFFCURVE",
"234 412 CURVE SMOOTH",
"330 412 OFFCURVE",
"387 379 OFFCURVE",
"387 320 CURVE SMOOTH",
"387 143 LINE SMOOTH",
"387 124 OFFCURVE",
"375 113 OFFCURVE",
"355 113 CURVE SMOOTH",
"333 113 OFFCURVE",
"322 123 OFFCURVE",
"322 141 CURVE SMOOTH",
"322 233 LINE SMOOTH",
"322 302 OFFCURVE",
"266 349 OFFCURVE",
"185 349 CURVE SMOOTH",
"107 349 OFFCURVE",
"55 309 OFFCURVE",
"55 247 CURVE SMOOTH",
"55 184 OFFCURVE",
"109 143 OFFCURVE",
"178 143 CURVE SMOOTH",
"266 143 OFFCURVE",
"312 181 OFFCURVE",
"312 233 CURVE",
"289 233 LINE",
"289 199 OFFCURVE",
"241 179 OFFCURVE",
"159 179 CURVE",
"159 105 LINE SMOOTH",
"159 34 OFFCURVE",
"241 -15 OFFCURVE",
"361 -15 CURVE SMOOTH"
);
},
{
closed = 1;
nodes = (
"138 202 OFFCURVE",
"120 219 OFFCURVE",
"120 247 CURVE SMOOTH",
"120 275 OFFCURVE",
"138 292 OFFCURVE",
"168 292 CURVE SMOOTH",
"198 292 OFFCURVE",
"216 275 OFFCURVE",
"216 247 CURVE SMOOTH",
"216 219 OFFCURVE",
"198 202 OFFCURVE",
"168 202 CURVE SMOOTH"
);
}
);
width = 634;
},
{
anchors = (
{
name = bottom;
position = "{256, 0}";
},
{
name = bottomright;
position = "{337, 0}";
},
{
name = top;
position = "{192, 578}";
},
{
name = topright;
position = "{337, 578}";
}
);
layerId = "FFE3C573-8034-42D7-BBA7-2D1C8826F1F5";
paths = (
{
closed = 1;
nodes = (
"309 -8 OFFCURVE",
"337 28 OFFCURVE",
"337 89 CURVE SMOOTH",
"337 373 LINE SMOOTH",
"337 474 OFFCURVE",
"274 536 OFFCURVE",
"171 536 CURVE SMOOTH",
"121 536 OFFCURVE",
"59 518 OFFCURVE",
"17 480 CURVE",
"26 459 LINE",
"65 495 OFFCURVE",
"120 513 OFFCURVE",
"169 513 CURVE SMOOTH",
"261 513 OFFCURVE",
"313 460 OFFCURVE",
"313 368 CURVE SMOOTH",
"313 92 LINE SMOOTH",
"313 44 OFFCURVE",
"293 15 OFFCURVE",
"260 15 CURVE SMOOTH",
"227 15 OFFCURVE",
"208 41 OFFCURVE",
"208 88 CURVE SMOOTH",
"208 259 LINE SMOOTH",
"208 308 OFFCURVE",
"184 340 OFFCURVE",
"146 340 CURVE SMOOTH",
"109 340 OFFCURVE",
"85 309 OFFCURVE",
"85 260 CURVE SMOOTH",
"85 213 OFFCURVE",
"109 182 OFFCURVE",
"145 182 CURVE SMOOTH",
"181 182 OFFCURVE",
"200 214 OFFCURVE",
"200 260 CURVE",
"197 260 LINE",
"197 242 OFFCURVE",
"190 221 OFFCURVE",
"184 221 CURVE",
"184 86 LINE SMOOTH",
"184 28 OFFCURVE",
"212 -8 OFFCURVE",
"260 -8 CURVE SMOOTH"
);
},
{
closed = 1;
nodes = (
"121 203 OFFCURVE",
"107 224 OFFCURVE",
"107 261 CURVE SMOOTH",
"107 298 OFFCURVE",
"121 319 OFFCURVE",
"146 319 CURVE SMOOTH",
"171 319 OFFCURVE",
"185 298 OFFCURVE",
"185 261 CURVE SMOOTH",
"185 224 OFFCURVE",
"171 203 OFFCURVE",
"146 203 CURVE SMOOTH"
);
}
);
width = 406;
},
{
anchors = (
{
name = bottom;
position = "{270, 0}";
},
{
name = bottomright;
position = "{380, 0}";
},
{
name = top;
position = "{203, 578}";
},
{
name = topright;
position = "{380, 578}";
}
);
layerId = "CACD10EA-8E27-4203-9979-86A2B0F7ED74";
paths = (
{
closed = 1;
nodes = (
"344 -10 OFFCURVE",
"385 29 OFFCURVE",
"385 98 CURVE SMOOTH",
"385 357 LINE SMOOTH",
"385 471 OFFCURVE",
"309 541 OFFCURVE",
"182 541 CURVE SMOOTH",
"121 541 OFFCURVE",
"60 523 OFFCURVE",
"12 486 CURVE",
"33 425 LINE",
"73 459 OFFCURVE",
"125 475 OFFCURVE",
"174 475 CURVE SMOOTH",
"259 475 OFFCURVE",
"307 427 OFFCURVE",
"307 344 CURVE SMOOTH",
"307 101 LINE SMOOTH",
"307 72 OFFCURVE",
"294 56 OFFCURVE",
"269 56 CURVE SMOOTH",
"244 56 OFFCURVE",
"231 72 OFFCURVE",
"231 101 CURVE SMOOTH",
"231 254 LINE SMOOTH",
"231 313 OFFCURVE",
"203 352 OFFCURVE",
"150 352 CURVE SMOOTH",
"99 352 OFFCURVE",
"68 315 OFFCURVE",
"68 253 CURVE SMOOTH",
"68 194 OFFCURVE",
"97 154 OFFCURVE",
"139 154 CURVE SMOOTH",
"188 154 OFFCURVE",
"224 192 OFFCURVE",
"224 256 CURVE",
"213 256 LINE",
"213 226 OFFCURVE",
"182 186 OFFCURVE",
"159 186 CURVE",
"159 97 LINE SMOOTH",
"159 31 OFFCURVE",
"200 -10 OFFCURVE",
"268 -10 CURVE SMOOTH"
);
},
{
closed = 1;
nodes = (
"127 198 OFFCURVE",
"113 219 OFFCURVE",
"113 253 CURVE SMOOTH",
"113 287 OFFCURVE",
"127 308 OFFCURVE",
"148 308 CURVE SMOOTH",
"170 308 OFFCURVE",
"183 287 OFFCURVE",
"183 253 CURVE SMOOTH",
"183 219 OFFCURVE",
"170 198 OFFCURVE",
"148 198 CURVE SMOOTH"
);
}
);
width = 441;
},
{
anchors = (
{
name = bottom;
position = "{293, 0}";
},
{
name = bottomright;
position = "{473, 0}";
},
{
name = top;
position = "{244, 578}";
},
{
name = topright;
position = "{473, 578}";
}
);
layerId = "96C6A4AF-11F2-4EC9-996B-29C760E40A38";
paths = (
{
closed = 1;
nodes = (
"421 -15 OFFCURVE",
"483 42 OFFCURVE",
"483 154 CURVE SMOOTH",
"483 350 LINE SMOOTH",
"483 478 OFFCURVE",
"380 556 OFFCURVE",
"209 556 CURVE SMOOTH",
"134 556 OFFCURVE",
"62 540 OFFCURVE",
"3 504 CURVE",
"40 377 LINE",
"87 399 OFFCURVE",
"142 410 OFFCURVE",
"192 410 CURVE SMOOTH",
"269 410 OFFCURVE",
"311 381 OFFCURVE",
"311 327 CURVE SMOOTH",
"311 138 LINE SMOOTH",
"311 123 OFFCURVE",
"304 115 OFFCURVE",
"289 115 CURVE SMOOTH",
"274 115 OFFCURVE",
"268 124 OFFCURVE",
"268 138 CURVE SMOOTH",
"268 236 LINE SMOOTH",
"268 304 OFFCURVE",
"219 350 OFFCURVE",
"149 350 CURVE SMOOTH",
"82 350 OFFCURVE",
"37 310 OFFCURVE",
"37 248 CURVE SMOOTH",
"37 185 OFFCURVE",
"84 145 OFFCURVE",
"143 145 CURVE SMOOTH",
"217 145 OFFCURVE",
"259 183 OFFCURVE",
"259 236 CURVE",
"239 236 LINE",
"239 202 OFFCURVE",
"195 179 OFFCURVE",
"118 179 CURVE",
"118 105 LINE SMOOTH",
"118 33 OFFCURVE",
"188 -15 OFFCURVE",
"296 -15 CURVE SMOOTH"
);
},
{
closed = 1;
nodes = (
"109 203 OFFCURVE",
"94 220 OFFCURVE",
"94 249 CURVE SMOOTH",
"94 278 OFFCURVE",
"109 295 OFFCURVE",
"133 295 CURVE SMOOTH",
"157 295 OFFCURVE",
"172 278 OFFCURVE",
"172 249 CURVE SMOOTH",
"172 220 OFFCURVE",
"157 203 OFFCURVE",
"133 203 CURVE SMOOTH"
);
}
);
width = 529;
}
);
leftKerningGroup = "coCok-lao";
rightKerningGroup = "woWi-lao";
rightMetricsKey = "oO-lao";
unicode = 0E88;
subCategory = Spacing;
},
{
glyphname = "coCok-lao.ss01";
lastChange = "2020-12-17 09:42:54 +0000";
layers = (
{
anchors = (
{
name = bottom;
position = "{352, 0}";
},
{
name = bottomright;
position = "{469, 0}";
},
{
name = top;
position = "{271, 578}";
},
{
name = topright;
position = "{469, 578}";
}
);
layerId = "2CD50835-5B7E-4D2A-958C-2F579F79E971";
paths = (
{
closed = 1;
nodes = (
"430 -8 OFFCURVE",
"469 33 OFFCURVE",
"469 100 CURVE SMOOTH",
"469 356 LINE SMOOTH",
"469 467 OFFCURVE",
"380 538 OFFCURVE",
"239 538 CURVE SMOOTH",
"168 538 OFFCURVE",
"83 520 OFFCURVE",
"24 482 CURVE",
"34 460 LINE",
"90 496 OFFCURVE",
"169 513 OFFCURVE",
"238 513 CURVE SMOOTH",
"366 513 OFFCURVE",
"443 452 OFFCURVE",
"443 351 CURVE SMOOTH",
"443 102 LINE SMOOTH",
"443 50 OFFCURVE",
"413 17 OFFCURVE",
"364 17 CURVE SMOOTH",
"317 17 OFFCURVE",
"289 44 OFFCURVE",
"289 91 CURVE SMOOTH",
"289 139 OFFCURVE",
"309 213 OFFCURVE",
"309 256 CURVE SMOOTH",
"309 307 OFFCURVE",
"276 340 OFFCURVE",
"227 340 CURVE SMOOTH",
"177 340 OFFCURVE",
"144 308 OFFCURVE",
"144 260 CURVE SMOOTH",
"144 213 OFFCURVE",
"176 180 OFFCURVE",
"223 180 CURVE SMOOTH",
"271 180 OFFCURVE",
"301 211 OFFCURVE",
"301 260 CURVE",
"277 210 LINE",
"277 185 OFFCURVE",
"262 131 OFFCURVE",
"262 88 CURVE SMOOTH",
"262 30 OFFCURVE",
"302 -8 OFFCURVE",
"364 -8 CURVE SMOOTH"
);
},
{
closed = 1;
nodes = (
"190 203 OFFCURVE",
"169 225 OFFCURVE",
"169 260 CURVE SMOOTH",
"169 295 OFFCURVE",
"190 317 OFFCURVE",
"225 317 CURVE SMOOTH",
"260 317 OFFCURVE",
"281 295 OFFCURVE",
"281 259 CURVE SMOOTH",
"281 225 OFFCURVE",
"260 203 OFFCURVE",
"225 203 CURVE SMOOTH"
);
}
);
width = 568;
},
{
anchors = (
{
name = bottom;
position = "{361, 0}";
},
{
name = bottomright;
position = "{505, 0}";
},
{
name = top;
position = "{273, 578}";
},
{
name = topright;
position = "{505, 578}";
}
);
hints = (
{
horizontal = 1;
origin = "{0, 45}";
target = "{0, 20}";
type = Stem;
},
{
horizontal = 1;
origin = "{0, 6}";
target = "{0, 13}";
type = Stem;
},
{
origin = "{0, 17}";
target = "{0, 2}";
type = Stem;
}
);
layerId = "6E668239-F79A-4803-9842-9160852853A7";
paths = (
{
closed = 1;
nodes = (
"456 -10 OFFCURVE",
"510 38 OFFCURVE",
"510 116 CURVE SMOOTH",
"510 350 LINE SMOOTH",
"510 469 OFFCURVE",
"408 543 OFFCURVE",
"247 543 CURVE SMOOTH",
"167 543 OFFCURVE",
"84 525 OFFCURVE",
"21 488 CURVE",
"48 421 LINE",
"102 454 OFFCURVE",
"170 470 OFFCURVE",
"237 470 CURVE SMOOTH",
"353 470 OFFCURVE",
"424 420 OFFCURVE",
"424 336 CURVE SMOOTH",
"424 120 LINE SMOOTH",
"424 83 OFFCURVE",
"403 61 OFFCURVE",
"367 61 CURVE SMOOTH",
"332 61 OFFCURVE",
"311 82 OFFCURVE",
"311 116 CURVE SMOOTH",
"311 157 OFFCURVE",
"332 210 OFFCURVE",
"332 259 CURVE SMOOTH",
"332 317 OFFCURVE",
"290 353 OFFCURVE",
"225 353 CURVE SMOOTH",
"162 353 OFFCURVE",
"121 314 OFFCURVE",
"121 253 CURVE SMOOTH",
"121 195 OFFCURVE",
"160 155 OFFCURVE",
"217 155 CURVE SMOOTH",
"284 155 OFFCURVE",
"323 191 OFFCURVE",
"323 254 CURVE",
"237 186 LINE",
"237 171 OFFCURVE",
"227 134 OFFCURVE",
"227 105 CURVE SMOOTH",
"227 35 OFFCURVE",
"281 -10 OFFCURVE",
"368 -10 CURVE SMOOTH"
);
},
{
closed = 1;
nodes = (
"194 203 OFFCURVE",
"175 222 OFFCURVE",
"175 254 CURVE SMOOTH",
"175 286 OFFCURVE",
"194 305 OFFCURVE",
"225 305 CURVE SMOOTH",
"256 305 OFFCURVE",
"275 286 OFFCURVE",
"275 254 CURVE SMOOTH",
"275 222 OFFCURVE",
"256 203 OFFCURVE",
"225 203 CURVE SMOOTH"
);
}
);
width = 595;
},
{
anchors = (
{
name = bottom;
position = "{354, 0}";
},
{
name = bottomright;
position = "{563, 0}";
},
{
name = top;
position = "{303, 578}";
},
{
name = topright;
position = "{563, 578}";
}
);
layerId = "EC79AED6-C145-434E-AE62-F6F3D2AFA8D1";
paths = (
{
closed = 1;
nodes = (
"501 -15 OFFCURVE",
"573 45 OFFCURVE",
"573 161 CURVE SMOOTH",
"573 350 LINE SMOOTH",
"573 478 OFFCURVE",
"451 558 OFFCURVE",
"252 558 CURVE SMOOTH",
"163 558 OFFCURVE",
"76 542 OFFCURVE",
"6 507 CURVE",
"47 370 LINE",
"104 398 OFFCURVE",
"170 412 OFFCURVE",
"234 412 CURVE SMOOTH",
"330 412 OFFCURVE",
"387 379 OFFCURVE",
"387 320 CURVE SMOOTH",
"387 144 LINE SMOOTH",
"387 124 OFFCURVE",
"375 113 OFFCURVE",
"353 113 CURVE SMOOTH",
"332 113 OFFCURVE",
"320 124 OFFCURVE",
"320 142 CURVE SMOOTH",
"320 168 OFFCURVE",
"332 211 OFFCURVE",
"332 249 CURVE SMOOTH",
"332 312 OFFCURVE",
"277 349 OFFCURVE",
"198 349 CURVE SMOOTH",
"120 349 OFFCURVE",
"68 309 OFFCURVE",
"68 247 CURVE SMOOTH",
"68 184 OFFCURVE",
"122 143 OFFCURVE",
"191 143 CURVE SMOOTH",
"279 143 OFFCURVE",
"325 181 OFFCURVE",
"325 233 CURVE",
"170 179 LINE",
"170 164 OFFCURVE",
"158 143 OFFCURVE",
"158 116 CURVE SMOOTH",
"158 35 OFFCURVE",
"237 -15 OFFCURVE",
"363 -15 CURVE SMOOTH"
);
},
{
closed = 1;
nodes = (
"151 202 OFFCURVE",
"133 219 OFFCURVE",
"133 247 CURVE SMOOTH",
"133 275 OFFCURVE",
"151 292 OFFCURVE",
"181 292 CURVE SMOOTH",
"211 292 OFFCURVE",
"229 275 OFFCURVE",
"229 247 CURVE SMOOTH",
"229 219 OFFCURVE",
"211 202 OFFCURVE",
"181 202 CURVE SMOOTH"
);
}
);
width = 634;
},
{
anchors = (
{
name = bottom;
position = "{256, 0}";
},
{
name = bottomright;
position = "{337, 0}";
},
{
name = top;
position = "{192, 578}";
},
{
name = topright;
position = "{337, 578}";
}
);
layerId = "FFE3C573-8034-42D7-BBA7-2D1C8826F1F5";
paths = (
{
closed = 1;
nodes = (
"309 -8 OFFCURVE",
"337 28 OFFCURVE",
"337 89 CURVE SMOOTH",
"337 373 LINE SMOOTH",
"337 474 OFFCURVE",
"274 536 OFFCURVE",
"171 536 CURVE SMOOTH",
"121 536 OFFCURVE",
"59 518 OFFCURVE",
"17 480 CURVE",
"26 459 LINE",
"65 495 OFFCURVE",
"120 513 OFFCURVE",
"169 513 CURVE SMOOTH",
"261 513 OFFCURVE",
"313 460 OFFCURVE",
"313 368 CURVE SMOOTH",
"313 92 LINE SMOOTH",
"313 44 OFFCURVE",
"293 15 OFFCURVE",
"260 15 CURVE SMOOTH",
"227 15 OFFCURVE",
"207 43 OFFCURVE",
"207 90 CURVE SMOOTH",
"207 139 OFFCURVE",
"222 213 OFFCURVE",
"222 260 CURVE SMOOTH",
"222 308 OFFCURVE",
"198 340 OFFCURVE",
"160 340 CURVE SMOOTH",
"123 340 OFFCURVE",
"99 309 OFFCURVE",
"99 260 CURVE SMOOTH",
"99 213 OFFCURVE",
"123 182 OFFCURVE",
"159 182 CURVE SMOOTH",
"193 185 OFFCURVE",
"214 214 OFFCURVE",
"214 260 CURVE",
"193 211 LINE",
"193 185 OFFCURVE",
"183 131 OFFCURVE",
"183 88 CURVE SMOOTH",
"183 30 OFFCURVE",
"213 -8 OFFCURVE",
"260 -8 CURVE SMOOTH"
);
},
{
closed = 1;
nodes = (
"135 203 OFFCURVE",
"121 224 OFFCURVE",
"121 261 CURVE SMOOTH",
"121 298 OFFCURVE",
"135 319 OFFCURVE",
"160 319 CURVE SMOOTH",
"185 319 OFFCURVE",
"199 298 OFFCURVE",
"199 261 CURVE SMOOTH",
"199 224 OFFCURVE",
"185 203 OFFCURVE",
"160 203 CURVE SMOOTH"
);
}
);
width = 406;
},
{
anchors = (
{
name = bottom;
position = "{267, 0}";
},
{
name = bottomright;
position = "{380, 0}";
},
{
name = top;
position = "{203, 578}";
},
{
name = topright;
position = "{380, 578}";
}
);
layerId = "CACD10EA-8E27-4203-9979-86A2B0F7ED74";
paths = (
{
closed = 1;
nodes = (
"344 -10 OFFCURVE",
"385 29 OFFCURVE",
"385 98 CURVE SMOOTH",
"385 357 LINE SMOOTH",
"385 471 OFFCURVE",
"309 541 OFFCURVE",
"182 541 CURVE SMOOTH",
"121 541 OFFCURVE",
"60 523 OFFCURVE",
"12 486 CURVE",
"33 425 LINE",
"73 459 OFFCURVE",
"125 475 OFFCURVE",
"174 475 CURVE SMOOTH",
"259 475 OFFCURVE",
"307 427 OFFCURVE",
"307 344 CURVE SMOOTH",
"307 101 LINE SMOOTH",
"307 72 OFFCURVE",
"294 56 OFFCURVE",
"269 56 CURVE SMOOTH",
"243 56 OFFCURVE",
"228 77 OFFCURVE",
"228 112 CURVE SMOOTH",
"228 155 OFFCURVE",
"242 210 OFFCURVE",
"242 254 CURVE SMOOTH",
"242 313 OFFCURVE",
"214 352 OFFCURVE",
"161 352 CURVE SMOOTH",
"110 352 OFFCURVE",
"79 315 OFFCURVE",
"79 253 CURVE SMOOTH",
"79 194 OFFCURVE",
"108 154 OFFCURVE",
"150 154 CURVE SMOOTH",
"199 154 OFFCURVE",
"235 192 OFFCURVE",
"235 256 CURVE",
"165 190 LINE",
"165 173 OFFCURVE",
"157 134 OFFCURVE",
"157 103 CURVE SMOOTH",
"157 34 OFFCURVE",
"201 -10 OFFCURVE",
"268 -10 CURVE SMOOTH"
);
},
{
closed = 1;
nodes = (
"138 198 OFFCURVE",
"124 219 OFFCURVE",
"124 253 CURVE SMOOTH",
"124 287 OFFCURVE",
"138 308 OFFCURVE",
"159 308 CURVE SMOOTH",
"181 308 OFFCURVE",
"194 287 OFFCURVE",
"194 253 CURVE SMOOTH",
"194 219 OFFCURVE",
"181 198 OFFCURVE",
"159 198 CURVE SMOOTH"
);
}
);
width = 441;
},
{
anchors = (
{
name = bottom;
position = "{293, 0}";
},
{
name = bottomright;
position = "{473, 0}";
},
{
name = top;
position = "{244, 578}";
},
{
name = topright;
position = "{473, 578}";
}
);
layerId = "96C6A4AF-11F2-4EC9-996B-29C760E40A38";
paths = (
{
closed = 1;
nodes = (
"421 -15 OFFCURVE",
"483 42 OFFCURVE",
"483 154 CURVE SMOOTH",
"483 350 LINE SMOOTH",
"483 478 OFFCURVE",
"380 556 OFFCURVE",
"209 556 CURVE SMOOTH",
"134 556 OFFCURVE",
"62 540 OFFCURVE",
"3 504 CURVE",
"40 377 LINE",
"87 399 OFFCURVE",
"142 410 OFFCURVE",
"192 410 CURVE SMOOTH",
"269 410 OFFCURVE",
"311 381 OFFCURVE",
"311 327 CURVE SMOOTH",
"311 138 LINE SMOOTH",
"311 123 OFFCURVE",
"303 115 OFFCURVE",
"289 115 CURVE SMOOTH",
"275 115 OFFCURVE",
"266 123 OFFCURVE",
"266 137 CURVE SMOOTH",
"266 166 OFFCURVE",
"275 209 OFFCURVE",
"275 236 CURVE SMOOTH",
"275 309 OFFCURVE",
"226 350 OFFCURVE",
"159 350 CURVE SMOOTH",
"92 350 OFFCURVE",
"47 310 OFFCURVE",
"47 248 CURVE SMOOTH",
"47 185 OFFCURVE",
"94 145 OFFCURVE",
"153 145 CURVE SMOOTH",
"227 145 OFFCURVE",
"269 183 OFFCURVE",
"269 236 CURVE",
"127 180 LINE",
"127 165 OFFCURVE",
"117 142 OFFCURVE",
"117 114 CURVE SMOOTH",
"117 35 OFFCURVE",
"186 -15 OFFCURVE",
"296 -15 CURVE SMOOTH"
);
},
{
closed = 1;
nodes = (
"119 203 OFFCURVE",
"104 220 OFFCURVE",
"104 249 CURVE SMOOTH",
"104 278 OFFCURVE",
"119 295 OFFCURVE",
"143 295 CURVE SMOOTH",
"167 295 OFFCURVE",
"182 278 OFFCURVE",
"182 249 CURVE SMOOTH",
"182 220 OFFCURVE",
"167 203 OFFCURVE",
"143 203 CURVE SMOOTH"
);
}
);
width = 529;
}
);
leftKerningGroup = "coCok-lao";
rightKerningGroup = "woWi-lao";
rightMetricsKey = "oO-lao";
subCategory = Spacing;
},
{
glyphname = "soSang-lao";
lastChange = "2020-12-17 09:42:54 +0000";
layers = (
{
anchors = (
{
name = bottom;
position = "{317, 0}";
},
{
name = bottomright;
position = "{421, 0}";
},
{
name = top;
position = "{317, 578}";
},
{
name = topright;
position = "{528, 578}";
}
);
layerId = "2CD50835-5B7E-4D2A-958C-2F579F79E971";
paths = (
{
closed = 1;
nodes = (
"503 -33 LINE SMOOTH",
"503 -90 OFFCURVE",
"511 -139 OFFCURVE",
"532 -171 CURVE",
"556 -162 LINE",
"534 -126 OFFCURVE",
"529 -82 OFFCURVE",
"529 -30 CURVE SMOOTH",
"529 3 LINE SMOOTH",
"529 60 OFFCURVE",
"511 96 OFFCURVE",
"457 96 CURVE SMOOTH",
"388 96 OFFCURVE",
"283 17 OFFCURVE",
"207 17 CURVE SMOOTH",
"158 17 OFFCURVE",
"119 50 OFFCURVE",
"119 103 CURVE SMOOTH",
"119 151 OFFCURVE",
"143 179 OFFCURVE",
"202 197 CURVE SMOOTH",
"261 215 OFFCURVE",
"341 227 OFFCURVE",
"415 249 CURVE SMOOTH",
"489 271 OFFCURVE",
"528 308 OFFCURVE",
"528 381 CURVE SMOOTH",
"528 479 OFFCURVE",
"452 538 OFFCURVE",
"324 538 CURVE SMOOTH",
"182 538 OFFCURVE",
"92 485 OFFCURVE",
"92 398 CURVE SMOOTH",
"92 348 OFFCURVE",
"123 316 OFFCURVE",
"173 316 CURVE SMOOTH",
"223 316 OFFCURVE",
"254 347 OFFCURVE",
"254 396 CURVE SMOOTH",
"254 445 OFFCURVE",
"222 475 OFFCURVE",
"178 475 CURVE SMOOTH",
"133 475 OFFCURVE",
"100 440 OFFCURVE",
"100 396 CURVE",
"104 413 OFFCURVE",
"121 440 OFFCURVE",
"134 446 CURVE",
"134 470 OFFCURVE",
"192 513 OFFCURVE",
"324 513 CURVE SMOOTH",
"437 513 OFFCURVE",
"501 465 OFFCURVE",
"501 381 CURVE SMOOTH",
"501 321 OFFCURVE",
"466 291 OFFCURVE",
"403 271 CURVE SMOOTH",
"340 251 OFFCURVE",
"248 237 OFFCURVE",
"188 219 CURVE SMOOTH",
"128 201 OFFCURVE",
"92 163 OFFCURVE",
"92 101 CURVE SMOOTH",
"92 35 OFFCURVE",
"141 -8 OFFCURVE",
"205 -8 CURVE SMOOTH",
"292 -8 OFFCURVE",
"394 71 OFFCURVE",
"452 71 CURVE SMOOTH",
"486 71 OFFCURVE",
"503 52 OFFCURVE",
"503 3 CURVE SMOOTH"
);
},
{
closed = 1;
nodes = (
"138 339 OFFCURVE",
"117 361 OFFCURVE",
"117 396 CURVE SMOOTH",
"117 431 OFFCURVE",
"139 453 OFFCURVE",
"173 453 CURVE SMOOTH",
"208 453 OFFCURVE",
"229 432 OFFCURVE",
"229 396 CURVE SMOOTH",
"229 360 OFFCURVE",
"208 339 OFFCURVE",
"173 339 CURVE SMOOTH"
);
}
);
width = 616;
},
{
anchors = (
{
name = bottom;
position = "{325, 0}";
},
{
name = bottomright;
position = "{406, 0}";
},
{
name = top;
position = "{325, 578}";
},
{
name = topright;
position = "{552, 578}";
}
);
hints = (
{
horizontal = 1;
origin = "{0, 29}";
target = "{0, 50}";
type = Stem;
},
{
horizontal = 1;
origin = "{0, 65}";
target = "{0, 14}";
type = Stem;
},
{
origin = "{0, 53}";
target = "{0, 7}";
type = Stem;
}
);
layerId = "6E668239-F79A-4803-9842-9160852853A7";
paths = (
{
closed = 1;
nodes = (
"471 -35 LINE SMOOTH",
"471 -87 OFFCURVE",
"481 -142 OFFCURVE",
"501 -172 CURVE",
"582 -154 LINE",
"563 -118 OFFCURVE",
"557 -75 OFFCURVE",
"557 -22 CURVE SMOOTH",
"557 35 LINE SMOOTH",
"557 98 OFFCURVE",
"520 129 OFFCURVE",
"465 129 CURVE SMOOTH",
"385 129 OFFCURVE",
"278 58 OFFCURVE",
"209 58 CURVE SMOOTH",
"166 58 OFFCURVE",
"147 82 OFFCURVE",
"147 116 CURVE SMOOTH",
"147 153 OFFCURVE",
"170 169 OFFCURVE",
"222 182 CURVE SMOOTH",
"274 195 OFFCURVE",
"367 206 OFFCURVE",
"438 230 CURVE SMOOTH",
"509 254 OFFCURVE",
"557 295 OFFCURVE",
"557 375 CURVE SMOOTH",
"557 480 OFFCURVE",
"470 543 OFFCURVE",
"323 543 CURVE SMOOTH",
"169 543 OFFCURVE",
"64 480 OFFCURVE",
"64 385 CURVE SMOOTH",
"64 323 OFFCURVE",
"104 284 OFFCURVE",
"166 284 CURVE SMOOTH",
"230 284 OFFCURVE",
"270 323 OFFCURVE",
"270 382 CURVE SMOOTH",
"270 439 OFFCURVE",
"231 474 OFFCURVE",
"164 474 CURVE SMOOTH",
"146 474 OFFCURVE",
"121 465 OFFCURVE",
"107 453 CURVE",
"141 458 OFFCURVE",
"172 457 OFFCURVE",
"205 453 CURVE",
"239 466 OFFCURVE",
"277 473 OFFCURVE",
"319 473 CURVE SMOOTH",
"417 473 OFFCURVE",
"473 436 OFFCURVE",
"473 374 CURVE SMOOTH",
"473 330 OFFCURVE",
"452 305 OFFCURVE",
"398 288 CURVE SMOOTH",
"344 271 OFFCURVE",
"224 252 OFFCURVE",
"167 235 CURVE SMOOTH",
"110 218 OFFCURVE",
"64 181 OFFCURVE",
"64 114 CURVE SMOOTH",
"64 41 OFFCURVE",
"117 -10 OFFCURVE",
"193 -10 CURVE SMOOTH",
"280 -10 OFFCURVE",
"370 55 OFFCURVE",
"431 55 CURVE SMOOTH",
"452 55 OFFCURVE",
"471 42 OFFCURVE",
"471 -4 CURVE SMOOTH"
);
},
{
closed = 1;
nodes = (
"137 332 OFFCURVE",
"118 351 OFFCURVE",
"118 383 CURVE SMOOTH",
"118 414 OFFCURVE",
"137 434 OFFCURVE",
"168 434 CURVE SMOOTH",
"199 434 OFFCURVE",
"218 414 OFFCURVE",
"218 383 CURVE SMOOTH",
"218 351 OFFCURVE",
"199 332 OFFCURVE",
"168 332 CURVE SMOOTH"
);
}
);
width = 624;
},
{
anchors = (
{
name = bottom;
position = "{299, 0}";
},
{
name = bottomright;
position = "{397, 0}";
},
{
name = top;
position = "{321, 578}";
},
{
name = topright;
position = "{596, 578}";
}
);
layerId = "EC79AED6-C145-434E-AE62-F6F3D2AFA8D1";
paths = (
{
closed = 1;
nodes = (
"427 -32 LINE SMOOTH",
"427 -88 OFFCURVE",
"438 -140 OFFCURVE",
"458 -172 CURVE",
"636 -145 LINE",
"619 -107 OFFCURVE",
"613 -65 OFFCURVE",
"613 -15 CURVE SMOOTH",
"613 71 LINE SMOOTH",
"613 128 OFFCURVE",
"588 175 OFFCURVE",
"501 175 CURVE SMOOTH",
"406 175 OFFCURVE",
"305 112 OFFCURVE",
"262 112 CURVE SMOOTH",
"243 112 OFFCURVE",
"233 121 OFFCURVE",
"233 134 CURVE SMOOTH",
"233 150 OFFCURVE",
"244 157 OFFCURVE",
"282 165 CURVE SMOOTH",
"320 173 OFFCURVE",
"372 181 OFFCURVE",
"451 200 CURVE SMOOTH",
"530 219 OFFCURVE",
"606 256 OFFCURVE",
"606 367 CURVE SMOOTH",
"606 489 OFFCURVE",
"505 558 OFFCURVE",
"330 558 CURVE SMOOTH",
"154 558 OFFCURVE",
"51 500 OFFCURVE",
"51 400 CURVE SMOOTH",
"51 331 OFFCURVE",
"98 288 OFFCURVE",
"176 288 CURVE SMOOTH",
"250 288 OFFCURVE",
"296 327 OFFCURVE",
"296 392 CURVE SMOOTH",
"296 434 OFFCURVE",
"275 481 OFFCURVE",
"196 481 CURVE SMOOTH",
"161 481 OFFCURVE",
"137 468 OFFCURVE",
"129 458 CURVE",
"216 457 OFFCURVE",
"250 444 OFFCURVE",
"252 420 CURVE",
"269 425 OFFCURVE",
"292 426 OFFCURVE",
"321 426 CURVE SMOOTH",
"387 426 OFFCURVE",
"423 406 OFFCURVE",
"423 369 CURVE SMOOTH",
"423 344 OFFCURVE",
"412 317 OFFCURVE",
"360 301 CURVE SMOOTH",
"308 285 OFFCURVE",
"251 278 OFFCURVE",
"183 260 CURVE SMOOTH",
"115 242 OFFCURVE",
"51 200 OFFCURVE",
"51 123 CURVE SMOOTH",
"51 41 OFFCURVE",
"113 -15 OFFCURVE",
"204 -15 CURVE SMOOTH",
"281 -15 OFFCURVE",
"354 27 OFFCURVE",
"395 27 CURVE SMOOTH",
"423 27 OFFCURVE",
"427 15 OFFCURVE",
"427 0 CURVE SMOOTH"
);
},
{
closed = 1;
nodes = (
"153 347 OFFCURVE",
"135 364 OFFCURVE",
"135 392 CURVE SMOOTH",
"135 420 OFFCURVE",
"153 437 OFFCURVE",
"183 437 CURVE SMOOTH",
"213 437 OFFCURVE",
"231 420 OFFCURVE",
"231 392 CURVE SMOOTH",
"231 364 OFFCURVE",
"213 347 OFFCURVE",
"183 347 CURVE SMOOTH"
);
}
);
width = 662;
},
{
anchors = (
{
name = bottom;
position = "{225, 0}";
},
{
name = bottomright;
position = "{282, 0}";
},
{
name = top;
position = "{225, 578}";
},
{
name = topright;
position = "{378, 578}";
}
);
layerId = "FFE3C573-8034-42D7-BBA7-2D1C8826F1F5";
paths = (
{
closed = 1;
nodes = (
"354 -43 LINE SMOOTH",
"354 -100 OFFCURVE",
"361 -139 OFFCURVE",
"377 -171 CURVE",
"400 -162 LINE",
"383 -126 OFFCURVE",
"378 -92 OFFCURVE",
"378 -40 CURVE SMOOTH",
"378 2 LINE SMOOTH",
"378 59 OFFCURVE",
"363 95 OFFCURVE",
"323 95 CURVE SMOOTH",
"274 95 OFFCURVE",
"207 15 OFFCURVE",
"153 15 CURVE SMOOTH",
"115 15 OFFCURVE",
"86 49 OFFCURVE",
"86 103 CURVE SMOOTH",
"86 150 OFFCURVE",
"115 177 OFFCURVE",
"156 196 CURVE SMOOTH",
"197 215 OFFCURVE",
"238 227 OFFCURVE",
"292 251 CURVE SMOOTH",
"346 275 OFFCURVE",
"378 308 OFFCURVE",
"378 382 CURVE SMOOTH",
"378 477 OFFCURVE",
"322 536 OFFCURVE",
"230 536 CURVE SMOOTH",
"129 536 OFFCURVE",
"62 483 OFFCURVE",
"62 396 CURVE SMOOTH",
"62 346 OFFCURVE",
"85 315 OFFCURVE",
"122 315 CURVE SMOOTH",
"160 315 OFFCURVE",
"184 344 OFFCURVE",
"184 394 CURVE SMOOTH",
"184 444 OFFCURVE",
"160 473 OFFCURVE",
"125 473 CURVE SMOOTH",
"93 473 OFFCURVE",
"69 434 OFFCURVE",
"69 393 CURVE",
"72 410 OFFCURVE",
"80 448 OFFCURVE",
"95 448 CURVE",
"98 468 OFFCURVE",
"140 513 OFFCURVE",
"230 513 CURVE SMOOTH",
"309 513 OFFCURVE",
"354 463 OFFCURVE",
"354 382 CURVE SMOOTH",
"354 317 OFFCURVE",
"324 290 OFFCURVE",
"280 270 CURVE SMOOTH",
"236 250 OFFCURVE",
"195 237 OFFCURVE",
"144 215 CURVE SMOOTH",
"93 193 OFFCURVE",
"62 160 OFFCURVE",
"62 101 CURVE SMOOTH",
"62 36 OFFCURVE",
"102 -8 OFFCURVE",
"153 -8 CURVE SMOOTH",
"214 -8 OFFCURVE",
"279 72 OFFCURVE",
"318 72 CURVE SMOOTH",
"344 72 OFFCURVE",
"354 48 OFFCURVE",
"354 3 CURVE SMOOTH"
);
},
{
closed = 1;
nodes = (
"98 336 OFFCURVE",
"84 357 OFFCURVE",
"84 394 CURVE SMOOTH",
"84 431 OFFCURVE",
"98 452 OFFCURVE",
"123 452 CURVE SMOOTH",
"148 452 OFFCURVE",
"162 431 OFFCURVE",
"162 394 CURVE SMOOTH",
"162 357 OFFCURVE",
"148 336 OFFCURVE",
"123 336 CURVE SMOOTH"
);
}
);
width = 439;
},
{
anchors = (
{
name = bottom;
position = "{233, 0}";
},
{
name = bottomright;
position = "{289, 0}";
},
{
name = top;
position = "{239, 578}";
},
{
name = topright;
position = "{414, 578}";
}
);
layerId = "CACD10EA-8E27-4203-9979-86A2B0F7ED74";
paths = (
{
closed = 1;
nodes = (
"343 -45 LINE SMOOTH",
"343 -97 OFFCURVE",
"352 -142 OFFCURVE",
"366 -172 CURVE",
"440 -154 LINE",
"426 -118 OFFCURVE",
"421 -85 OFFCURVE",
"421 -32 CURVE SMOOTH",
"421 30 LINE SMOOTH",
"421 86 OFFCURVE",
"399 125 OFFCURVE",
"340 125 CURVE SMOOTH",
"267 125 OFFCURVE",
"220 56 OFFCURVE",
"172 56 CURVE SMOOTH",
"146 56 OFFCURVE",
"125 79 OFFCURVE",
"125 113 CURVE SMOOTH",
"125 146 OFFCURVE",
"141 170 OFFCURVE",
"181 185 CURVE SMOOTH",
"221 200 OFFCURVE",
"277 212 OFFCURVE",
"325 233 CURVE SMOOTH",
"373 254 OFFCURVE",
"419 297 OFFCURVE",
"419 375 CURVE SMOOTH",
"419 479 OFFCURVE",
"353 541 OFFCURVE",
"241 541 CURVE SMOOTH",
"124 541 OFFCURVE",
"49 479 OFFCURVE",
"49 388 CURVE SMOOTH",
"49 328 OFFCURVE",
"78 287 OFFCURVE",
"129 287 CURVE SMOOTH",
"180 287 OFFCURVE",
"210 327 OFFCURVE",
"210 386 CURVE SMOOTH",
"210 441 OFFCURVE",
"180 475 OFFCURVE",
"136 475 CURVE SMOOTH",
"109 475 OFFCURVE",
"90 462 OFFCURVE",
"84 445 CURVE",
"116 450 OFFCURVE",
"136 453 OFFCURVE",
"152 451 CURVE",
"167 464 OFFCURVE",
"193 476 OFFCURVE",
"238 476 CURVE SMOOTH",
"305 476 OFFCURVE",
"343 438 OFFCURVE",
"343 374 CURVE SMOOTH",
"343 328 OFFCURVE",
"321 301 OFFCURVE",
"284 285 CURVE SMOOTH",
"247 269 OFFCURVE",
"181 252 OFFCURVE",
"132 233 CURVE SMOOTH",
"83 214 OFFCURVE",
"49 176 OFFCURVE",
"49 111 CURVE SMOOTH",
"49 40 OFFCURVE",
"96 -10 OFFCURVE",
"155 -10 CURVE SMOOTH",
"233 -10 OFFCURVE",
"289 58 OFFCURVE",
"316 58 CURVE SMOOTH",
"337 58 OFFCURVE",
"343 43 OFFCURVE",
"343 -3 CURVE SMOOTH"
);
},
{
closed = 1;
nodes = (
"111 331 OFFCURVE",
"97 353 OFFCURVE",
"97 386 CURVE SMOOTH",
"97 420 OFFCURVE",
"111 441 OFFCURVE",
"132 441 CURVE SMOOTH",
"153 441 OFFCURVE",
"167 420 OFFCURVE",
"167 386 CURVE SMOOTH",
"167 353 OFFCURVE",
"153 331 OFFCURVE",
"132 331 CURVE SMOOTH"
);
}
);
width = 470;
},
{
anchors = (
{
name = bottom;
position = "{243, 0}";
},
{
name = bottomright;
position = "{313, 0}";
},
{
name = top;
position = "{264, 578}";
},
{
name = topright;
position = "{477, 578}";
}
);
layerId = "96C6A4AF-11F2-4EC9-996B-29C760E40A38";
paths = (
{
closed = 1;
nodes = (
"341 -32 LINE SMOOTH",
"341 -88 OFFCURVE",
"350 -140 OFFCURVE",
"368 -172 CURVE",
"534 -145 LINE",
"518 -107 OFFCURVE",
"513 -65 OFFCURVE",
"513 -15 CURVE SMOOTH",
"513 66 LINE SMOOTH",
"513 106 OFFCURVE",
"505 169 OFFCURVE",
"416 169 CURVE SMOOTH",
"335 169 OFFCURVE",
"259 113 OFFCURVE",
"228 113 CURVE SMOOTH",
"216 113 OFFCURVE",
"203 120 OFFCURVE",
"203 134 CURVE SMOOTH",
"203 152 OFFCURVE",
"213 159 OFFCURVE",
"236 166 CURVE SMOOTH",
"259 173 OFFCURVE",
"309 185 OFFCURVE",
"371 203 CURVE SMOOTH",
"433 221 OFFCURVE",
"507 261 OFFCURVE",
"507 368 CURVE SMOOTH",
"507 488 OFFCURVE",
"420 556 OFFCURVE",
"271 556 CURVE SMOOTH",
"123 556 OFFCURVE",
"37 497 OFFCURVE",
"37 398 CURVE SMOOTH",
"37 330 OFFCURVE",
"77 288 OFFCURVE",
"142 288 CURVE SMOOTH",
"207 288 OFFCURVE",
"248 327 OFFCURVE",
"248 391 CURVE SMOOTH",
"248 435 OFFCURVE",
"223 480 OFFCURVE",
"163 480 CURVE SMOOTH",
"136 480 OFFCURVE",
"117 468 OFFCURVE",
"109 457 CURVE",
"192 456 OFFCURVE",
"221 446 OFFCURVE",
"221 425 CURVE",
"235 431 OFFCURVE",
"251 432 OFFCURVE",
"263 432 CURVE SMOOTH",
"311 432 OFFCURVE",
"339 410 OFFCURVE",
"339 370 CURVE SMOOTH",
"339 342 OFFCURVE",
"332 315 OFFCURVE",
"289 299 CURVE SMOOTH",
"246 283 OFFCURVE",
"216 277 OFFCURVE",
"150 257 CURVE SMOOTH",
"84 237 OFFCURVE",
"37 195 OFFCURVE",
"37 122 CURVE SMOOTH",
"37 40 OFFCURVE",
"90 -15 OFFCURVE",
"167 -15 CURVE SMOOTH",
"229 -15 OFFCURVE",
"292 31 OFFCURVE",
"318 31 CURVE SMOOTH",
"340 31 OFFCURVE",
"341 15 OFFCURVE",
"341 -1 CURVE SMOOTH"
);
},
{
closed = 1;
nodes = (
"127 345 OFFCURVE",
"112 362 OFFCURVE",
"112 391 CURVE SMOOTH",
"112 420 OFFCURVE",
"127 437 OFFCURVE",
"151 437 CURVE SMOOTH",
"175 437 OFFCURVE",
"190 420 OFFCURVE",
"190 391 CURVE SMOOTH",
"190 362 OFFCURVE",
"175 345 OFFCURVE",
"151 345 CURVE SMOOTH"
);
}
);
width = 549;
}
);
leftKerningGroup = "khoKhai-lao";
leftMetricsKey = "khoKhai-lao";
rightKerningGroup = "khoKhai-lao";
rightMetricsKey = "=khoKhai-lao@300";
unicode = 0E8A;
subCategory = Spacing;
},
{
glyphname = "nyoNyung-lao";
lastChange = "2020-12-17 09:42:54 +0000";
layers = (
{
anchors = (
{
name = bottom;
position = "{306, 0}";
},
{
name = bottomright;
position = "{539, 0}";
},
{
name = top;
position = "{315, 578}";
},
{
name = topright;
position = "{539, 578}";
}
);
layerId = "2CD50835-5B7E-4D2A-958C-2F579F79E971";
paths = (
{
closed = 1;
nodes = (
"455 -8 OFFCURVE",
"539 58 OFFCURVE",
"539 175 CURVE SMOOTH",
"539 530 LINE",
"513 530 LINE",
"513 179 LINE SMOOTH",
"513 74 OFFCURVE",
"440 17 OFFCURVE",
"306 17 CURVE SMOOTH",
"187 17 OFFCURVE",
"117 61 OFFCURVE",
"117 138 CURVE SMOOTH",
"117 205 OFFCURVE",
"165 246 OFFCURVE",
"244 246 CURVE SMOOTH",
"299 246 LINE",
"299 269 LINE",
"244 269 LINE SMOOTH",
"168 269 OFFCURVE",
"114 326 OFFCURVE",
"114 404 CURVE SMOOTH",
"114 421 OFFCURVE",
"116 429 OFFCURVE",
"119 446 CURVE",
"116 444 LINE",
"116 404 OFFCURVE",
"146 375 OFFCURVE",
"189 375 CURVE SMOOTH",
"237 375 OFFCURVE",
"270 408 OFFCURVE",
"270 455 CURVE SMOOTH",
"270 502 OFFCURVE",
"236 535 OFFCURVE",
"189 535 CURVE SMOOTH",
"128 535 OFFCURVE",
"87 481 OFFCURVE",
"87 405 CURVE SMOOTH",
"87 302 OFFCURVE",
"160 266 OFFCURVE",
"197 258 CURVE",
"197 256 LINE",
"158 249 OFFCURVE",
"90 223 OFFCURVE",
"90 138 CURVE SMOOTH",
"90 48 OFFCURVE",
"174 -8 OFFCURVE",
"306 -8 CURVE SMOOTH"
);
},
{
closed = 1;
nodes = (
"154 398 OFFCURVE",
"133 420 OFFCURVE",
"133 455 CURVE SMOOTH",
"133 490 OFFCURVE",
"154 512 OFFCURVE",
"189 512 CURVE SMOOTH",
"224 512 OFFCURVE",
"245 490 OFFCURVE",
"245 455 CURVE SMOOTH",
"245 420 OFFCURVE",
"224 398 OFFCURVE",
"189 398 CURVE SMOOTH"
);
}
);
width = 643;
},
{
anchors = (
{
name = bottom;
position = "{329, 0}";
},
{
name = bottomright;
position = "{567, 0}";
},
{
name = top;
position = "{324, 578}";
},
{
name = topright;
position = "{572, 578}";
}
);
hints = (
{
horizontal = 1;
origin = "{0, 46}";
target = "{0, 8}";
type = Stem;
},
{
horizontal = 1;
origin = "{0, 4}";
target = down;
type = TopGhost;
},
{
origin = "{0, 5}";
target = "{0, 2}";
type = Stem;
},
{
horizontal = 1;
origin = "{0, 33}";
target = "{1, 5}";
type = Stem;
}
);
layerId = "6E668239-F79A-4803-9842-9160852853A7";
paths = (
{
closed = 1;
nodes = (
"474 -10 OFFCURVE",
"572 65 OFFCURVE",
"572 184 CURVE SMOOTH",
"572 533 LINE",
"486 533 LINE",
"486 194 LINE SMOOTH",
"486 108 OFFCURVE",
"429 63 OFFCURVE",
"317 63 CURVE SMOOTH",
"216 63 OFFCURVE",
"162 93 OFFCURVE",
"162 151 CURVE SMOOTH",
"162 203 OFFCURVE",
"198 229 OFFCURVE",
"267 229 CURVE SMOOTH",
"305 229 LINE",
"305 296 LINE",
"267 296 LINE SMOOTH",
"195 296 OFFCURVE",
"147 333 OFFCURVE",
"147 385 CURVE SMOOTH",
"147 390 OFFCURVE",
"147 396 OFFCURVE",
"147 402 CURVE",
"131 403 LINE",
"131 367 OFFCURVE",
"156 342 OFFCURVE",
"199 342 CURVE SMOOTH",
"256 342 OFFCURVE",
"295 382 OFFCURVE",
"295 440 CURVE SMOOTH",
"295 501 OFFCURVE",
"254 540 OFFCURVE",
"191 540 CURVE SMOOTH",
"118 540 OFFCURVE",
"72 489 OFFCURVE",
"72 414 CURVE SMOOTH",
"72 313 OFFCURVE",
"151 273 OFFCURVE",
"193 266 CURVE",
"193 262 LINE",
"157 257 OFFCURVE",
"75 232 OFFCURVE",
"75 143 CURVE SMOOTH",
"75 49 OFFCURVE",
"168 -10 OFFCURVE",
"317 -10 CURVE SMOOTH"
);
},
{
closed = 1;
nodes = (
"160 390 OFFCURVE",
"141 409 OFFCURVE",
"141 441 CURVE SMOOTH",
"141 473 OFFCURVE",
"160 492 OFFCURVE",
"191 492 CURVE SMOOTH",
"222 492 OFFCURVE",
"241 473 OFFCURVE",
"241 441 CURVE SMOOTH",
"241 409 OFFCURVE",
"222 390 OFFCURVE",
"191 390 CURVE SMOOTH"
);
}
);
width = 662;
},
{
anchors = (
{
name = bottom;
position = "{340, 0}";
},
{
name = bottomright;
position = "{616, 0}";
},
{
name = top;
position = "{340, 578}";
},
{
name = topright;
position = "{626, 578}";
}
);
layerId = "EC79AED6-C145-434E-AE62-F6F3D2AFA8D1";
paths = (
{
closed = 1;
nodes = (
"516 -15 OFFCURVE",
"626 66 OFFCURVE",
"626 208 CURVE SMOOTH",
"626 543 LINE",
"440 543 LINE",
"440 218 LINE SMOOTH",
"440 159 OFFCURVE",
"405 131 OFFCURVE",
"333 131 CURVE SMOOTH",
"274 131 OFFCURVE",
"237 144 OFFCURVE",
"237 167 CURVE SMOOTH",
"237 187 OFFCURVE",
"262 199 OFFCURVE",
"303 199 CURVE SMOOTH",
"317 199 LINE",
"317 310 LINE",
"308 310 LINE SMOOTH",
"234 310 OFFCURVE",
"194 336 OFFCURVE",
"194 382 CURVE SMOOTH",
"194 385 OFFCURVE",
"194 389 OFFCURVE",
"194 392 CURVE",
"139 396 LINE",
"139 371 OFFCURVE",
"181 339 OFFCURVE",
"220 339 CURVE SMOOTH",
"283 339 OFFCURVE",
"326 383 OFFCURVE",
"326 447 CURVE SMOOTH",
"326 510 OFFCURVE",
"275 553 OFFCURVE",
"201 553 CURVE SMOOTH",
"107 553 OFFCURVE",
"48 495 OFFCURVE",
"48 416 CURVE SMOOTH",
"48 324 OFFCURVE",
"109 282 OFFCURVE",
"163 264 CURVE",
"163 259 LINE",
"112 252 OFFCURVE",
"53 220 OFFCURVE",
"53 143 CURVE SMOOTH",
"53 44 OFFCURVE",
"156 -15 OFFCURVE",
"325 -15 CURVE SMOOTH"
);
},
{
closed = 1;
nodes = (
"177 401 OFFCURVE",
"159 418 OFFCURVE",
"159 446 CURVE SMOOTH",
"159 474 OFFCURVE",
"177 491 OFFCURVE",
"207 491 CURVE SMOOTH",
"237 491 OFFCURVE",
"255 474 OFFCURVE",
"255 446 CURVE SMOOTH",
"255 418 OFFCURVE",
"237 401 OFFCURVE",
"207 401 CURVE SMOOTH"
);
}
);
width = 692;
},
{
anchors = (
{
name = bottom;
position = "{220, 0}";
},
{
name = bottomright;
position = "{385, 0}";
},
{
name = top;
position = "{224, 578}";
},
{
name = topright;
position = "{385, 578}";
}
);
layerId = "FFE3C573-8034-42D7-BBA7-2D1C8826F1F5";
paths = (
{
closed = 1;
nodes = (
"322 -8 OFFCURVE",
"385 57 OFFCURVE",
"385 165 CURVE SMOOTH",
"385 528 LINE",
"361 528 LINE",
"361 170 LINE SMOOTH",
"361 70 OFFCURVE",
"311 15 OFFCURVE",
"218 15 CURVE SMOOTH",
"139 15 OFFCURVE",
"86 63 OFFCURVE",
"86 138 CURVE SMOOTH",
"86 205 OFFCURVE",
"120 247 OFFCURVE",
"175 247 CURVE SMOOTH",
"212 247 LINE",
"212 268 LINE",
"175 268 LINE SMOOTH",
"121 268 OFFCURVE",
"83 325 OFFCURVE",
"83 402 CURVE SMOOTH",
"83 421 OFFCURVE",
"84 431 OFFCURVE",
"86 445 CURVE",
"80 443 LINE",
"80 400 OFFCURVE",
"102 375 OFFCURVE",
"135 375 CURVE SMOOTH",
"171 375 OFFCURVE",
"195 406 OFFCURVE",
"195 453 CURVE SMOOTH",
"195 502 OFFCURVE",
"171 533 OFFCURVE",
"134 533 CURVE SMOOTH",
"87 533 OFFCURVE",
"60 481 OFFCURVE",
"60 403 CURVE SMOOTH",
"60 300 OFFCURVE",
"113 266 OFFCURVE",
"139 258 CURVE",
"139 256 LINE",
"112 249 OFFCURVE",
"62 222 OFFCURVE",
"62 138 CURVE SMOOTH",
"62 52 OFFCURVE",
"126 -8 OFFCURVE",
"218 -8 CURVE SMOOTH"
);
},
{
closed = 1;
nodes = (
"109 396 OFFCURVE",
"95 417 OFFCURVE",
"95 454 CURVE SMOOTH",
"95 491 OFFCURVE",
"109 512 OFFCURVE",
"134 512 CURVE SMOOTH",
"159 512 OFFCURVE",
"173 491 OFFCURVE",
"173 454 CURVE SMOOTH",
"173 417 OFFCURVE",
"159 396 OFFCURVE",
"134 396 CURVE SMOOTH"
);
}
);
width = 455;
},
{
anchors = (
{
name = bottom;
position = "{247, 0}";
},
{
name = bottomright;
position = "{426, 0}";
},
{
name = top;
position = "{242, 578}";
},
{
name = topright;
position = "{431, 578}";
}
);
layerId = "CACD10EA-8E27-4203-9979-86A2B0F7ED74";
paths = (
{
closed = 1;
nodes = (
"357 -10 OFFCURVE",
"431 62 OFFCURVE",
"431 178 CURVE SMOOTH",
"431 531 LINE",
"353 531 LINE",
"353 187 LINE SMOOTH",
"353 104 OFFCURVE",
"312 56 OFFCURVE",
"239 56 CURVE SMOOTH",
"166 56 OFFCURVE",
"130 88 OFFCURVE",
"130 149 CURVE SMOOTH",
"130 199 OFFCURVE",
"156 232 OFFCURVE",
"202 232 CURVE SMOOTH",
"228 232 LINE",
"228 293 LINE",
"204 293 LINE SMOOTH",
"149 293 OFFCURVE",
"115 324 OFFCURVE",
"115 378 CURVE SMOOTH",
"115 384 OFFCURVE",
"115 387 OFFCURVE",
"115 388 CURVE",
"96 408 LINE",
"96 372 OFFCURVE",
"103 340 OFFCURVE",
"152 340 CURVE SMOOTH",
"194 340 OFFCURVE",
"223 380 OFFCURVE",
"223 439 CURVE SMOOTH",
"223 501 OFFCURVE",
"192 538 OFFCURVE",
"141 538 CURVE SMOOTH",
"87 538 OFFCURVE",
"50 495 OFFCURVE",
"50 411 CURVE SMOOTH",
"50 311 OFFCURVE",
"103 272 OFFCURVE",
"136 265 CURVE",
"136 261 LINE",
"108 256 OFFCURVE",
"53 228 OFFCURVE",
"53 142 CURVE SMOOTH",
"53 47 OFFCURVE",
"124 -10 OFFCURVE",
"239 -10 CURVE SMOOTH"
);
},
{
closed = 1;
nodes = (
"121 384 OFFCURVE",
"108 405 OFFCURVE",
"108 439 CURVE SMOOTH",
"108 473 OFFCURVE",
"121 494 OFFCURVE",
"143 494 CURVE SMOOTH",
"164 494 OFFCURVE",
"178 473 OFFCURVE",
"178 439 CURVE SMOOTH",
"178 405 OFFCURVE",
"164 384 OFFCURVE",
"143 384 CURVE SMOOTH"
);
}
);
width = 495;
},
{
anchors = (
{
name = bottom;
position = "{282, 0}";
},
{
name = bottomright;
position = "{514, 0}";
},
{
name = top;
position = "{282, 578}";
},
{
name = topright;
position = "{524, 578}";
}
);
layerId = "96C6A4AF-11F2-4EC9-996B-29C760E40A38";
paths = (
{
closed = 1;
nodes = (
"429 -15 OFFCURVE",
"524 67 OFFCURVE",
"524 205 CURVE SMOOTH",
"524 541 LINE",
"352 541 LINE",
"352 216 LINE SMOOTH",
"352 159 OFFCURVE",
"326 131 OFFCURVE",
"273 131 CURVE SMOOTH",
"235 131 OFFCURVE",
"210 146 OFFCURVE",
"210 169 CURVE SMOOTH",
"210 190 OFFCURVE",
"228 203 OFFCURVE",
"256 203 CURVE SMOOTH",
"263 203 LINE",
"263 308 LINE",
"261 308 LINE SMOOTH",
"200 308 OFFCURVE",
"169 336 OFFCURVE",
"169 382 CURVE SMOOTH",
"169 383 OFFCURVE",
"169 390 OFFCURVE",
"169 394 CURVE",
"117 397 LINE",
"117 371 OFFCURVE",
"153 339 OFFCURVE",
"186 339 CURVE SMOOTH",
"239 339 OFFCURVE",
"276 383 OFFCURVE",
"276 445 CURVE SMOOTH",
"276 508 OFFCURVE",
"231 551 OFFCURVE",
"163 551 CURVE SMOOTH",
"83 551 OFFCURVE",
"35 496 OFFCURVE",
"35 412 CURVE SMOOTH",
"35 323 OFFCURVE",
"83 281 OFFCURVE",
"130 264 CURVE",
"130 259 LINE",
"91 254 OFFCURVE",
"39 218 OFFCURVE",
"39 142 CURVE SMOOTH",
"39 44 OFFCURVE",
"126 -15 OFFCURVE",
"269 -15 CURVE SMOOTH"
);
},
{
closed = 1;
nodes = (
"149 399 OFFCURVE",
"134 416 OFFCURVE",
"134 445 CURVE SMOOTH",
"134 474 OFFCURVE",
"149 491 OFFCURVE",
"173 491 CURVE SMOOTH",
"197 491 OFFCURVE",
"212 474 OFFCURVE",
"212 445 CURVE SMOOTH",
"212 416 OFFCURVE",
"197 399 OFFCURVE",
"173 399 CURVE SMOOTH"
);
}
);
width = 574;
}
);
leftKerningGroup = "khoKhuay-lao";
rightKerningGroup = "noNok-lao";
rightMetricsKey = "doDek-lao";
unicode = 0E8D;
subCategory = Spacing;
},
{
glyphname = "doDek-lao";
lastChange = "2020-12-17 09:42:54 +0000";
layers = (
{
anchors = (
{
name = bottom;
position = "{332, 0}";
},
{
name = bottomright;
position = "{560, 0}";
},
{
name = top;
position = "{332, 578}";
},
{
name = topright;
position = "{560, 578}";
}
);
layerId = "2CD50835-5B7E-4D2A-958C-2F579F79E971";
paths = (
{
closed = 1;
nodes = (
"104 78 LINE SMOOTH",
"104 28 OFFCURVE",
"137 -5 OFFCURVE",
"186 -5 CURVE SMOOTH",
"236 -5 OFFCURVE",
"269 27 OFFCURVE",
"269 75 CURVE SMOOTH",
"269 122 OFFCURVE",
"237 155 OFFCURVE",
"190 155 CURVE SMOOTH",
"142 155 OFFCURVE",
"112 124 OFFCURVE",
"112 75 CURVE",
"116 75 LINE",
"116 94 OFFCURVE",
"125 115 OFFCURVE",
"130 115 CURVE",
"130 344 LINE SMOOTH",
"130 451 OFFCURVE",
"205 513 OFFCURVE",
"332 513 CURVE SMOOTH",
"459 513 OFFCURVE",
"534 451 OFFCURVE",
"534 344 CURVE SMOOTH",
"534 0 LINE",
"560 0 LINE",
"560 349 LINE SMOOTH",
"560 465 OFFCURVE",
"472 538 OFFCURVE",
"332 538 CURVE SMOOTH",
"193 538 OFFCURVE",
"104 464 OFFCURVE",
"104 349 CURVE SMOOTH"
);
},
{
closed = 1;
nodes = (
"223 132 OFFCURVE",
"244 110 OFFCURVE",
"244 75 CURVE SMOOTH",
"244 40 OFFCURVE",
"223 18 OFFCURVE",
"188 18 CURVE SMOOTH",
"153 18 OFFCURVE",
"132 40 OFFCURVE",
"132 75 CURVE SMOOTH",
"132 110 OFFCURVE",
"153 132 OFFCURVE",
"188 132 CURVE SMOOTH"
);
}
);
width = 664;
},
{
anchors = (
{
name = bottom;
position = "{342, 0}";
},
{
name = bottomright;
position = "{594, 0}";
},
{
name = top;
position = "{342, 578}";
},
{
name = topright;
position = "{589, 578}";
}
);
hints = (
{
horizontal = 1;
origin = "{0, 29}";
target = "{0, 20}";
type = Stem;
},
{
horizontal = 1;
origin = "{0, 24}";
target = up;
type = BottomGhost;
},
{
origin = "{0, 0}";
target = "{0, 16}";
type = Stem;
},
{
origin = "{0, 24}";
target = "{0, 25}";
type = Stem;
},
{
horizontal = 1;
origin = "{0, 3}";
target = "{1, 5}";
type = Stem;
}
);
layerId = "6E668239-F79A-4803-9842-9160852853A7";
paths = (
{
closed = 1;
nodes = (
"90 93 LINE SMOOTH",
"90 32 OFFCURVE",
"130 -7 OFFCURVE",
"194 -7 CURVE SMOOTH",
"257 -7 OFFCURVE",
"298 32 OFFCURVE",
"298 93 CURVE SMOOTH",
"298 151 OFFCURVE",
"259 191 OFFCURVE",
"202 191 CURVE SMOOTH",
"135 191 OFFCURVE",
"96 155 OFFCURVE",
"96 92 CURVE",
"109 92 LINE",
"109 124 OFFCURVE",
"147 165 OFFCURVE",
"176 165 CURVE",
"176 329 LINE SMOOTH",
"176 420 OFFCURVE",
"235 470 OFFCURVE",
"342 470 CURVE SMOOTH",
"449 470 OFFCURVE",
"508 420 OFFCURVE",
"508 329 CURVE SMOOTH",
"508 0 LINE",
"594 0 LINE",
"594 338 LINE SMOOTH",
"594 465 OFFCURVE",
"498 543 OFFCURVE",
"342 543 CURVE SMOOTH",
"186 543 OFFCURVE",
"90 465 OFFCURVE",
"90 338 CURVE SMOOTH"
);
},
{
closed = 1;
nodes = (
"225 143 OFFCURVE",
"244 124 OFFCURVE",
"244 92 CURVE SMOOTH",
"244 60 OFFCURVE",
"225 41 OFFCURVE",
"194 41 CURVE SMOOTH",
"163 41 OFFCURVE",
"144 60 OFFCURVE",
"144 92 CURVE SMOOTH",
"144 124 OFFCURVE",
"163 143 OFFCURVE",
"194 143 CURVE SMOOTH"
);
}
);
width = 684;
},
{
anchors = (
{
name = bottom;
position = "{357, 0}";
},
{
name = bottomright;
position = "{648, 0}";
},
{
name = top;
position = "{355, 578}";
},
{
name = topright;
position = "{638, 578}";
}
);
layerId = "EC79AED6-C145-434E-AE62-F6F3D2AFA8D1";
paths = (
{
closed = 1;
nodes = (
"66 139 LINE SMOOTH",
"66 47 OFFCURVE",
"124 -10 OFFCURVE",
"218 -10 CURVE SMOOTH",
"292 -10 OFFCURVE",
"343 33 OFFCURVE",
"343 96 CURVE SMOOTH",
"343 160 OFFCURVE",
"300 204 OFFCURVE",
"237 204 CURVE SMOOTH",
"160 204 OFFCURVE",
"85 174 OFFCURVE",
"85 96 CURVE",
"110 96 LINE",
"110 143 OFFCURVE",
"174 182 OFFCURVE",
"252 182 CURVE",
"252 310 LINE SMOOTH",
"252 374 OFFCURVE",
"290 412 OFFCURVE",
"355 412 CURVE SMOOTH",
"422 412 OFFCURVE",
"462 374 OFFCURVE",
"462 310 CURVE SMOOTH",
"462 0 LINE",
"648 0 LINE",
"648 329 LINE SMOOTH",
"648 471 OFFCURVE",
"536 558 OFFCURVE",
"355 558 CURVE SMOOTH",
"176 558 OFFCURVE",
"66 471 OFFCURVE",
"66 329 CURVE SMOOTH"
);
},
{
closed = 1;
nodes = (
"254 142 OFFCURVE",
"272 125 OFFCURVE",
"272 97 CURVE SMOOTH",
"272 69 OFFCURVE",
"254 52 OFFCURVE",
"224 52 CURVE SMOOTH",
"194 52 OFFCURVE",
"176 69 OFFCURVE",
"176 97 CURVE SMOOTH",
"176 125 OFFCURVE",
"194 142 OFFCURVE",
"224 142 CURVE SMOOTH"
);
}
);
width = 714;
},
{
anchors = (
{
name = bottom;
position = "{234, 0}";
},
{
name = bottomright;
position = "{398, 0}";
},
{
name = top;
position = "{234, 578}";
},
{
name = topright;
position = "{398, 578}";
}
);
layerId = "FFE3C573-8034-42D7-BBA7-2D1C8826F1F5";
paths = (
{
closed = 1;
nodes = (
"70 76 LINE SMOOTH",
"70 27 OFFCURVE",
"94 -5 OFFCURVE",
"132 -5 CURVE SMOOTH",
"169 -5 OFFCURVE",
"193 26 OFFCURVE",
"193 75 CURVE SMOOTH",
"193 122 OFFCURVE",
"169 153 OFFCURVE",
"133 153 CURVE SMOOTH",
"97 153 OFFCURVE",
"78 121 OFFCURVE",
"78 75 CURVE",
"81 75 LINE",
"81 93 OFFCURVE",
"88 114 OFFCURVE",
"94 114 CURVE",
"94 357 LINE SMOOTH",
"94 458 OFFCURVE",
"144 513 OFFCURVE",
"234 513 CURVE SMOOTH",
"324 513 OFFCURVE",
"374 458 OFFCURVE",
"374 357 CURVE SMOOTH",
"374 0 LINE",
"398 0 LINE",
"398 362 LINE SMOOTH",
"398 470 OFFCURVE",
"336 536 OFFCURVE",
"234 536 CURVE SMOOTH",
"132 536 OFFCURVE",
"70 470 OFFCURVE",
"70 362 CURVE SMOOTH"
);
},
{
closed = 1;
nodes = (
"157 132 OFFCURVE",
"171 111 OFFCURVE",
"171 74 CURVE SMOOTH",
"171 37 OFFCURVE",
"157 16 OFFCURVE",
"132 16 CURVE SMOOTH",
"107 16 OFFCURVE",
"93 37 OFFCURVE",
"93 74 CURVE SMOOTH",
"93 111 OFFCURVE",
"107 132 OFFCURVE",
"132 132 CURVE SMOOTH"
);
}
);
width = 468;
},
{
anchors = (
{
name = bottom;
position = "{255, 0}";
},
{
name = bottomright;
position = "{448, 0}";
},
{
name = top;
position = "{255, 578}";
},
{
name = topright;
position = "{443, 578}";
}
);
layerId = "CACD10EA-8E27-4203-9979-86A2B0F7ED74";
paths = (
{
closed = 1;
nodes = (
"64 103 LINE SMOOTH",
"64 32 OFFCURVE",
"92 -7 OFFCURVE",
"145 -7 CURVE SMOOTH",
"196 -7 OFFCURVE",
"227 30 OFFCURVE",
"227 92 CURVE SMOOTH",
"227 151 OFFCURVE",
"198 191 OFFCURVE",
"156 191 CURVE SMOOTH",
"107 191 OFFCURVE",
"71 153 OFFCURVE",
"71 89 CURVE",
"82 89 LINE",
"82 119 OFFCURVE",
"113 157 OFFCURVE",
"142 157 CURVE",
"142 338 LINE SMOOTH",
"142 425 OFFCURVE",
"183 475 OFFCURVE",
"256 475 CURVE SMOOTH",
"329 475 OFFCURVE",
"370 425 OFFCURVE",
"370 338 CURVE SMOOTH",
"370 0 LINE",
"448 0 LINE",
"448 347 LINE SMOOTH",
"448 467 OFFCURVE",
"374 541 OFFCURVE",
"256 541 CURVE SMOOTH",
"138 541 OFFCURVE",
"64 467 OFFCURVE",
"64 347 CURVE SMOOTH"
);
},
{
closed = 1;
nodes = (
"168 147 OFFCURVE",
"182 126 OFFCURVE",
"182 92 CURVE SMOOTH",
"182 58 OFFCURVE",
"168 37 OFFCURVE",
"147 37 CURVE SMOOTH",
"125 37 OFFCURVE",
"112 58 OFFCURVE",
"112 92 CURVE SMOOTH",
"112 126 OFFCURVE",
"125 147 OFFCURVE",
"147 147 CURVE SMOOTH"
);
}
);
width = 512;
},
{
anchors = (
{
name = bottom;
position = "{294, 0}";
},
{
name = bottomright;
position = "{544, 0}";
},
{
name = top;
position = "{294, 578}";
},
{
name = topright;
position = "{534, 578}";
}
);
layerId = "96C6A4AF-11F2-4EC9-996B-29C760E40A38";
paths = (
{
closed = 1;
nodes = (
"50 132 LINE SMOOTH",
"50 45 OFFCURVE",
"100 -10 OFFCURVE",
"178 -10 CURVE SMOOTH",
"246 -10 OFFCURVE",
"291 33 OFFCURVE",
"291 96 CURVE SMOOTH",
"291 158 OFFCURVE",
"254 202 OFFCURVE",
"201 202 CURVE SMOOTH",
"135 202 OFFCURVE",
"67 171 OFFCURVE",
"67 95 CURVE",
"90 95 LINE",
"90 140 OFFCURVE",
"149 179 OFFCURVE",
"222 179 CURVE",
"222 321 LINE SMOOTH",
"222 377 OFFCURVE",
"250 410 OFFCURVE",
"297 410 CURVE SMOOTH",
"344 410 OFFCURVE",
"372 377 OFFCURVE",
"372 321 CURVE SMOOTH",
"372 0 LINE",
"544 0 LINE",
"544 344 LINE SMOOTH",
"544 475 OFFCURVE",
"449 556 OFFCURVE",
"297 556 CURVE SMOOTH",
"145 556 OFFCURVE",
"50 475 OFFCURVE",
"50 344 CURVE SMOOTH"
);
},
{
closed = 1;
nodes = (
"212 142 OFFCURVE",
"227 125 OFFCURVE",
"227 96 CURVE SMOOTH",
"227 67 OFFCURVE",
"212 50 OFFCURVE",
"188 50 CURVE SMOOTH",
"164 50 OFFCURVE",
"149 67 OFFCURVE",
"149 96 CURVE SMOOTH",
"149 125 OFFCURVE",
"164 142 OFFCURVE",
"188 142 CURVE SMOOTH"
);
}
);
width = 594;
}
);
leftKerningGroup = "doDek-lao";
rightKerningGroup = "doDek-lao";
rightMetricsKey = "=|";
unicode = 0E94;
subCategory = Spacing;
},
{
glyphname = "toTa-lao";
lastChange = "2020-12-17 09:42:54 +0000";
layers = (
{
anchors = (
{
name = bottom;
position = "{340, 0}";
},
{
name = bottomright;
position = "{576, 0}";
},
{
name = top;
position = "{340, 578}";
},
{
name = topright;
position = "{576, 578}";
}
);
layerId = "2CD50835-5B7E-4D2A-958C-2F579F79E971";
paths = (
{
closed = 1;
nodes = (
"104 78 LINE SMOOTH",
"104 28 OFFCURVE",
"137 -5 OFFCURVE",
"186 -5 CURVE SMOOTH",
"236 -5 OFFCURVE",
"269 27 OFFCURVE",
"269 75 CURVE SMOOTH",
"269 122 OFFCURVE",
"237 155 OFFCURVE",
"190 155 CURVE SMOOTH",
"142 155 OFFCURVE",
"112 124 OFFCURVE",
"112 75 CURVE",
"116 75 LINE",
"116 94 OFFCURVE",
"125 115 OFFCURVE",
"130 115 CURVE",
"130 416 LINE SMOOTH",
"130 478 OFFCURVE",
"161 513 OFFCURVE",
"218 513 CURVE SMOOTH",
"281 513 OFFCURVE",
"320 471 OFFCURVE",
"329 392 CURVE",
"351 392 LINE",
"360 471 OFFCURVE",
"399 513 OFFCURVE",
"462 513 CURVE SMOOTH",
"519 513 OFFCURVE",
"550 478 OFFCURVE",
"550 416 CURVE SMOOTH",
"550 0 LINE",
"576 0 LINE",
"576 418 LINE SMOOTH",
"576 494 OFFCURVE",
"535 538 OFFCURVE",
"464 538 CURVE SMOOTH",
"385 538 OFFCURVE",
"337 485 OFFCURVE",
"337 397 CURVE",
"343 439 LINE",
"337 439 LINE",
"343 397 LINE",
"343 485 OFFCURVE",
"295 538 OFFCURVE",
"216 538 CURVE SMOOTH",
"145 538 OFFCURVE",
"104 494 OFFCURVE",
"104 418 CURVE SMOOTH"
);
},
{
closed = 1;
nodes = (
"223 132 OFFCURVE",
"244 110 OFFCURVE",
"244 75 CURVE SMOOTH",
"244 40 OFFCURVE",
"223 18 OFFCURVE",
"188 18 CURVE SMOOTH",
"153 18 OFFCURVE",
"132 40 OFFCURVE",
"132 75 CURVE SMOOTH",
"132 110 OFFCURVE",
"153 132 OFFCURVE",
"188 132 CURVE SMOOTH"
);
}
);
width = 680;
},
{
anchors = (
{
name = bottom;
position = "{354, 0}";
},
{
name = bottomright;
position = "{618, 0}";
},
{
name = top;
position = "{354, 578}";
},
{
name = topright;
position = "{613, 578}";
}
);
hints = (
{
horizontal = 1;
origin = "{0, 45}";
target = "{0, 20}";
type = Stem;
},
{
horizontal = 1;
origin = "{0, 31}";
target = up;
type = BottomGhost;
},
{
origin = "{0, 0}";
target = "{0, 16}";
type = Stem;
},
{
origin = "{0, 31}";
target = "{0, 32}";
type = Stem;
},
{
horizontal = 1;
origin = "{0, 3}";
target = "{1, 5}";
type = Stem;
}
);
layerId = "6E668239-F79A-4803-9842-9160852853A7";
paths = (
{
closed = 1;
nodes = (
"90 93 LINE SMOOTH",
"90 32 OFFCURVE",
"130 -7 OFFCURVE",
"194 -7 CURVE SMOOTH",
"257 -7 OFFCURVE",
"298 32 OFFCURVE",
"298 93 CURVE SMOOTH",
"298 151 OFFCURVE",
"259 191 OFFCURVE",
"202 191 CURVE SMOOTH",
"135 191 OFFCURVE",
"96 155 OFFCURVE",
"96 92 CURVE",
"109 92 LINE",
"109 124 OFFCURVE",
"147 165 OFFCURVE",
"176 165 CURVE",
"176 397 LINE SMOOTH",
"176 444 OFFCURVE",
"200 470 OFFCURVE",
"242 470 CURVE SMOOTH",
"292 470 OFFCURVE",
"317 438 OFFCURVE",
"323 369 CURVE",
"385 369 LINE",
"391 438 OFFCURVE",
"417 470 OFFCURVE",
"466 470 CURVE SMOOTH",
"508 470 OFFCURVE",
"532 444 OFFCURVE",
"532 397 CURVE SMOOTH",
"532 0 LINE",
"618 0 LINE",
"618 407 LINE SMOOTH",
"618 490 OFFCURVE",
"565 543 OFFCURVE",
"483 543 CURVE SMOOTH",
"396 543 OFFCURVE",
"341 481 OFFCURVE",
"341 383 CURVE",
"367 462 LINE",
"341 462 LINE",
"367 383 LINE",
"367 481 OFFCURVE",
"312 543 OFFCURVE",
"225 543 CURVE SMOOTH",
"143 543 OFFCURVE",
"90 490 OFFCURVE",
"90 407 CURVE SMOOTH"
);
},
{
closed = 1;
nodes = (
"225 143 OFFCURVE",
"244 124 OFFCURVE",
"244 92 CURVE SMOOTH",
"244 60 OFFCURVE",
"225 41 OFFCURVE",
"194 41 CURVE SMOOTH",
"163 41 OFFCURVE",
"144 60 OFFCURVE",
"144 92 CURVE SMOOTH",
"144 124 OFFCURVE",
"163 143 OFFCURVE",
"194 143 CURVE SMOOTH"
);
}
);
width = 708;
},
{
anchors = (
{
name = bottom;
position = "{369, 0}";
},
{
name = bottomright;
position = "{672, 0}";
},
{
name = top;
position = "{369, 578}";
},
{
name = topright;
position = "{662, 578}";
}
);
layerId = "EC79AED6-C145-434E-AE62-F6F3D2AFA8D1";
paths = (
{
closed = 1;
nodes = (
"66 139 LINE SMOOTH",
"66 47 OFFCURVE",
"124 -10 OFFCURVE",
"218 -10 CURVE SMOOTH",
"292 -10 OFFCURVE",
"343 33 OFFCURVE",
"343 96 CURVE SMOOTH",
"343 160 OFFCURVE",
"300 204 OFFCURVE",
"237 204 CURVE SMOOTH",
"160 204 OFFCURVE",
"85 174 OFFCURVE",
"85 96 CURVE",
"110 96 LINE",
"110 143 OFFCURVE",
"174 182 OFFCURVE",
"252 182 CURVE",
"252 383 LINE SMOOTH",
"252 405 OFFCURVE",
"263 418 OFFCURVE",
"281 418 CURVE SMOOTH",
"305 418 OFFCURVE",
"318 397 OFFCURVE",
"323 347 CURVE",
"415 347 LINE",
"420 398 OFFCURVE",
"432 418 OFFCURVE",
"456 418 CURVE SMOOTH",
"475 418 OFFCURVE",
"486 405 OFFCURVE",
"486 383 CURVE SMOOTH",
"486 0 LINE",
"672 0 LINE",
"672 401 LINE SMOOTH",
"672 497 OFFCURVE",
"612 558 OFFCURVE",
"518 558 CURVE SMOOTH",
"412 558 OFFCURVE",
"346 486 OFFCURVE",
"346 371 CURVE",
"392 479 LINE",
"346 479 LINE",
"392 371 LINE",
"392 486 OFFCURVE",
"326 558 OFFCURVE",
"220 558 CURVE SMOOTH",
"126 558 OFFCURVE",
"66 497 OFFCURVE",
"66 401 CURVE SMOOTH"
);
},
{
closed = 1;
nodes = (
"254 142 OFFCURVE",
"272 125 OFFCURVE",
"272 97 CURVE SMOOTH",
"272 69 OFFCURVE",
"254 52 OFFCURVE",
"224 52 CURVE SMOOTH",
"194 52 OFFCURVE",
"176 69 OFFCURVE",
"176 97 CURVE SMOOTH",
"176 125 OFFCURVE",
"194 142 OFFCURVE",
"224 142 CURVE SMOOTH"
);
}
);
width = 738;
},
{
anchors = (
{
name = bottom;
position = "{240, 0}";
},
{
name = bottomright;
position = "{410, 0}";
},
{
name = top;
position = "{240, 578}";
},
{
name = topright;
position = "{410, 578}";
}
);
layerId = "FFE3C573-8034-42D7-BBA7-2D1C8826F1F5";
paths = (
{
closed = 1;
nodes = (
"70 76 LINE SMOOTH",
"70 27 OFFCURVE",
"94 -5 OFFCURVE",
"132 -5 CURVE SMOOTH",
"169 -5 OFFCURVE",
"193 26 OFFCURVE",
"193 75 CURVE SMOOTH",
"193 122 OFFCURVE",
"169 153 OFFCURVE",
"133 153 CURVE SMOOTH",
"97 153 OFFCURVE",
"78 121 OFFCURVE",
"78 75 CURVE",
"81 75 LINE",
"81 93 OFFCURVE",
"88 114 OFFCURVE",
"94 114 CURVE",
"94 429 LINE SMOOTH",
"94 485 OFFCURVE",
"114 513 OFFCURVE",
"154 513 CURVE SMOOTH",
"197 513 OFFCURVE",
"224 470 OFFCURVE",
"230 391 CURVE",
"250 391 LINE",
"256 470 OFFCURVE",
"283 513 OFFCURVE",
"326 513 CURVE SMOOTH",
"366 513 OFFCURVE",
"386 485 OFFCURVE",
"386 429 CURVE SMOOTH",
"386 0 LINE",
"410 0 LINE",
"410 431 LINE SMOOTH",
"410 497 OFFCURVE",
"380 536 OFFCURVE",
"328 536 CURVE SMOOTH",
"271 536 OFFCURVE",
"236 482 OFFCURVE",
"236 395 CURVE",
"244 448 LINE",
"236 448 LINE",
"244 395 LINE",
"244 482 OFFCURVE",
"209 536 OFFCURVE",
"152 536 CURVE SMOOTH",
"100 536 OFFCURVE",
"70 497 OFFCURVE",
"70 431 CURVE SMOOTH"
);
},
{
closed = 1;
nodes = (
"157 132 OFFCURVE",
"171 111 OFFCURVE",
"171 74 CURVE SMOOTH",
"171 37 OFFCURVE",
"157 16 OFFCURVE",
"132 16 CURVE SMOOTH",
"107 16 OFFCURVE",
"93 37 OFFCURVE",
"93 74 CURVE SMOOTH",
"93 111 OFFCURVE",
"107 132 OFFCURVE",
"132 132 CURVE SMOOTH"
);
}
);
width = 480;
},
{
anchors = (
{
name = bottom;
position = "{264, 0}";
},
{
name = bottomright;
position = "{464, 0}";
},
{
name = top;
position = "{264, 578}";
},
{
name = topright;
position = "{459, 578}";
}
);
layerId = "CACD10EA-8E27-4203-9979-86A2B0F7ED74";
paths = (
{
closed = 1;
nodes = (
"64 103 LINE SMOOTH",
"64 32 OFFCURVE",
"92 -7 OFFCURVE",
"145 -7 CURVE SMOOTH",
"196 -7 OFFCURVE",
"227 30 OFFCURVE",
"227 92 CURVE SMOOTH",
"227 151 OFFCURVE",
"198 191 OFFCURVE",
"156 191 CURVE SMOOTH",
"107 191 OFFCURVE",
"71 153 OFFCURVE",
"71 89 CURVE",
"82 89 LINE",
"82 119 OFFCURVE",
"113 157 OFFCURVE",
"142 157 CURVE",
"142 409 LINE SMOOTH",
"142 454 OFFCURVE",
"156 475 OFFCURVE",
"185 475 CURVE SMOOTH",
"218 475 OFFCURVE",
"235 444 OFFCURVE",
"240 372 CURVE",
"288 372 LINE",
"293 443 OFFCURVE",
"310 475 OFFCURVE",
"343 475 CURVE SMOOTH",
"372 475 OFFCURVE",
"386 453 OFFCURVE",
"386 409 CURVE SMOOTH",
"386 0 LINE",
"464 0 LINE",
"464 418 LINE SMOOTH",
"464 495 OFFCURVE",
"426 541 OFFCURVE",
"363 541 CURVE SMOOTH",
"296 541 OFFCURVE",
"254 480 OFFCURVE",
"254 384 CURVE",
"275 464 LINE",
"254 464 LINE",
"275 384 LINE",
"275 480 OFFCURVE",
"232 541 OFFCURVE",
"165 541 CURVE SMOOTH",
"102 541 OFFCURVE",
"64 495 OFFCURVE",
"64 418 CURVE SMOOTH"
);
},
{
closed = 1;
nodes = (
"168 147 OFFCURVE",
"182 126 OFFCURVE",
"182 92 CURVE SMOOTH",
"182 58 OFFCURVE",
"168 37 OFFCURVE",
"147 37 CURVE SMOOTH",
"125 37 OFFCURVE",
"112 58 OFFCURVE",
"112 92 CURVE SMOOTH",
"112 126 OFFCURVE",
"125 147 OFFCURVE",
"147 147 CURVE SMOOTH"
);
}
);
width = 528;
},
{
anchors = (
{
name = bottom;
position = "{307, 0}";
},
{
name = bottomright;
position = "{564, 0}";
},
{
name = top;
position = "{307, 578}";
},
{
name = topright;
position = "{554, 578}";
}
);
layerId = "96C6A4AF-11F2-4EC9-996B-29C760E40A38";
paths = (
{
closed = 1;
nodes = (
"50 132 LINE SMOOTH",
"50 45 OFFCURVE",
"100 -10 OFFCURVE",
"178 -10 CURVE SMOOTH",
"246 -10 OFFCURVE",
"291 33 OFFCURVE",
"291 96 CURVE SMOOTH",
"291 158 OFFCURVE",
"254 202 OFFCURVE",
"201 202 CURVE SMOOTH",
"135 202 OFFCURVE",
"67 171 OFFCURVE",
"67 95 CURVE",
"90 95 LINE",
"90 140 OFFCURVE",
"149 179 OFFCURVE",
"222 179 CURVE",
"222 385 LINE SMOOTH",
"222 404 OFFCURVE",
"228 415 OFFCURVE",
"239 415 CURVE SMOOTH",
"256 415 OFFCURVE",
"261 401 OFFCURVE",
"265 350 CURVE",
"349 350 LINE",
"352 401 OFFCURVE",
"357 415 OFFCURVE",
"374 415 CURVE SMOOTH",
"385 415 OFFCURVE",
"392 403 OFFCURVE",
"392 385 CURVE SMOOTH",
"392 0 LINE",
"564 0 LINE",
"564 407 LINE SMOOTH",
"564 498 OFFCURVE",
"512 556 OFFCURVE",
"432 556 CURVE SMOOTH",
"342 556 OFFCURVE",
"285 489 OFFCURVE",
"285 383 CURVE",
"328 486 LINE",
"285 486 LINE",
"328 383 LINE",
"328 489 OFFCURVE",
"271 556 OFFCURVE",
"181 556 CURVE SMOOTH",
"101 556 OFFCURVE",
"50 497 OFFCURVE",
"50 407 CURVE SMOOTH"
);
},
{
closed = 1;
nodes = (
"212 142 OFFCURVE",
"227 125 OFFCURVE",
"227 96 CURVE SMOOTH",
"227 67 OFFCURVE",
"212 50 OFFCURVE",
"188 50 CURVE SMOOTH",
"164 50 OFFCURVE",
"149 67 OFFCURVE",
"149 96 CURVE SMOOTH",
"149 125 OFFCURVE",
"164 142 OFFCURVE",
"188 142 CURVE SMOOTH"
);
}
);
width = 614;
}
);
leftKerningGroup = "doDek-lao";
leftMetricsKey = "doDek-lao";
rightKerningGroup = "doDek-lao";
rightMetricsKey = "doDek-lao";
unicode = 0E95;
subCategory = Spacing;
},
{
glyphname = "thoThong-lao";
lastChange = "2020-12-17 09:42:54 +0000";
layers = (
{
anchors = (
{
name = bottom;
position = "{386, 0}";
},
{
name = bottomright;
position = "{488, 0}";
},
{
name = top;
position = "{370, 578}";
},
{
name = topright;
position = "{596, 578}";
}
);
layerId = "2CD50835-5B7E-4D2A-958C-2F579F79E971";
paths = (
{
closed = 1;
nodes = (
"176 78 LINE SMOOTH",
"176 28 OFFCURVE",
"209 -5 OFFCURVE",
"258 -5 CURVE SMOOTH",
"308 -5 OFFCURVE",
"341 27 OFFCURVE",
"341 75 CURVE SMOOTH",
"341 122 OFFCURVE",
"309 155 OFFCURVE",
"262 155 CURVE SMOOTH",
"214 155 OFFCURVE",
"184 124 OFFCURVE",
"184 75 CURVE",
"188 75 LINE",
"188 94 OFFCURVE",
"197 115 OFFCURVE",
"202 115 CURVE",
"202 452 LINE SMOOTH",
"202 503 OFFCURVE",
"170 535 OFFCURVE",
"118 535 CURVE SMOOTH",
"70 535 OFFCURVE",
"37 503 OFFCURVE",
"37 455 CURVE SMOOTH",
"37 408 OFFCURVE",
"70 375 OFFCURVE",
"117 375 CURVE SMOOTH",
"175 375 OFFCURVE",
"200 422 OFFCURVE",
"200 452 CURVE",
"198 452 LINE",
"198 433 OFFCURVE",
"184 408 OFFCURVE",
"176 408 CURVE"
);
},
{
closed = 1;
nodes = (
"570 -33 LINE SMOOTH",
"570 -90 OFFCURVE",
"578 -139 OFFCURVE",
"599 -171 CURVE",
"623 -162 LINE",
"601 -126 OFFCURVE",
"596 -82 OFFCURVE",
"596 -30 CURVE SMOOTH",
"596 359 LINE SMOOTH",
"596 469 OFFCURVE",
"521 538 OFFCURVE",
"402 538 CURVE SMOOTH",
"304 538 OFFCURVE",
"230 491 OFFCURVE",
"193 438 CURVE",
"215 455 LINE",
"190 455 LINE",
"197 413 LINE",
"245 471 OFFCURVE",
"310 513 OFFCURVE",
"402 513 CURVE SMOOTH",
"507 513 OFFCURVE",
"570 454 OFFCURVE",
"570 354 CURVE SMOOTH"
);
},
{
closed = 1;
nodes = (
"295 132 OFFCURVE",
"316 110 OFFCURVE",
"316 75 CURVE SMOOTH",
"316 40 OFFCURVE",
"295 18 OFFCURVE",
"260 18 CURVE SMOOTH",
"225 18 OFFCURVE",
"204 40 OFFCURVE",
"204 75 CURVE SMOOTH",
"204 110 OFFCURVE",
"225 132 OFFCURVE",
"260 132 CURVE SMOOTH"
);
},
{
closed = 1;
nodes = (
"83 398 OFFCURVE",
"62 420 OFFCURVE",
"62 455 CURVE SMOOTH",
"62 490 OFFCURVE",
"83 512 OFFCURVE",
"118 512 CURVE SMOOTH",
"155 512 OFFCURVE",
"176 488 OFFCURVE",
"176 445 CURVE SMOOTH",
"176 438 OFFCURVE",
"176 432 OFFCURVE",
"176 424 CURVE",
"163 407 OFFCURVE",
"142 398 OFFCURVE",
"118 398 CURVE SMOOTH"
);
}
);
width = 700;
},
{
anchors = (
{
name = bottom;
position = "{374, 0}";
},
{
name = bottomright;
position = "{469, 0}";
},
{
name = top;
position = "{360, 578}";
},
{
name = topright;
position = "{615, 578}";
}
);
hints = (
{
horizontal = 1;
origin = "{1, 11}";
target = "{1, 20}";
type = Stem;
},
{
origin = "{0, 0}";
target = "{0, 16}";
type = Stem;
},
{
origin = "{1, 0}";
target = "{1, 7}";
type = Stem;
},
{
horizontal = 1;
origin = "{0, 3}";
target = "{2, 5}";
type = Stem;
},
{
horizontal = 1;
origin = "{0, 20}";
target = "{3, 5}";
type = Stem;
}
);
layerId = "6E668239-F79A-4803-9842-9160852853A7";
paths = (
{
closed = 1;
nodes = (
"146 93 LINE SMOOTH",
"146 32 OFFCURVE",
"186 -7 OFFCURVE",
"250 -7 CURVE SMOOTH",
"313 -7 OFFCURVE",
"354 32 OFFCURVE",
"354 93 CURVE SMOOTH",
"354 151 OFFCURVE",
"315 191 OFFCURVE",
"258 191 CURVE SMOOTH",
"191 191 OFFCURVE",
"152 155 OFFCURVE",
"152 92 CURVE",
"165 92 LINE",
"165 124 OFFCURVE",
"203 165 OFFCURVE",
"232 165 CURVE",
"232 431 LINE SMOOTH",
"232 502 OFFCURVE",
"192 540 OFFCURVE",
"127 540 CURVE SMOOTH",
"65 540 OFFCURVE",
"24 501 OFFCURVE",
"24 440 CURVE SMOOTH",
"24 381 OFFCURVE",
"64 342 OFFCURVE",
"126 342 CURVE SMOOTH",
"185 342 OFFCURVE",
"229 393 OFFCURVE",
"229 439 CURVE",
"224 439 LINE",
"224 404 OFFCURVE",
"176 367 OFFCURVE",
"146 367 CURVE"
);
},
{
closed = 1;
nodes = (
"534 -35 LINE SMOOTH",
"534 -87 OFFCURVE",
"544 -142 OFFCURVE",
"564 -172 CURVE",
"645 -154 LINE",
"626 -118 OFFCURVE",
"620 -75 OFFCURVE",
"620 -22 CURVE SMOOTH",
"620 356 LINE SMOOTH",
"620 471 OFFCURVE",
"542 543 OFFCURVE",
"416 543 CURVE SMOOTH",
"324 543 OFFCURVE",
"255 497 OFFCURVE",
"219 453 CURVE",
"248 467 LINE",
"210 467 LINE",
"223 382 LINE",
"280 444 OFFCURVE",
"340 470 OFFCURVE",
"399 470 CURVE SMOOTH",
"484 470 OFFCURVE",
"534 425 OFFCURVE",
"534 347 CURVE SMOOTH"
);
},
{
closed = 1;
nodes = (
"281 143 OFFCURVE",
"300 124 OFFCURVE",
"300 92 CURVE SMOOTH",
"300 60 OFFCURVE",
"281 41 OFFCURVE",
"250 41 CURVE SMOOTH",
"219 41 OFFCURVE",
"200 60 OFFCURVE",
"200 92 CURVE SMOOTH",
"200 124 OFFCURVE",
"219 143 OFFCURVE",
"250 143 CURVE SMOOTH"
);
},
{
closed = 1;
nodes = (
"97 390 OFFCURVE",
"78 409 OFFCURVE",
"78 441 CURVE SMOOTH",
"78 473 OFFCURVE",
"97 492 OFFCURVE",
"128 492 CURVE SMOOTH",
"160 492 OFFCURVE",
"178 473 OFFCURVE",
"178 441 CURVE SMOOTH",
"178 423 OFFCURVE",
"177 414 OFFCURVE",
"175 403 CURVE",
"166 397 OFFCURVE",
"149 390 OFFCURVE",
"128 390 CURVE SMOOTH"
);
}
);
width = 710;
},
{
anchors = (
{
name = bottom;
position = "{351, 0}";
},
{
name = bottomright;
position = "{449, 0}";
},
{
name = top;
position = "{371, 578}";
},
{
name = topright;
position = "{655, 578}";
}
);
layerId = "EC79AED6-C145-434E-AE62-F6F3D2AFA8D1";
paths = (
{
closed = 1;
nodes = (
"102 139 LINE SMOOTH",
"102 47 OFFCURVE",
"160 -10 OFFCURVE",
"254 -10 CURVE SMOOTH",
"328 -10 OFFCURVE",
"379 33 OFFCURVE",
"379 96 CURVE SMOOTH",
"379 160 OFFCURVE",
"336 204 OFFCURVE",
"273 204 CURVE SMOOTH",
"196 204 OFFCURVE",
"121 174 OFFCURVE",
"121 96 CURVE",
"146 96 LINE",
"146 143 OFFCURVE",
"210 182 OFFCURVE",
"288 182 CURVE",
"288 396 LINE SMOOTH",
"288 496 OFFCURVE",
"232 553 OFFCURVE",
"136 553 CURVE SMOOTH",
"62 553 OFFCURVE",
"11 510 OFFCURVE",
"11 447 CURVE SMOOTH",
"11 383 OFFCURVE",
"55 339 OFFCURVE",
"120 339 CURVE SMOOTH",
"203 339 OFFCURVE",
"277 378 OFFCURVE",
"277 438 CURVE",
"242 438 LINE",
"242 395 OFFCURVE",
"180 361 OFFCURVE",
"102 361 CURVE"
);
},
{
closed = 1;
nodes = (
"479 -32 LINE SMOOTH",
"479 -88 OFFCURVE",
"490 -140 OFFCURVE",
"510 -172 CURVE",
"688 -145 LINE",
"671 -107 OFFCURVE",
"665 -65 OFFCURVE",
"665 -15 CURVE SMOOTH",
"665 345 LINE SMOOTH",
"665 478 OFFCURVE",
"585 558 OFFCURVE",
"451 558 CURVE SMOOTH",
"359 558 OFFCURVE",
"297 521 OFFCURVE",
"257 470 CURVE",
"284 488 LINE",
"236 488 LINE",
"277 372 LINE",
"307 399 OFFCURVE",
"347 412 OFFCURVE",
"385 412 CURVE SMOOTH",
"445 412 OFFCURVE",
"479 381 OFFCURVE",
"479 325 CURVE SMOOTH"
);
},
{
closed = 1;
nodes = (
"290 142 OFFCURVE",
"308 125 OFFCURVE",
"308 97 CURVE SMOOTH",
"308 69 OFFCURVE",
"290 52 OFFCURVE",
"260 52 CURVE SMOOTH",
"230 52 OFFCURVE",
"212 69 OFFCURVE",
"212 97 CURVE SMOOTH",
"212 125 OFFCURVE",
"230 142 OFFCURVE",
"260 142 CURVE SMOOTH"
);
},
{
closed = 1;
nodes = (
"100 401 OFFCURVE",
"82 418 OFFCURVE",
"82 446 CURVE SMOOTH",
"82 474 OFFCURVE",
"100 491 OFFCURVE",
"130 491 CURVE SMOOTH",
"159 491 OFFCURVE",
"178 474 OFFCURVE",
"178 446 CURVE SMOOTH",
"178 433 OFFCURVE",
"178 423 OFFCURVE",
"176 412 CURVE",
"163 405 OFFCURVE",
"145 401 OFFCURVE",
"129 401 CURVE SMOOTH"
);
}
);
width = 731;
},
{
anchors = (
{
name = bottom;
position = "{273, 0}";
},
{
name = bottomright;
position = "{329, 0}";
},
{
name = top;
position = "{273, 578}";
},
{
name = topright;
position = "{425, 578}";
}
);
layerId = "FFE3C573-8034-42D7-BBA7-2D1C8826F1F5";
paths = (
{
closed = 1;
nodes = (
"122 76 LINE SMOOTH",
"122 27 OFFCURVE",
"146 -5 OFFCURVE",
"184 -5 CURVE SMOOTH",
"221 -5 OFFCURVE",
"245 26 OFFCURVE",
"245 75 CURVE SMOOTH",
"245 122 OFFCURVE",
"221 153 OFFCURVE",
"185 153 CURVE SMOOTH",
"149 153 OFFCURVE",
"130 121 OFFCURVE",
"130 75 CURVE",
"133 75 LINE",
"133 93 OFFCURVE",
"140 114 OFFCURVE",
"146 114 CURVE",
"146 451 LINE SMOOTH",
"146 500 OFFCURVE",
"122 533 OFFCURVE",
"85 533 CURVE SMOOTH",
"48 533 OFFCURVE",
"23 502 OFFCURVE",
"23 454 CURVE SMOOTH",
"23 406 OFFCURVE",
"47 375 OFFCURVE",
"83 375 CURVE SMOOTH",
"125 375 OFFCURVE",
"144 421 OFFCURVE",
"144 450 CURVE",
"140 450 LINE",
"140 432 OFFCURVE",
"130 407 OFFCURVE",
"122 407 CURVE"
);
},
{
closed = 1;
nodes = (
"401 -43 LINE SMOOTH",
"401 -100 OFFCURVE",
"408 -139 OFFCURVE",
"424 -171 CURVE",
"447 -162 LINE",
"430 -126 OFFCURVE",
"425 -92 OFFCURVE",
"425 -40 CURVE SMOOTH",
"425 382 LINE SMOOTH",
"425 478 OFFCURVE",
"372 536 OFFCURVE",
"286 536 CURVE SMOOTH",
"219 536 OFFCURVE",
"165 489 OFFCURVE",
"139 436 CURVE",
"155 453 LINE",
"136 453 LINE",
"142 412 LINE",
"177 470 OFFCURVE",
"223 513 OFFCURVE",
"285 513 CURVE SMOOTH",
"359 513 OFFCURVE",
"401 463 OFFCURVE",
"401 377 CURVE SMOOTH"
);
},
{
closed = 1;
nodes = (
"209 132 OFFCURVE",
"223 111 OFFCURVE",
"223 74 CURVE SMOOTH",
"223 37 OFFCURVE",
"209 16 OFFCURVE",
"184 16 CURVE SMOOTH",
"159 16 OFFCURVE",
"145 37 OFFCURVE",
"145 74 CURVE SMOOTH",
"145 111 OFFCURVE",
"159 132 OFFCURVE",
"184 132 CURVE SMOOTH"
);
},
{
closed = 1;
nodes = (
"59 396 OFFCURVE",
"45 417 OFFCURVE",
"45 454 CURVE SMOOTH",
"45 491 OFFCURVE",
"59 512 OFFCURVE",
"84 512 CURVE SMOOTH",
"110 512 OFFCURVE",
"124 489 OFFCURVE",
"124 444 CURVE SMOOTH",
"124 438 OFFCURVE",
"124 431 OFFCURVE",
"124 423 CURVE",
"115 406 OFFCURVE",
"101 396 OFFCURVE",
"84 396 CURVE SMOOTH"
);
}
);
width = 495;
},
{
anchors = (
{
name = bottom;
position = "{273, 0}";
},
{
name = bottomright;
position = "{333, 0}";
},
{
name = top;
position = "{281, 578}";
},
{
name = topright;
position = "{460, 578}";
}
);
layerId = "CACD10EA-8E27-4203-9979-86A2B0F7ED74";
paths = (
{
closed = 1;
nodes = (
"102 103 LINE SMOOTH",
"102 32 OFFCURVE",
"130 -7 OFFCURVE",
"183 -7 CURVE SMOOTH",
"234 -7 OFFCURVE",
"265 30 OFFCURVE",
"265 92 CURVE SMOOTH",
"265 151 OFFCURVE",
"236 191 OFFCURVE",
"194 191 CURVE SMOOTH",
"145 191 OFFCURVE",
"109 153 OFFCURVE",
"109 89 CURVE",
"120 89 LINE",
"120 119 OFFCURVE",
"151 157 OFFCURVE",
"180 157 CURVE",
"180 433 LINE SMOOTH",
"180 500 OFFCURVE",
"150 538 OFFCURVE",
"97 538 CURVE SMOOTH",
"47 538 OFFCURVE",
"17 501 OFFCURVE",
"17 440 CURVE SMOOTH",
"17 380 OFFCURVE",
"46 340 OFFCURVE",
"89 340 CURVE SMOOTH",
"140 340 OFFCURVE",
"176 394 OFFCURVE",
"176 440 CURVE",
"166 440 LINE",
"166 408 OFFCURVE",
"132 372 OFFCURVE",
"102 372 CURVE"
);
},
{
closed = 1;
nodes = (
"387 -45 LINE SMOOTH",
"387 -97 OFFCURVE",
"396 -142 OFFCURVE",
"410 -172 CURVE",
"484 -154 LINE",
"470 -118 OFFCURVE",
"465 -85 OFFCURVE",
"465 -32 CURVE SMOOTH",
"465 363 LINE SMOOTH",
"465 475 OFFCURVE",
"409 541 OFFCURVE",
"314 541 CURVE SMOOTH",
"243 541 OFFCURVE",
"194 495 OFFCURVE",
"168 450 CURVE",
"187 468 LINE",
"159 468 LINE",
"173 388 LINE",
"203 442 OFFCURVE",
"249 475 OFFCURVE",
"292 475 CURVE SMOOTH",
"353 475 OFFCURVE",
"387 432 OFFCURVE",
"387 355 CURVE SMOOTH"
);
},
{
closed = 1;
nodes = (
"206 147 OFFCURVE",
"220 126 OFFCURVE",
"220 92 CURVE SMOOTH",
"220 58 OFFCURVE",
"206 37 OFFCURVE",
"185 37 CURVE SMOOTH",
"163 37 OFFCURVE",
"150 58 OFFCURVE",
"150 92 CURVE SMOOTH",
"150 126 OFFCURVE",
"163 147 OFFCURVE",
"185 147 CURVE SMOOTH"
);
},
{
closed = 1;
nodes = (
"76 384 OFFCURVE",
"62 407 OFFCURVE",
"62 440 CURVE SMOOTH",
"62 472 OFFCURVE",
"76 494 OFFCURVE",
"96 494 CURVE SMOOTH",
"119 494 OFFCURVE",
"132 474 OFFCURVE",
"132 440 CURVE SMOOTH",
"132 419 OFFCURVE",
"131 409 OFFCURVE",
"130 399 CURVE",
"122 392 OFFCURVE",
"113 384 OFFCURVE",
"96 384 CURVE SMOOTH"
);
}
);
width = 529;
},
{
anchors = (
{
name = bottom;
position = "{284, 0}";
},
{
name = bottomright;
position = "{354, 0}";
},
{
name = top;
position = "{314, 578}";
},
{
name = topright;
position = "{544, 578}";
}
);
layerId = "96C6A4AF-11F2-4EC9-996B-29C760E40A38";
paths = (
{
closed = 1;
nodes = (
"75 132 LINE SMOOTH",
"75 45 OFFCURVE",
"125 -10 OFFCURVE",
"203 -10 CURVE SMOOTH",
"271 -10 OFFCURVE",
"316 33 OFFCURVE",
"316 96 CURVE SMOOTH",
"316 158 OFFCURVE",
"279 202 OFFCURVE",
"226 202 CURVE SMOOTH",
"160 202 OFFCURVE",
"92 171 OFFCURVE",
"92 95 CURVE",
"115 95 LINE",
"115 140 OFFCURVE",
"174 179 OFFCURVE",
"247 179 CURVE",
"247 401 LINE SMOOTH",
"247 496 OFFCURVE",
"199 551 OFFCURVE",
"117 551 CURVE SMOOTH",
"51 551 OFFCURVE",
"6 508 OFFCURVE",
"6 446 CURVE SMOOTH",
"6 383 OFFCURVE",
"44 339 OFFCURVE",
"97 339 CURVE SMOOTH",
"169 339 OFFCURVE",
"227 380 OFFCURVE",
"227 438 CURVE",
"204 438 LINE",
"204 396 OFFCURVE",
"147 362 OFFCURVE",
"75 362 CURVE"
);
},
{
closed = 1;
nodes = (
"382 -32 LINE SMOOTH",
"382 -88 OFFCURVE",
"391 -140 OFFCURVE",
"409 -172 CURVE",
"575 -145 LINE",
"559 -107 OFFCURVE",
"554 -65 OFFCURVE",
"554 -15 CURVE SMOOTH",
"554 348 LINE SMOOTH",
"554 478 OFFCURVE",
"487 556 OFFCURVE",
"376 556 CURVE SMOOTH",
"302 556 OFFCURVE",
"253 518 OFFCURVE",
"224 468 CURVE",
"241 485 LINE",
"199 485 LINE",
"237 373 LINE",
"259 398 OFFCURVE",
"289 410 OFFCURVE",
"314 410 CURVE SMOOTH",
"358 410 OFFCURVE",
"382 383 OFFCURVE",
"382 334 CURVE SMOOTH"
);
},
{
closed = 1;
nodes = (
"237 142 OFFCURVE",
"252 125 OFFCURVE",
"252 96 CURVE SMOOTH",
"252 67 OFFCURVE",
"237 50 OFFCURVE",
"213 50 CURVE SMOOTH",
"189 50 OFFCURVE",
"174 67 OFFCURVE",
"174 96 CURVE SMOOTH",
"174 125 OFFCURVE",
"189 142 OFFCURVE",
"213 142 CURVE SMOOTH"
);
},
{
closed = 1;
nodes = (
"84 399 OFFCURVE",
"70 417 OFFCURVE",
"70 445 CURVE SMOOTH",
"70 473 OFFCURVE",
"85 491 OFFCURVE",
"108 491 CURVE SMOOTH",
"133 491 OFFCURVE",
"148 473 OFFCURVE",
"148 445 CURVE SMOOTH",
"148 432 OFFCURVE",
"148 422 OFFCURVE",
"146 411 CURVE",
"136 404 OFFCURVE",
"120 399 OFFCURVE",
"107 399 CURVE SMOOTH"
);
}
);
width = 604;
}
);
leftKerningGroup = "thoThong-lao";
rightKerningGroup = "doDek-lao";
rightMetricsKey = "=doDek-lao@300";
unicode = 0E96;
subCategory = Spacing;
},
{
glyphname = "thoThung-lao";
lastChange = "2020-12-17 09:42:54 +0000";
layers = (
{
anchors = (
{
name = bottom;
position = "{526, 0}";
},
{
name = bottomright;
position = "{718, 0}";
},
{
name = top;
position = "{561, 578}";
},
{
name = topright;
position = "{718, 578}";
}
);
layerId = "2CD50835-5B7E-4D2A-958C-2F579F79E971";
paths = (
{
closed = 1;
nodes = (
"362 -8 OFFCURVE",
"430 52 OFFCURVE",
"430 148 CURVE SMOOTH",
"430 380 LINE SMOOTH",
"430 463 OFFCURVE",
"479 513 OFFCURVE",
"561 513 CURVE SMOOTH",
"643 513 OFFCURVE",
"692 463 OFFCURVE",
"692 380 CURVE SMOOTH",
"692 0 LINE",
"718 0 LINE",
"718 383 LINE SMOOTH",
"718 478 OFFCURVE",
"658 538 OFFCURVE",
"561 538 CURVE SMOOTH",
"464 538 OFFCURVE",
"404 478 OFFCURVE",
"404 383 CURVE SMOOTH",
"404 151 LINE SMOOTH",
"404 67 OFFCURVE",
"348 17 OFFCURVE",
"256 17 CURVE SMOOTH",
"168 17 OFFCURVE",
"115 63 OFFCURVE",
"115 137 CURVE SMOOTH",
"115 251 OFFCURVE",
"250 352 OFFCURVE",
"250 452 CURVE",
"215 411 LINE",
"215 359 OFFCURVE",
"88 252 OFFCURVE",
"88 137 CURVE SMOOTH",
"88 49 OFFCURVE",
"153 -8 OFFCURVE",
"256 -8 CURVE SMOOTH"
);
},
{
closed = 1;
nodes = (
"224 375 OFFCURVE",
"250 434 OFFCURVE",
"250 452 CURVE SMOOTH",
"250 502 OFFCURVE",
"219 535 OFFCURVE",
"166 535 CURVE SMOOTH",
"118 535 OFFCURVE",
"85 502 OFFCURVE",
"85 455 CURVE SMOOTH",
"85 408 OFFCURVE",
"118 375 OFFCURVE",
"165 375 CURVE SMOOTH"
);
},
{
closed = 1;
nodes = (
"131 398 OFFCURVE",
"110 420 OFFCURVE",
"110 455 CURVE SMOOTH",
"110 490 OFFCURVE",
"131 512 OFFCURVE",
"166 512 CURVE SMOOTH",
"201 512 OFFCURVE",
"222 490 OFFCURVE",
"222 455 CURVE SMOOTH",
"222 420 OFFCURVE",
"201 398 OFFCURVE",
"166 398 CURVE SMOOTH"
);
}
);
width = 822;
},
{
anchors = (
{
name = bottom;
position = "{543, 0}";
},
{
name = bottomright;
position = "{753, 0}";
},
{
name = top;
position = "{568, 578}";
},
{
name = topright;
position = "{748, 578}";
}
);
hints = (
{
horizontal = 1;
origin = "{0, 35}";
target = "{0, 22}";
type = Stem;
},
{
horizontal = 1;
origin = "{0, 15}";
target = "{0, 6}";
type = Stem;
},
{
horizontal = 1;
origin = "{0, 10}";
target = up;
type = BottomGhost;
},
{
origin = "{0, 19}";
target = "{0, 2}";
type = Stem;
},
{
origin = "{0, 10}";
target = "{0, 11}";
type = Stem;
},
{
horizontal = 1;
origin = "{1, 5}";
target = "{2, 5}";
type = Stem;
}
);
layerId = "6E668239-F79A-4803-9842-9160852853A7";
paths = (
{
closed = 1;
nodes = (
"392 -10 OFFCURVE",
"469 52 OFFCURVE",
"469 152 CURVE SMOOTH",
"469 366 LINE SMOOTH",
"469 431 OFFCURVE",
"506 470 OFFCURVE",
"568 470 CURVE SMOOTH",
"630 470 OFFCURVE",
"667 430 OFFCURVE",
"667 366 CURVE SMOOTH",
"667 0 LINE",
"753 0 LINE",
"753 382 LINE SMOOTH",
"753 481 OFFCURVE",
"682 543 OFFCURVE",
"568 543 CURVE SMOOTH",
"454 543 OFFCURVE",
"383 481 OFFCURVE",
"383 382 CURVE SMOOTH",
"383 167 LINE SMOOTH",
"383 102 OFFCURVE",
"341 63 OFFCURVE",
"271 63 CURVE SMOOTH",
"202 63 OFFCURVE",
"160 101 OFFCURVE",
"160 166 CURVE SMOOTH",
"160 266 OFFCURVE",
"278 337 OFFCURVE",
"278 440 CURVE",
"180 373 LINE",
"180 331 OFFCURVE",
"73 267 OFFCURVE",
"73 153 CURVE SMOOTH",
"73 53 OFFCURVE",
"150 -10 OFFCURVE",
"271 -10 CURVE SMOOTH"
);
},
{
closed = 1;
nodes = (
"237 342 OFFCURVE",
"278 388 OFFCURVE",
"278 440 CURVE SMOOTH",
"278 501 OFFCURVE",
"238 540 OFFCURVE",
"176 540 CURVE SMOOTH",
"111 540 OFFCURVE",
"70 501 OFFCURVE",
"70 439 CURVE SMOOTH",
"70 382 OFFCURVE",
"109 342 OFFCURVE",
"166 342 CURVE SMOOTH"
);
},
{
closed = 1;
nodes = (
"143 390 OFFCURVE",
"124 409 OFFCURVE",
"124 441 CURVE SMOOTH",
"124 473 OFFCURVE",
"143 492 OFFCURVE",
"174 492 CURVE SMOOTH",
"205 492 OFFCURVE",
"224 473 OFFCURVE",
"224 441 CURVE SMOOTH",
"224 409 OFFCURVE",
"205 390 OFFCURVE",
"174 390 CURVE SMOOTH"
);
}
);
width = 843;
},
{
anchors = (
{
name = bottom;
position = "{588, 0}";
},
{
name = bottomright;
position = "{832, 0}";
},
{
name = top;
position = "{594, 578}";
},
{
name = topright;
position = "{822, 578}";
}
);
layerId = "EC79AED6-C145-434E-AE62-F6F3D2AFA8D1";
paths = (
{
closed = 1;
nodes = (
"445 -15 OFFCURVE",
"541 53 OFFCURVE",
"541 162 CURVE SMOOTH",
"541 357 LINE SMOOTH",
"541 391 OFFCURVE",
"561 412 OFFCURVE",
"594 412 CURVE SMOOTH",
"626 412 OFFCURVE",
"646 391 OFFCURVE",
"646 357 CURVE SMOOTH",
"646 0 LINE",
"832 0 LINE",
"832 382 LINE SMOOTH",
"832 491 OFFCURVE",
"745 558 OFFCURVE",
"604 558 CURVE SMOOTH",
"462 558 OFFCURVE",
"375 491 OFFCURVE",
"375 382 CURVE SMOOTH",
"375 192 LINE SMOOTH",
"375 153 OFFCURVE",
"349 131 OFFCURVE",
"306 131 CURVE SMOOTH",
"264 131 OFFCURVE",
"236 154 OFFCURVE",
"236 194 CURVE SMOOTH",
"236 266 OFFCURVE",
"325 343 OFFCURVE",
"325 432 CURVE",
"154 379 LINE",
"154 344 OFFCURVE",
"51 263 OFFCURVE",
"51 157 CURVE SMOOTH",
"51 51 OFFCURVE",
"146 -15 OFFCURVE",
"295 -15 CURVE SMOOTH"
);
},
{
closed = 1;
nodes = (
"249 339 OFFCURVE",
"325 376 OFFCURVE",
"325 432 CURVE SMOOTH",
"325 502 OFFCURVE",
"273 553 OFFCURVE",
"182 553 CURVE SMOOTH",
"95 553 OFFCURVE",
"48 510 OFFCURVE",
"48 447 CURVE SMOOTH",
"48 383 OFFCURVE",
"91 339 OFFCURVE",
"155 339 CURVE SMOOTH"
);
},
{
closed = 1;
nodes = (
"137 401 OFFCURVE",
"119 418 OFFCURVE",
"119 446 CURVE SMOOTH",
"119 474 OFFCURVE",
"137 491 OFFCURVE",
"167 491 CURVE SMOOTH",
"197 491 OFFCURVE",
"215 474 OFFCURVE",
"215 446 CURVE SMOOTH",
"215 418 OFFCURVE",
"197 401 OFFCURVE",
"167 401 CURVE SMOOTH"
);
}
);
width = 898;
},
{
anchors = (
{
name = bottom;
position = "{387, 0}";
},
{
name = bottomright;
position = "{513, 0}";
},
{
name = top;
position = "{399, 578}";
},
{
name = topright;
position = "{513, 578}";
}
);
layerId = "FFE3C573-8034-42D7-BBA7-2D1C8826F1F5";
paths = (
{
closed = 1;
nodes = (
"261 -8 OFFCURVE",
"309 42 OFFCURVE",
"309 128 CURVE SMOOTH",
"309 406 LINE SMOOTH",
"309 475 OFFCURVE",
"341 513 OFFCURVE",
"399 513 CURVE SMOOTH",
"457 513 OFFCURVE",
"489 475 OFFCURVE",
"489 406 CURVE SMOOTH",
"489 0 LINE",
"513 0 LINE",
"513 409 LINE SMOOTH",
"513 489 OFFCURVE",
"471 536 OFFCURVE",
"399 536 CURVE SMOOTH",
"327 536 OFFCURVE",
"285 490 OFFCURVE",
"285 409 CURVE SMOOTH",
"285 130 LINE SMOOTH",
"285 57 OFFCURVE",
"247 15 OFFCURVE",
"183 15 CURVE SMOOTH",
"122 15 OFFCURVE",
"84 61 OFFCURVE",
"84 133 CURVE SMOOTH",
"84 250 OFFCURVE",
"180 350 OFFCURVE",
"180 450 CURVE",
"149 410 LINE",
"149 345 OFFCURVE",
"60 251 OFFCURVE",
"60 134 CURVE SMOOTH",
"60 49 OFFCURVE",
"105 -8 OFFCURVE",
"183 -8 CURVE SMOOTH"
);
},
{
closed = 1;
nodes = (
"160 375 OFFCURVE",
"180 426 OFFCURVE",
"180 450 CURVE SMOOTH",
"180 501 OFFCURVE",
"156 533 OFFCURVE",
"119 533 CURVE SMOOTH",
"81 533 OFFCURVE",
"57 501 OFFCURVE",
"57 453 CURVE SMOOTH",
"57 406 OFFCURVE",
"81 375 OFFCURVE",
"117 375 CURVE SMOOTH"
);
},
{
closed = 1;
nodes = (
"93 396 OFFCURVE",
"79 417 OFFCURVE",
"79 454 CURVE SMOOTH",
"79 491 OFFCURVE",
"93 512 OFFCURVE",
"118 512 CURVE SMOOTH",
"143 512 OFFCURVE",
"157 491 OFFCURVE",
"157 454 CURVE SMOOTH",
"157 417 OFFCURVE",
"143 396 OFFCURVE",
"118 396 CURVE SMOOTH"
);
}
);
width = 583;
},
{
anchors = (
{
name = bottom;
position = "{399, 0}";
},
{
name = bottomright;
position = "{570, 0}";
},
{
name = top;
position = "{425, 578}";
},
{
name = topright;
position = "{565, 578}";
}
);
layerId = "CACD10EA-8E27-4203-9979-86A2B0F7ED74";
paths = (
{
closed = 1;
nodes = (
"302 -10 OFFCURVE",
"360 49 OFFCURVE",
"360 141 CURVE SMOOTH",
"360 386 LINE SMOOTH",
"360 444 OFFCURVE",
"383 475 OFFCURVE",
"426 475 CURVE SMOOTH",
"469 475 OFFCURVE",
"492 443 OFFCURVE",
"492 386 CURVE SMOOTH",
"492 0 LINE",
"570 0 LINE",
"570 397 LINE SMOOTH",
"570 486 OFFCURVE",
"516 541 OFFCURVE",
"427 541 CURVE SMOOTH",
"337 541 OFFCURVE",
"282 485 OFFCURVE",
"282 397 CURVE SMOOTH",
"282 155 LINE SMOOTH",
"282 95 OFFCURVE",
"260 56 OFFCURVE",
"206 56 CURVE SMOOTH",
"157 56 OFFCURVE",
"130 94 OFFCURVE",
"130 153 CURVE SMOOTH",
"130 261 OFFCURVE",
"212 336 OFFCURVE",
"212 441 CURVE",
"132 373 LINE",
"132 323 OFFCURVE",
"52 262 OFFCURVE",
"52 146 CURVE SMOOTH",
"52 52 OFFCURVE",
"109 -10 OFFCURVE",
"204 -10 CURVE SMOOTH"
);
},
{
closed = 1;
nodes = (
"169 340 OFFCURVE",
"212 388 OFFCURVE",
"212 441 CURVE SMOOTH",
"212 499 OFFCURVE",
"182 538 OFFCURVE",
"132 538 CURVE SMOOTH",
"80 538 OFFCURVE",
"49 501 OFFCURVE",
"49 439 CURVE SMOOTH",
"49 380 OFFCURVE",
"78 340 OFFCURVE",
"120 340 CURVE SMOOTH"
);
},
{
closed = 1;
nodes = (
"108 384 OFFCURVE",
"94 405 OFFCURVE",
"94 439 CURVE SMOOTH",
"94 473 OFFCURVE",
"108 494 OFFCURVE",
"129 494 CURVE SMOOTH",
"150 494 OFFCURVE",
"164 473 OFFCURVE",
"164 439 CURVE SMOOTH",
"164 405 OFFCURVE",
"150 384 OFFCURVE",
"129 384 CURVE SMOOTH"
);
}
);
width = 634;
},
{
anchors = (
{
name = bottom;
position = "{481, 0}";
},
{
name = bottomright;
position = "{697, 0}";
},
{
name = top;
position = "{491, 578}";
},
{
name = topright;
position = "{687, 578}";
}
);
layerId = "96C6A4AF-11F2-4EC9-996B-29C760E40A38";
paths = (
{
closed = 1;
nodes = (
"376 -15 OFFCURVE",
"457 53 OFFCURVE",
"457 160 CURVE SMOOTH",
"457 372 LINE SMOOTH",
"457 395 OFFCURVE",
"470 410 OFFCURVE",
"491 410 CURVE SMOOTH",
"512 410 OFFCURVE",
"525 395 OFFCURVE",
"525 372 CURVE SMOOTH",
"525 0 LINE",
"697 0 LINE",
"697 382 LINE SMOOTH",
"697 488 OFFCURVE",
"622 556 OFFCURVE",
"501 556 CURVE SMOOTH",
"381 556 OFFCURVE",
"305 488 OFFCURVE",
"305 382 CURVE SMOOTH",
"305 186 LINE SMOOTH",
"305 151 OFFCURVE",
"288 131 OFFCURVE",
"257 131 CURVE SMOOTH",
"226 131 OFFCURVE",
"209 152 OFFCURVE",
"209 189 CURVE SMOOTH",
"209 266 OFFCURVE",
"276 342 OFFCURVE",
"276 433 CURVE",
"119 378 LINE",
"119 326 OFFCURVE",
"38 263 OFFCURVE",
"38 156 CURVE SMOOTH",
"38 51 OFFCURVE",
"120 -15 OFFCURVE",
"248 -15 CURVE SMOOTH"
);
},
{
closed = 1;
nodes = (
"207 339 OFFCURVE",
"276 377 OFFCURVE",
"276 433 CURVE SMOOTH",
"276 497 OFFCURVE",
"232 551 OFFCURVE",
"152 551 CURVE SMOOTH",
"78 551 OFFCURVE",
"35 508 OFFCURVE",
"35 445 CURVE SMOOTH",
"35 383 OFFCURVE",
"72 339 OFFCURVE",
"127 339 CURVE SMOOTH"
);
},
{
closed = 1;
nodes = (
"114 399 OFFCURVE",
"99 416 OFFCURVE",
"99 445 CURVE SMOOTH",
"99 474 OFFCURVE",
"114 491 OFFCURVE",
"138 491 CURVE SMOOTH",
"162 491 OFFCURVE",
"177 474 OFFCURVE",
"177 445 CURVE SMOOTH",
"177 416 OFFCURVE",
"162 399 OFFCURVE",
"138 399 CURVE SMOOTH"
);
}
);
width = 747;
}
);
leftKerningGroup = "boBae-lao";
leftMetricsKey = "boBae-lao";
rightKerningGroup = "doDek-lao";
rightMetricsKey = "doDek-lao";
unicode = 0E97;
subCategory = Spacing;
},
{
glyphname = "noNok-lao";
lastChange = "2020-12-17 09:42:54 +0000";
layers = (
{
anchors = (
{
name = bottom;
position = "{346, 0}";
},
{
name = bottomright;
position = "{576, 0}";
},
{
name = top;
position = "{365, 578}";
},
{
name = topright;
position = "{576, 578}";
}
);
layerId = "2CD50835-5B7E-4D2A-958C-2F579F79E971";
paths = (
{
closed = 1;
nodes = (
"159 16 OFFCURVE",
"192 55 OFFCURVE",
"202 88 CURVE",
"206 88 LINE",
"239 38 OFFCURVE",
"306 -8 OFFCURVE",
"394 -8 CURVE SMOOTH",
"505 -8 OFFCURVE",
"576 61 OFFCURVE",
"576 171 CURVE SMOOTH",
"576 530 LINE",
"550 530 LINE",
"550 176 LINE SMOOTH",
"550 77 OFFCURVE",
"492 17 OFFCURVE",
"394 17 CURVE SMOOTH",
"310 17 OFFCURVE",
"251 60 OFFCURVE",
"207 122 CURVE",
"216 99 LINE",
"216 452 LINE SMOOTH",
"216 502 OFFCURVE",
"183 535 OFFCURVE",
"134 535 CURVE SMOOTH",
"84 535 OFFCURVE",
"51 503 OFFCURVE",
"51 455 CURVE SMOOTH",
"51 408 OFFCURVE",
"83 375 OFFCURVE",
"130 375 CURVE SMOOTH",
"178 375 OFFCURVE",
"208 406 OFFCURVE",
"208 455 CURVE",
"204 455 LINE",
"204 436 OFFCURVE",
"195 415 OFFCURVE",
"190 415 CURVE",
"190 150 LINE SMOOTH",
"190 83 OFFCURVE",
"150 39 OFFCURVE",
"88 17 CURVE",
"97 -6 LINE"
);
},
{
closed = 1;
nodes = (
"97 398 OFFCURVE",
"76 420 OFFCURVE",
"76 455 CURVE SMOOTH",
"76 490 OFFCURVE",
"97 512 OFFCURVE",
"132 512 CURVE SMOOTH",
"167 512 OFFCURVE",
"188 490 OFFCURVE",
"188 455 CURVE SMOOTH",
"188 420 OFFCURVE",
"167 398 OFFCURVE",
"132 398 CURVE SMOOTH"
);
}
);
width = 680;
},
{
anchors = (
{
name = bottom;
position = "{363, 0}";
},
{
name = bottomright;
position = "{605, 0}";
},
{
name = top;
position = "{370, 578}";
},
{
name = topright;
position = "{610, 578}";
}
);
hints = (
{
horizontal = 1;
origin = "{0, 41}";
target = "{0, 15}";
type = Stem;
},
{
horizontal = 1;
origin = "{0, 11}";
target = down;
type = TopGhost;
},
{
origin = "{0, 37}";
target = "{0, 19}";
type = Stem;
},
{
origin = "{0, 12}";
target = "{0, 9}";
type = Stem;
},
{
horizontal = 1;
origin = "{0, 23}";
target = "{1, 5}";
type = Stem;
}
);
layerId = "6E668239-F79A-4803-9842-9160852853A7";
paths = (
{
closed = 1;
nodes = (
"166 4 OFFCURVE",
"207 33 OFFCURVE",
"229 75 CURVE",
"233 75 LINE",
"270 32 OFFCURVE",
"334 -10 OFFCURVE",
"415 -10 CURVE SMOOTH",
"535 -10 OFFCURVE",
"610 62 OFFCURVE",
"610 177 CURVE SMOOTH",
"610 533 LINE",
"524 533 LINE",
"524 186 LINE SMOOTH",
"524 109 OFFCURVE",
"479 63 OFFCURVE",
"404 63 CURVE SMOOTH",
"350 63 OFFCURVE",
"295 89 OFFCURVE",
"243 151 CURVE",
"252 112 LINE",
"252 440 LINE SMOOTH",
"252 501 OFFCURVE",
"212 540 OFFCURVE",
"148 540 CURVE SMOOTH",
"85 540 OFFCURVE",
"44 501 OFFCURVE",
"44 440 CURVE SMOOTH",
"44 382 OFFCURVE",
"83 342 OFFCURVE",
"140 342 CURVE SMOOTH",
"207 342 OFFCURVE",
"246 378 OFFCURVE",
"246 441 CURVE",
"233 441 LINE",
"233 409 OFFCURVE",
"195 368 OFFCURVE",
"166 368 CURVE",
"166 168 LINE SMOOTH",
"166 108 OFFCURVE",
"137 72 OFFCURVE",
"78 56 CURVE",
"105 -10 LINE"
);
},
{
closed = 1;
nodes = (
"117 390 OFFCURVE",
"98 409 OFFCURVE",
"98 441 CURVE SMOOTH",
"98 473 OFFCURVE",
"117 492 OFFCURVE",
"148 492 CURVE SMOOTH",
"179 492 OFFCURVE",
"198 473 OFFCURVE",
"198 441 CURVE SMOOTH",
"198 409 OFFCURVE",
"179 390 OFFCURVE",
"148 390 CURVE SMOOTH"
);
}
);
width = 700;
},
{
anchors = (
{
name = bottom;
position = "{355, 0}";
},
{
name = bottomright;
position = "{649, 0}";
},
{
name = top;
position = "{372, 578}";
},
{
name = topright;
position = "{659, 578}";
}
);
layerId = "EC79AED6-C145-434E-AE62-F6F3D2AFA8D1";
paths = (
{
closed = 1;
nodes = (
"175 -9 OFFCURVE",
"230 23 OFFCURVE",
"257 78 CURVE",
"263 78 LINE",
"306 28 OFFCURVE",
"358 -15 OFFCURVE",
"449 -15 CURVE SMOOTH",
"578 -15 OFFCURVE",
"659 68 OFFCURVE",
"659 199 CURVE SMOOTH",
"659 543 LINE",
"473 543 LINE",
"473 218 LINE SMOOTH",
"473 164 OFFCURVE",
"440 131 OFFCURVE",
"384 131 CURVE SMOOTH",
"330 131 OFFCURVE",
"305 152 OFFCURVE",
"294 179 CURVE",
"303 134 LINE",
"303 404 LINE SMOOTH",
"303 496 OFFCURVE",
"245 553 OFFCURVE",
"151 553 CURVE SMOOTH",
"77 553 OFFCURVE",
"26 510 OFFCURVE",
"26 447 CURVE SMOOTH",
"26 383 OFFCURVE",
"69 339 OFFCURVE",
"132 339 CURVE SMOOTH",
"209 339 OFFCURVE",
"284 369 OFFCURVE",
"284 447 CURVE",
"259 447 LINE",
"259 400 OFFCURVE",
"195 361 OFFCURVE",
"117 361 CURVE",
"117 200 LINE SMOOTH",
"117 155 OFFCURVE",
"97 126 OFFCURVE",
"54 113 CURVE",
"112 -22 LINE"
);
},
{
closed = 1;
nodes = (
"115 401 OFFCURVE",
"97 418 OFFCURVE",
"97 446 CURVE SMOOTH",
"97 474 OFFCURVE",
"115 491 OFFCURVE",
"145 491 CURVE SMOOTH",
"175 491 OFFCURVE",
"193 474 OFFCURVE",
"193 446 CURVE SMOOTH",
"193 418 OFFCURVE",
"175 401 OFFCURVE",
"145 401 CURVE SMOOTH"
);
}
);
width = 725;
},
{
anchors = (
{
name = bottom;
position = "{273, 0}";
},
{
name = bottomright;
position = "{412, 0}";
},
{
name = top;
position = "{273, 578}";
},
{
name = topright;
position = "{412, 578}";
}
);
layerId = "FFE3C573-8034-42D7-BBA7-2D1C8826F1F5";
paths = (
{
closed = 1;
nodes = (
"114 16 OFFCURVE",
"137 53 OFFCURVE",
"145 84 CURVE",
"147 84 LINE",
"170 38 OFFCURVE",
"220 -8 OFFCURVE",
"282 -8 CURVE SMOOTH",
"364 -8 OFFCURVE",
"412 54 OFFCURVE",
"412 161 CURVE SMOOTH",
"412 528 LINE",
"388 528 LINE",
"388 166 LINE SMOOTH",
"388 68 OFFCURVE",
"350 15 OFFCURVE",
"281 15 CURVE SMOOTH",
"224 15 OFFCURVE",
"182 60 OFFCURVE",
"151 121 CURVE",
"157 99 LINE",
"157 452 LINE SMOOTH",
"157 501 OFFCURVE",
"133 533 OFFCURVE",
"95 533 CURVE SMOOTH",
"58 533 OFFCURVE",
"34 502 OFFCURVE",
"34 453 CURVE SMOOTH",
"34 406 OFFCURVE",
"58 375 OFFCURVE",
"94 375 CURVE SMOOTH",
"130 375 OFFCURVE",
"149 407 OFFCURVE",
"149 453 CURVE",
"148 453 LINE",
"146 435 OFFCURVE",
"139 414 OFFCURVE",
"133 414 CURVE",
"133 149 LINE SMOOTH",
"133 81 OFFCURVE",
"106 38 OFFCURVE",
"62 16 CURVE",
"70 -6 LINE"
);
},
{
closed = 1;
nodes = (
"70 396 OFFCURVE",
"56 417 OFFCURVE",
"56 454 CURVE SMOOTH",
"56 491 OFFCURVE",
"70 512 OFFCURVE",
"95 512 CURVE SMOOTH",
"120 512 OFFCURVE",
"134 491 OFFCURVE",
"134 454 CURVE SMOOTH",
"134 417 OFFCURVE",
"120 396 OFFCURVE",
"95 396 CURVE SMOOTH"
);
}
);
width = 482;
},
{
anchors = (
{
name = bottom;
position = "{285, 0}";
},
{
name = bottomright;
position = "{450, 0}";
},
{
name = top;
position = "{287, 578}";
},
{
name = topright;
position = "{455, 578}";
}
);
layerId = "CACD10EA-8E27-4203-9979-86A2B0F7ED74";
paths = (
{
closed = 1;
nodes = (
"124 6 OFFCURVE",
"156 37 OFFCURVE",
"172 77 CURVE",
"175 77 LINE",
"203 33 OFFCURVE",
"249 -10 OFFCURVE",
"312 -10 CURVE SMOOTH",
"402 -10 OFFCURVE",
"455 56 OFFCURVE",
"455 168 CURVE SMOOTH",
"455 531 LINE",
"377 531 LINE",
"377 176 LINE SMOOTH",
"377 98 OFFCURVE",
"347 56 OFFCURVE",
"292 56 CURVE SMOOTH",
"249 56 OFFCURVE",
"212 88 OFFCURVE",
"186 146 CURVE",
"193 110 LINE",
"193 441 LINE SMOOTH",
"193 499 OFFCURVE",
"165 538 OFFCURVE",
"112 538 CURVE SMOOTH",
"61 538 OFFCURVE",
"30 501 OFFCURVE",
"30 439 CURVE SMOOTH",
"30 380 OFFCURVE",
"59 340 OFFCURVE",
"101 340 CURVE SMOOTH",
"150 340 OFFCURVE",
"186 378 OFFCURVE",
"186 442 CURVE",
"175 442 LINE",
"175 412 OFFCURVE",
"144 374 OFFCURVE",
"115 374 CURVE",
"115 165 LINE SMOOTH",
"115 104 OFFCURVE",
"94 67 OFFCURVE",
"54 50 CURVE",
"78 -9 LINE"
);
},
{
closed = 1;
nodes = (
"89 384 OFFCURVE",
"75 405 OFFCURVE",
"75 439 CURVE SMOOTH",
"75 473 OFFCURVE",
"89 494 OFFCURVE",
"110 494 CURVE SMOOTH",
"132 494 OFFCURVE",
"145 473 OFFCURVE",
"145 439 CURVE SMOOTH",
"145 405 OFFCURVE",
"132 384 OFFCURVE",
"110 384 CURVE SMOOTH"
);
}
);
width = 519;
},
{
anchors = (
{
name = bottom;
position = "{299, 0}";
},
{
name = bottomright;
position = "{541, 0}";
},
{
name = top;
position = "{320, 578}";
},
{
name = topright;
position = "{551, 578}";
}
);
layerId = "96C6A4AF-11F2-4EC9-996B-29C760E40A38";
paths = (
{
closed = 1;
nodes = (
"145 -7 OFFCURVE",
"193 23 OFFCURVE",
"217 78 CURVE",
"222 78 LINE",
"259 28 OFFCURVE",
"299 -15 OFFCURVE",
"377 -15 CURVE SMOOTH",
"486 -15 OFFCURVE",
"551 63 OFFCURVE",
"551 193 CURVE SMOOTH",
"551 541 LINE",
"379 541 LINE",
"379 207 LINE SMOOTH",
"379 155 OFFCURVE",
"359 131 OFFCURVE",
"314 131 CURVE SMOOTH",
"292 131 OFFCURVE",
"256 142 OFFCURVE",
"252 174 CURVE",
"259 130 LINE",
"259 409 LINE SMOOTH",
"259 496 OFFCURVE",
"209 551 OFFCURVE",
"131 551 CURVE SMOOTH",
"63 551 OFFCURVE",
"18 508 OFFCURVE",
"18 445 CURVE SMOOTH",
"18 383 OFFCURVE",
"55 339 OFFCURVE",
"108 339 CURVE SMOOTH",
"174 339 OFFCURVE",
"242 370 OFFCURVE",
"242 446 CURVE",
"219 446 LINE",
"219 401 OFFCURVE",
"160 362 OFFCURVE",
"87 362 CURVE",
"87 196 LINE SMOOTH",
"87 156 OFFCURVE",
"77 120 OFFCURVE",
"40 105 CURVE",
"94 -20 LINE"
);
},
{
closed = 1;
nodes = (
"97 399 OFFCURVE",
"82 416 OFFCURVE",
"82 445 CURVE SMOOTH",
"82 474 OFFCURVE",
"97 491 OFFCURVE",
"121 491 CURVE SMOOTH",
"145 491 OFFCURVE",
"160 474 OFFCURVE",
"160 445 CURVE SMOOTH",
"160 416 OFFCURVE",
"145 399 OFFCURVE",
"121 399 CURVE SMOOTH"
);
}
);
width = 601;
}
);
leftKerningGroup = "koKai-lao";
rightKerningGroup = "noNok-lao";
rightMetricsKey = "doDek-lao";
unicode = 0E99;
subCategory = Spacing;
},
{
glyphname = "boBae-lao";
lastChange = "2020-12-17 09:42:54 +0000";
layers = (
{
anchors = (
{
name = bottom;
position = "{316, 0}";
},
{
name = bottomright;
position = "{544, 0}";
},
{
name = top;
position = "{347, 578}";
},
{
name = topright;
position = "{544, 578}";
}
);
layerId = "2CD50835-5B7E-4D2A-958C-2F579F79E971";
paths = (
{
closed = 1;
nodes = (
"454 -8 OFFCURVE",
"544 62 OFFCURVE",
"544 174 CURVE SMOOTH",
"544 530 LINE",
"518 530 LINE",
"518 179 LINE SMOOTH",
"518 77 OFFCURVE",
"441 17 OFFCURVE",
"310 17 CURVE SMOOTH",
"189 17 OFFCURVE",
"115 66 OFFCURVE",
"115 148 CURVE SMOOTH",
"115 257 OFFCURVE",
"250 352 OFFCURVE",
"250 452 CURVE",
"215 411 LINE",
"215 359 OFFCURVE",
"88 257 OFFCURVE",
"88 148 CURVE SMOOTH",
"88 52 OFFCURVE",
"174 -8 OFFCURVE",
"310 -8 CURVE SMOOTH"
);
},
{
closed = 1;
nodes = (
"224 375 OFFCURVE",
"250 434 OFFCURVE",
"250 452 CURVE SMOOTH",
"250 502 OFFCURVE",
"219 535 OFFCURVE",
"166 535 CURVE SMOOTH",
"118 535 OFFCURVE",
"85 502 OFFCURVE",
"85 455 CURVE SMOOTH",
"85 408 OFFCURVE",
"118 375 OFFCURVE",
"165 375 CURVE SMOOTH"
);
},
{
closed = 1;
nodes = (
"131 398 OFFCURVE",
"110 420 OFFCURVE",
"110 455 CURVE SMOOTH",
"110 490 OFFCURVE",
"131 512 OFFCURVE",
"166 512 CURVE SMOOTH",
"201 512 OFFCURVE",
"222 490 OFFCURVE",
"222 455 CURVE SMOOTH",
"222 420 OFFCURVE",
"201 398 OFFCURVE",
"166 398 CURVE SMOOTH"
);
}
);
width = 648;
},
{
anchors = (
{
name = bottom;
position = "{327, 0}";
},
{
name = bottomright;
position = "{574, 0}";
},
{
name = top;
position = "{348, 578}";
},
{
name = topright;
position = "{579, 578}";
}
);
hints = (
{
horizontal = 1;
origin = "{0, 21}";
target = "{0, 8}";
type = Stem;
},
{
horizontal = 1;
origin = "{0, 4}";
target = down;
type = TopGhost;
},
{
origin = "{0, 5}";
target = "{0, 2}";
type = Stem;
},
{
horizontal = 1;
origin = "{1, 5}";
target = "{2, 5}";
type = Stem;
}
);
layerId = "6E668239-F79A-4803-9842-9160852853A7";
paths = (
{
closed = 1;
nodes = (
"482 -10 OFFCURVE",
"579 65 OFFCURVE",
"579 188 CURVE SMOOTH",
"579 533 LINE",
"493 533 LINE",
"493 198 LINE SMOOTH",
"493 112 OFFCURVE",
"431 63 OFFCURVE",
"321 63 CURVE SMOOTH",
"221 63 OFFCURVE",
"161 101 OFFCURVE",
"161 166 CURVE SMOOTH",
"161 264 OFFCURVE",
"278 337 OFFCURVE",
"278 440 CURVE",
"180 373 LINE",
"180 331 OFFCURVE",
"74 268 OFFCURVE",
"74 155 CURVE SMOOTH",
"74 53 OFFCURVE",
"170 -10 OFFCURVE",
"321 -10 CURVE SMOOTH"
);
},
{
closed = 1;
nodes = (
"237 342 OFFCURVE",
"278 388 OFFCURVE",
"278 440 CURVE SMOOTH",
"278 501 OFFCURVE",
"238 540 OFFCURVE",
"176 540 CURVE SMOOTH",
"111 540 OFFCURVE",
"70 501 OFFCURVE",
"70 439 CURVE SMOOTH",
"70 382 OFFCURVE",
"109 342 OFFCURVE",
"166 342 CURVE SMOOTH"
);
},
{
closed = 1;
nodes = (
"143 390 OFFCURVE",
"124 409 OFFCURVE",
"124 441 CURVE SMOOTH",
"124 473 OFFCURVE",
"143 492 OFFCURVE",
"174 492 CURVE SMOOTH",
"205 492 OFFCURVE",
"224 473 OFFCURVE",
"224 441 CURVE SMOOTH",
"224 409 OFFCURVE",
"205 390 OFFCURVE",
"174 390 CURVE SMOOTH"
);
}
);
width = 669;
},
{
anchors = (
{
name = bottom;
position = "{344, 0}";
},
{
name = bottomright;
position = "{625, 0}";
},
{
name = top;
position = "{356, 578}";
},
{
name = topright;
position = "{635, 578}";
}
);
layerId = "EC79AED6-C145-434E-AE62-F6F3D2AFA8D1";
paths = (
{
closed = 1;
nodes = (
"520 -15 OFFCURVE",
"635 69 OFFCURVE",
"635 202 CURVE SMOOTH",
"635 543 LINE",
"449 543 LINE",
"449 220 LINE SMOOTH",
"449 165 OFFCURVE",
"407 131 OFFCURVE",
"339 131 CURVE SMOOTH",
"276 131 OFFCURVE",
"237 158 OFFCURVE",
"237 202 CURVE SMOOTH",
"237 269 OFFCURVE",
"325 343 OFFCURVE",
"325 432 CURVE",
"154 379 LINE",
"154 344 OFFCURVE",
"51 269 OFFCURVE",
"51 168 CURVE SMOOTH",
"51 59 OFFCURVE",
"168 -15 OFFCURVE",
"338 -15 CURVE SMOOTH"
);
},
{
closed = 1;
nodes = (
"249 339 OFFCURVE",
"325 376 OFFCURVE",
"325 432 CURVE SMOOTH",
"325 502 OFFCURVE",
"273 553 OFFCURVE",
"182 553 CURVE SMOOTH",
"95 553 OFFCURVE",
"48 510 OFFCURVE",
"48 447 CURVE SMOOTH",
"48 383 OFFCURVE",
"91 339 OFFCURVE",
"155 339 CURVE SMOOTH"
);
},
{
closed = 1;
nodes = (
"137 401 OFFCURVE",
"119 418 OFFCURVE",
"119 446 CURVE SMOOTH",
"119 474 OFFCURVE",
"137 491 OFFCURVE",
"167 491 CURVE SMOOTH",
"197 491 OFFCURVE",
"215 474 OFFCURVE",
"215 446 CURVE SMOOTH",
"215 418 OFFCURVE",
"197 401 OFFCURVE",
"167 401 CURVE SMOOTH"
);
}
);
width = 701;
},
{
anchors = (
{
name = bottom;
position = "{226, 0}";
},
{
name = bottomright;
position = "{390, 0}";
},
{
name = top;
position = "{246, 578}";
},
{
name = topright;
position = "{390, 578}";
}
);
layerId = "FFE3C573-8034-42D7-BBA7-2D1C8826F1F5";
paths = (
{
closed = 1;
nodes = (
"327 -8 OFFCURVE",
"390 57 OFFCURVE",
"390 164 CURVE SMOOTH",
"390 528 LINE",
"366 528 LINE",
"366 169 LINE SMOOTH",
"366 71 OFFCURVE",
"313 15 OFFCURVE",
"221 15 CURVE SMOOTH",
"136 15 OFFCURVE",
"86 64 OFFCURVE",
"86 143 CURVE SMOOTH",
"86 256 OFFCURVE",
"180 350 OFFCURVE",
"180 450 CURVE",
"149 410 LINE",
"149 345 OFFCURVE",
"62 256 OFFCURVE",
"62 144 CURVE SMOOTH",
"62 51 OFFCURVE",
"123 -8 OFFCURVE",
"221 -8 CURVE SMOOTH"
);
},
{
closed = 1;
nodes = (
"160 375 OFFCURVE",
"180 426 OFFCURVE",
"180 450 CURVE SMOOTH",
"180 501 OFFCURVE",
"156 533 OFFCURVE",
"119 533 CURVE SMOOTH",
"81 533 OFFCURVE",
"57 501 OFFCURVE",
"57 453 CURVE SMOOTH",
"57 406 OFFCURVE",
"81 375 OFFCURVE",
"117 375 CURVE SMOOTH"
);
},
{
closed = 1;
nodes = (
"93 396 OFFCURVE",
"79 417 OFFCURVE",
"79 454 CURVE SMOOTH",
"79 491 OFFCURVE",
"93 512 OFFCURVE",
"118 512 CURVE SMOOTH",
"143 512 OFFCURVE",
"157 491 OFFCURVE",
"157 454 CURVE SMOOTH",
"157 417 OFFCURVE",
"143 396 OFFCURVE",
"118 396 CURVE SMOOTH"
);
}
);
width = 460;
},
{
anchors = (
{
name = bottom;
position = "{244, 0}";
},
{
name = bottomright;
position = "{431, 0}";
},
{
name = top;
position = "{259, 578}";
},
{
name = topright;
position = "{436, 578}";
}
);
layerId = "CACD10EA-8E27-4203-9979-86A2B0F7ED74";
paths = (
{
closed = 1;
nodes = (
"361 -10 OFFCURVE",
"436 62 OFFCURVE",
"436 178 CURVE SMOOTH",
"436 531 LINE",
"358 531 LINE",
"358 187 LINE SMOOTH",
"358 105 OFFCURVE",
"314 56 OFFCURVE",
"240 56 CURVE SMOOTH",
"171 56 OFFCURVE",
"130 97 OFFCURVE",
"130 163 CURVE SMOOTH",
"130 263 OFFCURVE",
"212 338 OFFCURVE",
"212 441 CURVE",
"132 373 LINE",
"132 324 OFFCURVE",
"52 266 OFFCURVE",
"52 154 CURVE SMOOTH",
"52 54 OFFCURVE",
"125 -10 OFFCURVE",
"240 -10 CURVE SMOOTH"
);
},
{
closed = 1;
nodes = (
"169 340 OFFCURVE",
"212 388 OFFCURVE",
"212 441 CURVE SMOOTH",
"212 499 OFFCURVE",
"182 538 OFFCURVE",
"132 538 CURVE SMOOTH",
"80 538 OFFCURVE",
"49 501 OFFCURVE",
"49 439 CURVE SMOOTH",
"49 380 OFFCURVE",
"78 340 OFFCURVE",
"120 340 CURVE SMOOTH"
);
},
{
closed = 1;
nodes = (
"108 384 OFFCURVE",
"94 405 OFFCURVE",
"94 439 CURVE SMOOTH",
"94 473 OFFCURVE",
"108 494 OFFCURVE",
"129 494 CURVE SMOOTH",
"150 494 OFFCURVE",
"164 473 OFFCURVE",
"164 439 CURVE SMOOTH",
"164 405 OFFCURVE",
"150 384 OFFCURVE",
"129 384 CURVE SMOOTH"
);
}
);
width = 500;
},
{
anchors = (
{
name = bottom;
position = "{285, 0}";
},
{
name = bottomright;
position = "{522, 0}";
},
{
name = top;
position = "{293, 578}";
},
{
name = topright;
position = "{532, 578}";
}
);
layerId = "96C6A4AF-11F2-4EC9-996B-29C760E40A38";
paths = (
{
closed = 1;
nodes = (
"436 -15 OFFCURVE",
"532 67 OFFCURVE",
"532 198 CURVE SMOOTH",
"532 541 LINE",
"360 541 LINE",
"360 210 LINE SMOOTH",
"360 159 OFFCURVE",
"333 131 OFFCURVE",
"283 131 CURVE SMOOTH",
"238 131 OFFCURVE",
"210 156 OFFCURVE",
"210 196 CURVE SMOOTH",
"210 267 OFFCURVE",
"276 342 OFFCURVE",
"276 433 CURVE",
"119 378 LINE",
"119 326 OFFCURVE",
"38 268 OFFCURVE",
"38 165 CURVE SMOOTH",
"38 58 OFFCURVE",
"138 -15 OFFCURVE",
"282 -15 CURVE SMOOTH"
);
},
{
closed = 1;
nodes = (
"207 339 OFFCURVE",
"276 377 OFFCURVE",
"276 433 CURVE SMOOTH",
"276 497 OFFCURVE",
"232 551 OFFCURVE",
"152 551 CURVE SMOOTH",
"78 551 OFFCURVE",
"35 508 OFFCURVE",
"35 445 CURVE SMOOTH",
"35 383 OFFCURVE",
"72 339 OFFCURVE",
"127 339 CURVE SMOOTH"
);
},
{
closed = 1;
nodes = (
"114 399 OFFCURVE",
"99 416 OFFCURVE",
"99 445 CURVE SMOOTH",
"99 474 OFFCURVE",
"114 491 OFFCURVE",
"138 491 CURVE SMOOTH",
"162 491 OFFCURVE",
"177 474 OFFCURVE",
"177 445 CURVE SMOOTH",
"177 416 OFFCURVE",
"162 399 OFFCURVE",
"138 399 CURVE SMOOTH"
);
}
);
width = 582;
}
);
leftKerningGroup = "boBae-lao";
rightKerningGroup = "noNok-lao";
rightMetricsKey = "doDek-lao";
unicode = 0E9A;
subCategory = Spacing;
},
{
glyphname = "poPa-lao";
lastChange = "2020-12-17 10:25:30 +0000";
layers = (
{
anchors = (
{
name = bottom;
position = "{226, 0}";
},
{
name = bottomright;
position = "{390, 0}";
},
{
name = top;
position = "{245, 578}";
},
{
name = topright;
position = "{289, 578}";
}
);
layerId = "FFE3C573-8034-42D7-BBA7-2D1C8826F1F5";
paths = (
{
closed = 1;
nodes = (
"327 -8 OFFCURVE",
"390 57 OFFCURVE",
"390 165 CURVE SMOOTH",
"390 568 LINE SMOOTH",
"390 620 OFFCURVE",
"395 654 OFFCURVE",
"412 690 CURVE",
"389 699 LINE",
"373 667 OFFCURVE",
"366 628 OFFCURVE",
"366 571 CURVE SMOOTH",
"366 170 LINE SMOOTH",
"366 71 OFFCURVE",
"313 15 OFFCURVE",
"221 15 CURVE SMOOTH",
"136 15 OFFCURVE",
"86 64 OFFCURVE",
"86 144 CURVE SMOOTH",
"86 257 OFFCURVE",
"180 350 OFFCURVE",
"180 450 CURVE",
"149 410 LINE",
"149 345 OFFCURVE",
"62 256 OFFCURVE",
"62 144 CURVE SMOOTH",
"62 51 OFFCURVE",
"123 -8 OFFCURVE",
"221 -8 CURVE SMOOTH"
);
},
{
closed = 1;
nodes = (
"160 375 OFFCURVE",
"180 426 OFFCURVE",
"180 450 CURVE SMOOTH",
"180 501 OFFCURVE",
"156 533 OFFCURVE",
"119 533 CURVE SMOOTH",
"81 533 OFFCURVE",
"57 501 OFFCURVE",
"57 453 CURVE SMOOTH",
"57 406 OFFCURVE",
"81 375 OFFCURVE",
"117 375 CURVE SMOOTH"
);
},
{
closed = 1;
nodes = (
"93 396 OFFCURVE",
"79 417 OFFCURVE",
"79 454 CURVE SMOOTH",
"79 491 OFFCURVE",
"93 512 OFFCURVE",
"118 512 CURVE SMOOTH",
"143 512 OFFCURVE",
"157 491 OFFCURVE",
"157 454 CURVE SMOOTH",
"157 417 OFFCURVE",
"143 396 OFFCURVE",
"118 396 CURVE SMOOTH"
);
}
);
width = 460;
},
{
anchors = (
{
name = bottom;
position = "{244, 0}";
},
{
name = bottomright;
position = "{431, 0}";
},
{
name = top;
position = "{256, 578}";
},
{
name = topright;
position = "{297, 578}";
}
);
layerId = "CACD10EA-8E27-4203-9979-86A2B0F7ED74";
paths = (
{
closed = 1;
nodes = (
"361 -10 OFFCURVE",
"436 62 OFFCURVE",
"436 179 CURVE SMOOTH",
"436 563 LINE SMOOTH",
"436 616 OFFCURVE",
"441 649 OFFCURVE",
"455 685 CURVE",
"381 703 LINE",
"367 673 OFFCURVE",
"358 628 OFFCURVE",
"358 576 CURVE SMOOTH",
"358 188 LINE SMOOTH",
"358 105 OFFCURVE",
"314 56 OFFCURVE",
"240 56 CURVE SMOOTH",
"171 56 OFFCURVE",
"130 97 OFFCURVE",
"130 164 CURVE SMOOTH",
"130 265 OFFCURVE",
"212 338 OFFCURVE",
"212 441 CURVE",
"132 373 LINE",
"132 324 OFFCURVE",
"52 266 OFFCURVE",
"52 154 CURVE SMOOTH",
"52 54 OFFCURVE",
"125 -10 OFFCURVE",
"240 -10 CURVE SMOOTH"
);
},
{
closed = 1;
nodes = (
"169 340 OFFCURVE",
"212 388 OFFCURVE",
"212 441 CURVE SMOOTH",
"212 499 OFFCURVE",
"182 538 OFFCURVE",
"132 538 CURVE SMOOTH",
"80 538 OFFCURVE",
"49 501 OFFCURVE",
"49 439 CURVE SMOOTH",
"49 380 OFFCURVE",
"78 340 OFFCURVE",
"120 340 CURVE SMOOTH"
);
},
{
closed = 1;
nodes = (
"108 384 OFFCURVE",
"94 405 OFFCURVE",
"94 439 CURVE SMOOTH",
"94 473 OFFCURVE",
"108 494 OFFCURVE",
"129 494 CURVE SMOOTH",
"150 494 OFFCURVE",
"164 473 OFFCURVE",
"164 439 CURVE SMOOTH",
"164 405 OFFCURVE",
"150 384 OFFCURVE",
"129 384 CURVE SMOOTH"
);
}
);
width = 500;
},
{
anchors = (
{
name = bottom;
position = "{285, 0}";
},
{
name = bottomright;
position = "{522, 0}";
},
{
name = top;
position = "{253, 578}";
},
{
name = topright;
position = "{318, 578}";
}
);
layerId = "96C6A4AF-11F2-4EC9-996B-29C760E40A38";
paths = (
{
closed = 1;
nodes = (
"436 -15 OFFCURVE",
"532 68 OFFCURVE",
"532 199 CURVE SMOOTH",
"532 556 LINE SMOOTH",
"532 606 OFFCURVE",
"537 648 OFFCURVE",
"553 686 CURVE",
"387 713 LINE",
"369 681 OFFCURVE",
"360 629 OFFCURVE",
"360 573 CURVE SMOOTH",
"360 211 LINE SMOOTH",
"360 160 OFFCURVE",
"333 131 OFFCURVE",
"283 131 CURVE SMOOTH",
"238 131 OFFCURVE",
"210 156 OFFCURVE",
"210 197 CURVE SMOOTH",
"210 269 OFFCURVE",
"276 342 OFFCURVE",
"276 433 CURVE",
"119 378 LINE",
"119 326 OFFCURVE",
"38 268 OFFCURVE",
"38 165 CURVE SMOOTH",
"38 58 OFFCURVE",
"137 -15 OFFCURVE",
"282 -15 CURVE SMOOTH"
);
},
{
closed = 1;
nodes = (
"207 339 OFFCURVE",
"276 377 OFFCURVE",
"276 433 CURVE SMOOTH",
"276 497 OFFCURVE",
"232 551 OFFCURVE",
"152 551 CURVE SMOOTH",
"78 551 OFFCURVE",
"35 508 OFFCURVE",
"35 445 CURVE SMOOTH",
"35 383 OFFCURVE",
"72 339 OFFCURVE",
"127 339 CURVE SMOOTH"
);
},
{
closed = 1;
nodes = (
"114 399 OFFCURVE",
"99 416 OFFCURVE",
"99 445 CURVE SMOOTH",
"99 474 OFFCURVE",
"114 491 OFFCURVE",
"138 491 CURVE SMOOTH",
"162 491 OFFCURVE",
"177 474 OFFCURVE",
"177 445 CURVE SMOOTH",
"177 416 OFFCURVE",
"162 399 OFFCURVE",
"138 399 CURVE SMOOTH"
);
}
);
width = 582;
},
{
anchors = (
{
name = bottom;
position = "{316, 0}";
},
{
name = bottomright;
position = "{544, 0}";
},
{
name = top;
position = "{347, 578}";
},
{
name = topright;
position = "{408, 578}";
}
);
layerId = "2CD50835-5B7E-4D2A-958C-2F579F79E971";
paths = (
{
closed = 1;
nodes = (
"454 -8 OFFCURVE",
"544 62 OFFCURVE",
"544 175 CURVE SMOOTH",
"544 560 LINE SMOOTH",
"544 612 OFFCURVE",
"549 656 OFFCURVE",
"571 692 CURVE",
"547 701 LINE",
"526 669 OFFCURVE",
"518 620 OFFCURVE",
"518 563 CURVE SMOOTH",
"518 180 LINE SMOOTH",
"518 77 OFFCURVE",
"441 17 OFFCURVE",
"310 17 CURVE SMOOTH",
"188 17 OFFCURVE",
"115 67 OFFCURVE",
"115 149 CURVE SMOOTH",
"115 257 OFFCURVE",
"250 352 OFFCURVE",
"250 452 CURVE",
"215 411 LINE",
"215 359 OFFCURVE",
"88 257 OFFCURVE",
"88 148 CURVE SMOOTH",
"88 52 OFFCURVE",
"173 -8 OFFCURVE",
"310 -8 CURVE SMOOTH"
);
},
{
closed = 1;
nodes = (
"224 375 OFFCURVE",
"250 434 OFFCURVE",
"250 452 CURVE SMOOTH",
"250 502 OFFCURVE",
"219 535 OFFCURVE",
"166 535 CURVE SMOOTH",
"118 535 OFFCURVE",
"85 502 OFFCURVE",
"85 455 CURVE SMOOTH",
"85 408 OFFCURVE",
"118 375 OFFCURVE",
"165 375 CURVE SMOOTH"
);
},
{
closed = 1;
nodes = (
"131 398 OFFCURVE",
"110 420 OFFCURVE",
"110 455 CURVE SMOOTH",
"110 490 OFFCURVE",
"131 512 OFFCURVE",
"166 512 CURVE SMOOTH",
"201 512 OFFCURVE",
"222 490 OFFCURVE",
"222 455 CURVE SMOOTH",
"222 420 OFFCURVE",
"201 398 OFFCURVE",
"166 398 CURVE SMOOTH"
);
}
);
width = 648;
},
{
anchors = (
{
name = bottom;
position = "{327, 0}";
},
{
name = bottomright;
position = "{574, 0}";
},
{
name = top;
position = "{338, 578}";
},
{
name = topright;
position = "{405, 578}";
}
);
hints = (
{
horizontal = 1;
origin = "{0, 27}";
target = "{0, 14}";
type = Stem;
},
{
origin = "{0, 11}";
target = "{0, 2}";
type = Stem;
},
{
horizontal = 1;
origin = "{1, 5}";
target = "{2, 5}";
type = Stem;
}
);
layerId = "6E668239-F79A-4803-9842-9160852853A7";
paths = (
{
closed = 1;
nodes = (
"482 -10 OFFCURVE",
"579 65 OFFCURVE",
"579 189 CURVE SMOOTH",
"579 555 LINE SMOOTH",
"579 608 OFFCURVE",
"585 651 OFFCURVE",
"604 687 CURVE",
"523 705 LINE",
"503 675 OFFCURVE",
"493 620 OFFCURVE",
"493 568 CURVE SMOOTH",
"493 199 LINE SMOOTH",
"493 112 OFFCURVE",
"431 63 OFFCURVE",
"321 63 CURVE SMOOTH",
"220 63 OFFCURVE",
"161 102 OFFCURVE",
"161 167 CURVE SMOOTH",
"161 266 OFFCURVE",
"278 337 OFFCURVE",
"278 440 CURVE",
"180 373 LINE",
"180 331 OFFCURVE",
"74 268 OFFCURVE",
"74 155 CURVE SMOOTH",
"74 53 OFFCURVE",
"169 -10 OFFCURVE",
"321 -10 CURVE SMOOTH"
);
},
{
closed = 1;
nodes = (
"237 342 OFFCURVE",
"278 388 OFFCURVE",
"278 440 CURVE SMOOTH",
"278 501 OFFCURVE",
"238 540 OFFCURVE",
"176 540 CURVE SMOOTH",
"111 540 OFFCURVE",
"70 501 OFFCURVE",
"70 439 CURVE SMOOTH",
"70 382 OFFCURVE",
"109 342 OFFCURVE",
"166 342 CURVE SMOOTH"
);
},
{
closed = 1;
nodes = (
"143 390 OFFCURVE",
"124 409 OFFCURVE",
"124 441 CURVE SMOOTH",
"124 473 OFFCURVE",
"143 492 OFFCURVE",
"174 492 CURVE SMOOTH",
"205 492 OFFCURVE",
"224 473 OFFCURVE",
"224 441 CURVE SMOOTH",
"224 409 OFFCURVE",
"205 390 OFFCURVE",
"174 390 CURVE SMOOTH"
);
}
);
width = 669;
},
{
anchors = (
{
name = bottom;
position = "{344, 0}";
},
{
name = bottomright;
position = "{625, 0}";
},
{
name = top;
position = "{316, 578}";
},
{
name = topright;
position = "{391, 578}";
}
);
layerId = "EC79AED6-C145-434E-AE62-F6F3D2AFA8D1";
paths = (
{
closed = 1;
nodes = (
"520 -15 OFFCURVE",
"635 69 OFFCURVE",
"635 203 CURVE SMOOTH",
"635 558 LINE SMOOTH",
"635 608 OFFCURVE",
"641 650 OFFCURVE",
"658 688 CURVE",
"480 715 LINE",
"460 683 OFFCURVE",
"449 631 OFFCURVE",
"449 575 CURVE SMOOTH",
"449 221 LINE SMOOTH",
"449 165 OFFCURVE",
"407 131 OFFCURVE",
"339 131 CURVE SMOOTH",
"275 131 OFFCURVE",
"237 159 OFFCURVE",
"237 203 CURVE SMOOTH",
"237 271 OFFCURVE",
"325 343 OFFCURVE",
"325 432 CURVE",
"154 379 LINE",
"154 344 OFFCURVE",
"51 269 OFFCURVE",
"51 168 CURVE SMOOTH",
"51 59 OFFCURVE",
"167 -15 OFFCURVE",
"338 -15 CURVE SMOOTH"
);
},
{
closed = 1;
nodes = (
"249 339 OFFCURVE",
"325 376 OFFCURVE",
"325 432 CURVE SMOOTH",
"325 502 OFFCURVE",
"273 553 OFFCURVE",
"182 553 CURVE SMOOTH",
"95 553 OFFCURVE",
"48 510 OFFCURVE",
"48 447 CURVE SMOOTH",
"48 383 OFFCURVE",
"91 339 OFFCURVE",
"155 339 CURVE SMOOTH"
);
},
{
closed = 1;
nodes = (
"137 401 OFFCURVE",
"119 418 OFFCURVE",
"119 446 CURVE SMOOTH",
"119 474 OFFCURVE",
"137 491 OFFCURVE",
"167 491 CURVE SMOOTH",
"197 491 OFFCURVE",
"215 474 OFFCURVE",
"215 446 CURVE SMOOTH",
"215 418 OFFCURVE",
"197 401 OFFCURVE",
"167 401 CURVE SMOOTH"
);
}
);
width = 701;
}
);
leftKerningGroup = "boBae-lao";
leftMetricsKey = "boBae-lao";
rightKerningGroup = "poPa-lao";
rightMetricsKey = "=boBae-lao@300";
unicode = 0E9B;
subCategory = Spacing;
},
{
glyphname = "phoPhueng-lao";
lastChange = "2020-12-17 09:42:54 +0000";
layers = (
{
anchors = (
{
name = bottom;
position = "{389, 0}";
},
{
name = bottomright;
position = "{590, 0}";
},
{
name = top;
position = "{347, 578}";
},
{
name = topright;
position = "{590, 578}";
}
);
layerId = "2CD50835-5B7E-4D2A-958C-2F579F79E971";
paths = (
{
closed = 1;
nodes = (
"130 415 LINE",
"125 415 OFFCURVE",
"116 436 OFFCURVE",
"116 455 CURVE",
"112 455 LINE",
"112 406 OFFCURVE",
"142 375 OFFCURVE",
"190 375 CURVE SMOOTH",
"237 375 OFFCURVE",
"269 408 OFFCURVE",
"269 455 CURVE SMOOTH",
"269 503 OFFCURVE",
"236 535 OFFCURVE",
"186 535 CURVE SMOOTH",
"137 535 OFFCURVE",
"104 502 OFFCURVE",
"104 452 CURVE SMOOTH",
"104 126 LINE SMOOTH",
"104 44 OFFCURVE",
"152 -8 OFFCURVE",
"230 -8 CURVE SMOOTH",
"306 -8 OFFCURVE",
"353 44 OFFCURVE",
"353 126 CURVE",
"341 75 LINE",
"353 75 LINE",
"341 126 LINE",
"341 44 OFFCURVE",
"388 -8 OFFCURVE",
"464 -8 CURVE SMOOTH",
"542 -8 OFFCURVE",
"590 44 OFFCURVE",
"590 126 CURVE SMOOTH",
"590 444 LINE SMOOTH",
"590 502 OFFCURVE",
"557 535 OFFCURVE",
"508 535 CURVE SMOOTH",
"458 535 OFFCURVE",
"425 503 OFFCURVE",
"425 455 CURVE SMOOTH",
"425 408 OFFCURVE",
"457 375 OFFCURVE",
"504 375 CURVE SMOOTH",
"604 375 OFFCURVE",
"635 473 OFFCURVE",
"658 569 CURVE",
"636 577 LINE",
"613 478 OFFCURVE",
"587 398 OFFCURVE",
"506 398 CURVE SMOOTH",
"471 398 OFFCURVE",
"450 420 OFFCURVE",
"450 455 CURVE SMOOTH",
"450 490 OFFCURVE",
"471 512 OFFCURVE",
"506 512 CURVE SMOOTH",
"541 512 OFFCURVE",
"564 487 OFFCURVE",
"564 438 CURVE SMOOTH",
"564 408 LINE",
"564 401 LINE",
"564 130 LINE SMOOTH",
"564 59 OFFCURVE",
"526 17 OFFCURVE",
"462 17 CURVE SMOOTH",
"398 17 OFFCURVE",
"360 59 OFFCURVE",
"360 130 CURVE SMOOTH",
"360 242 LINE",
"334 242 LINE",
"334 130 LINE SMOOTH",
"334 59 OFFCURVE",
"296 17 OFFCURVE",
"232 17 CURVE SMOOTH",
"168 17 OFFCURVE",
"130 59 OFFCURVE",
"130 130 CURVE SMOOTH"
);
},
{
closed = 1;
nodes = (
"153 398 OFFCURVE",
"132 420 OFFCURVE",
"132 455 CURVE SMOOTH",
"132 490 OFFCURVE",
"153 512 OFFCURVE",
"188 512 CURVE SMOOTH",
"223 512 OFFCURVE",
"244 490 OFFCURVE",
"244 455 CURVE SMOOTH",
"244 420 OFFCURVE",
"223 398 OFFCURVE",
"188 398 CURVE SMOOTH"
);
}
);
width = 709;
},
{
anchors = (
{
name = bottom;
position = "{404, 0}";
},
{
name = bottomright;
position = "{633, 0}";
},
{
name = top;
position = "{364, 578}";
},
{
name = topright;
position = "{638, 578}";
}
);
hints = (
{
horizontal = 1;
origin = "{0, 20}";
target = "{0, 73}";
type = Stem;
},
{
horizontal = 1;
origin = "{0, 13}";
target = "{1, 5}";
type = Stem;
},
{
origin = "{0, 17}";
target = "{0, 76}";
type = Stem;
},
{
origin = "{0, 61}";
target = "{0, 32}";
type = Stem;
}
);
layerId = "6E668239-F79A-4803-9842-9160852853A7";
paths = (
{
closed = 1;
nodes = (
"176 368 LINE",
"147 368 OFFCURVE",
"109 409 OFFCURVE",
"109 441 CURVE",
"96 441 LINE",
"96 378 OFFCURVE",
"135 342 OFFCURVE",
"202 342 CURVE SMOOTH",
"259 342 OFFCURVE",
"298 382 OFFCURVE",
"298 440 CURVE SMOOTH",
"298 501 OFFCURVE",
"257 540 OFFCURVE",
"194 540 CURVE SMOOTH",
"130 540 OFFCURVE",
"90 501 OFFCURVE",
"90 440 CURVE SMOOTH",
"90 135 LINE SMOOTH",
"90 46 OFFCURVE",
"146 -10 OFFCURVE",
"235 -10 CURVE SMOOTH",
"323 -10 OFFCURVE",
"379 46 OFFCURVE",
"379 135 CURVE",
"350 60 LINE",
"379 60 LINE",
"350 135 LINE",
"350 46 OFFCURVE",
"405 -10 OFFCURVE",
"494 -10 CURVE SMOOTH",
"583 -10 OFFCURVE",
"638 46 OFFCURVE",
"638 135 CURVE SMOOTH",
"638 392 LINE SMOOTH",
"638 492 OFFCURVE",
"598 540 OFFCURVE",
"509 540 CURVE SMOOTH",
"446 540 OFFCURVE",
"405 501 OFFCURVE",
"405 440 CURVE SMOOTH",
"405 382 OFFCURVE",
"444 342 OFFCURVE",
"501 342 CURVE SMOOTH",
"605 342 OFFCURVE",
"684 423 OFFCURVE",
"731 553 CURVE",
"658 580 LINE",
"619 444 OFFCURVE",
"579 390 OFFCURVE",
"509 390 CURVE SMOOTH",
"478 390 OFFCURVE",
"459 409 OFFCURVE",
"459 441 CURVE SMOOTH",
"459 473 OFFCURVE",
"478 492 OFFCURVE",
"509 492 CURVE SMOOTH",
"542 492 OFFCURVE",
"561 474 OFFCURVE",
"561 439 CURVE SMOOTH",
"561 391 LINE",
"552 356 LINE",
"552 150 LINE SMOOTH",
"552 95 OFFCURVE",
"525 63 OFFCURVE",
"479 63 CURVE SMOOTH",
"433 63 OFFCURVE",
"406 96 OFFCURVE",
"406 150 CURVE SMOOTH",
"406 260 LINE",
"322 260 LINE",
"322 150 LINE SMOOTH",
"322 95 OFFCURVE",
"295 63 OFFCURVE",
"249 63 CURVE SMOOTH",
"203 63 OFFCURVE",
"176 96 OFFCURVE",
"176 150 CURVE SMOOTH"
);
},
{
closed = 1;
nodes = (
"163 390 OFFCURVE",
"144 409 OFFCURVE",
"144 441 CURVE SMOOTH",
"144 473 OFFCURVE",
"163 492 OFFCURVE",
"194 492 CURVE SMOOTH",
"225 492 OFFCURVE",
"244 473 OFFCURVE",
"244 441 CURVE SMOOTH",
"244 409 OFFCURVE",
"225 390 OFFCURVE",
"194 390 CURVE SMOOTH"
);
}
);
width = 736;
},
{
anchors = (
{
name = bottom;
position = "{442, 0}";
},
{
name = bottomright;
position = "{705, 0}";
},
{
name = top;
position = "{391, 578}";
},
{
name = topright;
position = "{715, 578}";
}
);
layerId = "EC79AED6-C145-434E-AE62-F6F3D2AFA8D1";
paths = (
{
closed = 1;
nodes = (
"252 361 LINE",
"174 361 OFFCURVE",
"110 400 OFFCURVE",
"110 447 CURVE",
"85 447 LINE",
"85 369 OFFCURVE",
"160 339 OFFCURVE",
"237 339 CURVE SMOOTH",
"300 339 OFFCURVE",
"343 383 OFFCURVE",
"343 447 CURVE SMOOTH",
"343 510 OFFCURVE",
"292 553 OFFCURVE",
"218 553 CURVE SMOOTH",
"124 553 OFFCURVE",
"66 496 OFFCURVE",
"66 404 CURVE SMOOTH",
"66 150 LINE SMOOTH",
"66 49 OFFCURVE",
"133 -15 OFFCURVE",
"238 -15 CURVE SMOOTH",
"344 -15 OFFCURVE",
"410 49 OFFCURVE",
"410 150 CURVE",
"371 60 LINE",
"410 60 LINE",
"371 150 LINE",
"371 49 OFFCURVE",
"437 -15 OFFCURVE",
"543 -15 CURVE SMOOTH",
"649 -15 OFFCURVE",
"715 48 OFFCURVE",
"715 150 CURVE SMOOTH",
"715 362 LINE SMOOTH",
"715 487 OFFCURVE",
"649 553 OFFCURVE",
"523 553 CURVE SMOOTH",
"449 553 OFFCURVE",
"398 510 OFFCURVE",
"398 447 CURVE SMOOTH",
"398 383 OFFCURVE",
"441 339 OFFCURVE",
"504 339 CURVE SMOOTH",
"671 339 OFFCURVE",
"780 424 OFFCURVE",
"810 573 CURVE",
"649 617 LINE",
"624 470 OFFCURVE",
"582 401 OFFCURVE",
"517 401 CURVE SMOOTH",
"487 401 OFFCURVE",
"469 418 OFFCURVE",
"469 446 CURVE SMOOTH",
"469 474 OFFCURVE",
"487 491 OFFCURVE",
"517 491 CURVE SMOOTH",
"544 491 OFFCURVE",
"560 476 OFFCURVE",
"560 447 CURVE SMOOTH",
"560 376 LINE",
"529 359 LINE",
"529 171 LINE SMOOTH",
"529 144 OFFCURVE",
"515 126 OFFCURVE",
"493 126 CURVE SMOOTH",
"471 126 OFFCURVE",
"457 144 OFFCURVE",
"457 171 CURVE SMOOTH",
"457 280 LINE",
"324 280 LINE",
"324 171 LINE SMOOTH",
"324 144 OFFCURVE",
"310 126 OFFCURVE",
"288 126 CURVE SMOOTH",
"266 126 OFFCURVE",
"252 144 OFFCURVE",
"252 171 CURVE SMOOTH"
);
},
{
closed = 1;
nodes = (
"194 401 OFFCURVE",
"176 418 OFFCURVE",
"176 446 CURVE SMOOTH",
"176 474 OFFCURVE",
"194 491 OFFCURVE",
"224 491 CURVE SMOOTH",
"254 491 OFFCURVE",
"272 474 OFFCURVE",
"272 446 CURVE SMOOTH",
"272 418 OFFCURVE",
"254 401 OFFCURVE",
"224 401 CURVE SMOOTH"
);
}
);
width = 784;
},
{
anchors = (
{
name = bottom;
position = "{277, 0}";
},
{
name = bottomright;
position = "{420, 0}";
},
{
name = top;
position = "{245, 578}";
},
{
name = topright;
position = "{420, 578}";
}
);
layerId = "FFE3C573-8034-42D7-BBA7-2D1C8826F1F5";
paths = (
{
closed = 1;
nodes = (
"94 414 LINE",
"88 414 OFFCURVE",
"81 435 OFFCURVE",
"81 453 CURVE",
"78 453 LINE",
"78 407 OFFCURVE",
"97 375 OFFCURVE",
"133 375 CURVE SMOOTH",
"169 375 OFFCURVE",
"193 406 OFFCURVE",
"193 453 CURVE SMOOTH",
"193 502 OFFCURVE",
"169 533 OFFCURVE",
"132 533 CURVE SMOOTH",
"94 533 OFFCURVE",
"70 501 OFFCURVE",
"70 452 CURVE SMOOTH",
"70 96 LINE SMOOTH",
"70 30 OFFCURVE",
"103 -8 OFFCURVE",
"161 -8 CURVE SMOOTH",
"216 -8 OFFCURVE",
"250 32 OFFCURVE",
"250 96 CURVE",
"240 54 LINE",
"250 54 LINE",
"240 96 LINE",
"240 32 OFFCURVE",
"275 -8 OFFCURVE",
"329 -8 CURVE SMOOTH",
"387 -8 OFFCURVE",
"420 30 OFFCURVE",
"420 96 CURVE SMOOTH",
"420 443 LINE SMOOTH",
"420 501 OFFCURVE",
"396 533 OFFCURVE",
"358 533 CURVE SMOOTH",
"321 533 OFFCURVE",
"297 502 OFFCURVE",
"297 453 CURVE SMOOTH",
"297 406 OFFCURVE",
"321 375 OFFCURVE",
"357 375 CURVE SMOOTH",
"426 375 OFFCURVE",
"452 472 OFFCURVE",
"471 567 CURVE",
"451 575 LINE",
"434 483 OFFCURVE",
"414 396 OFFCURVE",
"358 396 CURVE SMOOTH",
"333 396 OFFCURVE",
"319 417 OFFCURVE",
"319 454 CURVE SMOOTH",
"319 491 OFFCURVE",
"333 512 OFFCURVE",
"358 512 CURVE SMOOTH",
"383 512 OFFCURVE",
"396 486 OFFCURVE",
"396 436 CURVE SMOOTH",
"396 406 LINE",
"396 400 LINE",
"396 99 LINE SMOOTH",
"396 43 OFFCURVE",
"373 15 OFFCURVE",
"327 15 CURVE SMOOTH",
"283 15 OFFCURVE",
"257 47 OFFCURVE",
"257 99 CURVE SMOOTH",
"257 241 LINE",
"233 241 LINE",
"233 99 LINE SMOOTH",
"233 47 OFFCURVE",
"207 15 OFFCURVE",
"163 15 CURVE SMOOTH",
"117 15 OFFCURVE",
"94 43 OFFCURVE",
"94 99 CURVE SMOOTH"
);
},
{
closed = 1;
nodes = (
"107 396 OFFCURVE",
"93 417 OFFCURVE",
"93 454 CURVE SMOOTH",
"93 491 OFFCURVE",
"107 512 OFFCURVE",
"132 512 CURVE SMOOTH",
"157 512 OFFCURVE",
"171 491 OFFCURVE",
"171 454 CURVE SMOOTH",
"171 417 OFFCURVE",
"157 396 OFFCURVE",
"132 396 CURVE SMOOTH"
);
}
);
width = 498;
},
{
anchors = (
{
name = bottom;
position = "{309, 0}";
},
{
name = bottomright;
position = "{478, 0}";
},
{
name = top;
position = "{274, 578}";
},
{
name = topright;
position = "{483, 578}";
}
);
layerId = "CACD10EA-8E27-4203-9979-86A2B0F7ED74";
paths = (
{
closed = 1;
nodes = (
"142 374 LINE",
"113 374 OFFCURVE",
"82 412 OFFCURVE",
"82 442 CURVE",
"71 442 LINE",
"71 378 OFFCURVE",
"107 340 OFFCURVE",
"156 340 CURVE SMOOTH",
"198 340 OFFCURVE",
"227 380 OFFCURVE",
"227 439 CURVE SMOOTH",
"227 501 OFFCURVE",
"196 538 OFFCURVE",
"145 538 CURVE SMOOTH",
"92 538 OFFCURVE",
"64 499 OFFCURVE",
"64 428 CURVE SMOOTH",
"64 112 LINE SMOOTH",
"64 37 OFFCURVE",
"106 -10 OFFCURVE",
"175 -10 CURVE SMOOTH",
"242 -10 OFFCURVE",
"284 38 OFFCURVE",
"284 114 CURVE",
"263 52 LINE",
"284 52 LINE",
"263 114 LINE",
"263 38 OFFCURVE",
"306 -10 OFFCURVE",
"373 -10 CURVE SMOOTH",
"441 -10 OFFCURVE",
"483 36 OFFCURVE",
"483 112 CURVE SMOOTH",
"483 399 LINE SMOOTH",
"483 492 OFFCURVE",
"449 538 OFFCURVE",
"383 538 CURVE SMOOTH",
"332 538 OFFCURVE",
"301 501 OFFCURVE",
"301 439 CURVE SMOOTH",
"301 380 OFFCURVE",
"330 340 OFFCURVE",
"372 340 CURVE SMOOTH",
"463 340 OFFCURVE",
"522 430 OFFCURVE",
"549 555 CURVE",
"482 579 LINE",
"459 450 OFFCURVE",
"432 384 OFFCURVE",
"381 384 CURVE SMOOTH",
"360 384 OFFCURVE",
"346 405 OFFCURVE",
"346 439 CURVE SMOOTH",
"346 473 OFFCURVE",
"360 494 OFFCURVE",
"381 494 CURVE SMOOTH",
"403 494 OFFCURVE",
"416 475 OFFCURVE",
"416 438 CURVE SMOOTH",
"416 393 LINE",
"405 362 LINE",
"405 121 LINE SMOOTH",
"405 79 OFFCURVE",
"388 56 OFFCURVE",
"356 56 CURVE SMOOTH",
"324 56 OFFCURVE",
"306 80 OFFCURVE",
"306 121 CURVE SMOOTH",
"306 257 LINE",
"241 257 LINE",
"241 121 LINE SMOOTH",
"241 79 OFFCURVE",
"223 56 OFFCURVE",
"192 56 CURVE SMOOTH",
"159 56 OFFCURVE",
"142 79 OFFCURVE",
"142 121 CURVE SMOOTH"
);
},
{
closed = 1;
nodes = (
"125 384 OFFCURVE",
"112 405 OFFCURVE",
"112 439 CURVE SMOOTH",
"112 473 OFFCURVE",
"125 494 OFFCURVE",
"147 494 CURVE SMOOTH",
"168 494 OFFCURVE",
"182 473 OFFCURVE",
"182 439 CURVE SMOOTH",
"182 405 OFFCURVE",
"168 384 OFFCURVE",
"147 384 CURVE SMOOTH"
);
}
);
width = 553;
},
{
anchors = (
{
name = bottom;
position = "{364, 0}";
},
{
name = bottomright;
position = "{592, 0}";
},
{
name = top;
position = "{327, 578}";
},
{
name = topright;
position = "{602, 578}";
}
);
layerId = "96C6A4AF-11F2-4EC9-996B-29C760E40A38";
paths = (
{
closed = 1;
nodes = (
"222 362 LINE",
"149 362 OFFCURVE",
"90 401 OFFCURVE",
"90 446 CURVE",
"67 446 LINE",
"67 370 OFFCURVE",
"135 339 OFFCURVE",
"201 339 CURVE SMOOTH",
"254 339 OFFCURVE",
"291 383 OFFCURVE",
"291 445 CURVE SMOOTH",
"291 508 OFFCURVE",
"246 551 OFFCURVE",
"178 551 CURVE SMOOTH",
"100 551 OFFCURVE",
"50 496 OFFCURVE",
"50 409 CURVE SMOOTH",
"50 133 LINE SMOOTH",
"50 40 OFFCURVE",
"105 -15 OFFCURVE",
"197 -15 CURVE SMOOTH",
"287 -15 OFFCURVE",
"344 48 OFFCURVE",
"344 147 CURVE",
"309 59 LINE",
"344 59 LINE",
"309 147 LINE",
"309 47 OFFCURVE",
"366 -15 OFFCURVE",
"456 -15 CURVE SMOOTH",
"548 -15 OFFCURVE",
"602 39 OFFCURVE",
"602 133 CURVE SMOOTH",
"602 366 LINE SMOOTH",
"602 487 OFFCURVE",
"544 551 OFFCURVE",
"433 551 CURVE SMOOTH",
"365 551 OFFCURVE",
"320 508 OFFCURVE",
"320 445 CURVE SMOOTH",
"320 383 OFFCURVE",
"357 339 OFFCURVE",
"410 339 CURVE SMOOTH",
"559 339 OFFCURVE",
"658 424 OFFCURVE",
"683 570 CURVE",
"534 612 LINE",
"513 462 OFFCURVE",
"475 399 OFFCURVE",
"423 399 CURVE SMOOTH",
"399 399 OFFCURVE",
"384 416 OFFCURVE",
"384 445 CURVE SMOOTH",
"384 474 OFFCURVE",
"399 491 OFFCURVE",
"423 491 CURVE SMOOTH",
"446 491 OFFCURVE",
"459 476 OFFCURVE",
"459 446 CURVE SMOOTH",
"459 378 LINE",
"430 359 LINE",
"430 157 LINE SMOOTH",
"430 137 OFFCURVE",
"423 126 OFFCURVE",
"409 126 CURVE SMOOTH",
"394 126 OFFCURVE",
"387 136 OFFCURVE",
"387 157 CURVE SMOOTH",
"387 277 LINE",
"265 277 LINE",
"265 157 LINE SMOOTH",
"265 136 OFFCURVE",
"258 126 OFFCURVE",
"244 126 CURVE SMOOTH",
"229 126 OFFCURVE",
"222 136 OFFCURVE",
"222 157 CURVE SMOOTH"
);
},
{
closed = 1;
nodes = (
"164 399 OFFCURVE",
"149 416 OFFCURVE",
"149 445 CURVE SMOOTH",
"149 474 OFFCURVE",
"164 491 OFFCURVE",
"188 491 CURVE SMOOTH",
"212 491 OFFCURVE",
"227 474 OFFCURVE",
"227 445 CURVE SMOOTH",
"227 416 OFFCURVE",
"212 399 OFFCURVE",
"188 399 CURVE SMOOTH"
);
}
);
width = 652;
}
);
leftKerningGroup = "doDek-lao";
leftMetricsKey = "doDek-lao";
rightKerningGroup = "phoPhueng-lao";
unicode = 0E9C;
subCategory = Spacing;
},
{
glyphname = "foFon-lao";
lastChange = "2020-12-17 09:42:54 +0000";
layers = (
{
anchors = (
{
name = bottom;
position = "{277, 0}";
},
{
name = bottomright;
position = "{420, 0}";
},
{
name = top;
position = "{246, 578}";
},
{
name = topright;
position = "{319, 578}";
}
);
layerId = "FFE3C573-8034-42D7-BBA7-2D1C8826F1F5";
paths = (
{
closed = 1;
nodes = (
"216 -8 OFFCURVE",
"250 32 OFFCURVE",
"250 96 CURVE",
"240 54 LINE",
"250 54 LINE",
"240 96 LINE",
"240 32 OFFCURVE",
"275 -8 OFFCURVE",
"329 -8 CURVE SMOOTH",
"387 -8 OFFCURVE",
"420 30 OFFCURVE",
"420 96 CURVE SMOOTH",
"420 568 LINE SMOOTH",
"420 620 OFFCURVE",
"425 654 OFFCURVE",
"442 690 CURVE",
"419 699 LINE",
"403 667 OFFCURVE",
"396 628 OFFCURVE",
"396 571 CURVE SMOOTH",
"396 99 LINE SMOOTH",
"396 43 OFFCURVE",
"373 15 OFFCURVE",
"327 15 CURVE SMOOTH",
"283 15 OFFCURVE",
"257 47 OFFCURVE",
"257 99 CURVE SMOOTH",
"257 241 LINE",
"233 241 LINE",
"233 99 LINE SMOOTH",
"233 47 OFFCURVE",
"207 15 OFFCURVE",
"163 15 CURVE SMOOTH",
"117 15 OFFCURVE",
"94 43 OFFCURVE",
"94 99 CURVE SMOOTH",
"94 414 LINE",
"88 414 OFFCURVE",
"81 435 OFFCURVE",
"81 453 CURVE",
"78 453 LINE",
"78 407 OFFCURVE",
"97 375 OFFCURVE",
"133 375 CURVE SMOOTH",
"169 375 OFFCURVE",
"193 406 OFFCURVE",
"193 453 CURVE SMOOTH",
"193 502 OFFCURVE",
"169 533 OFFCURVE",
"132 533 CURVE SMOOTH",
"94 533 OFFCURVE",
"70 501 OFFCURVE",
"70 452 CURVE SMOOTH",
"70 96 LINE SMOOTH",
"70 30 OFFCURVE",
"103 -8 OFFCURVE",
"161 -8 CURVE SMOOTH"
);
},
{
closed = 1;
nodes = (
"107 396 OFFCURVE",
"93 417 OFFCURVE",
"93 454 CURVE SMOOTH",
"93 491 OFFCURVE",
"107 512 OFFCURVE",
"132 512 CURVE SMOOTH",
"157 512 OFFCURVE",
"171 491 OFFCURVE",
"171 454 CURVE SMOOTH",
"171 417 OFFCURVE",
"157 396 OFFCURVE",
"132 396 CURVE SMOOTH"
);
}
);
width = 490;
},
{
anchors = (
{
name = bottom;
position = "{309, 0}";
},
{
name = bottomright;
position = "{478, 0}";
},
{
name = top;
position = "{274, 578}";
},
{
name = topright;
position = "{344, 578}";
}
);
layerId = "CACD10EA-8E27-4203-9979-86A2B0F7ED74";
paths = (
{
closed = 1;
nodes = (
"242 -10 OFFCURVE",
"284 38 OFFCURVE",
"284 114 CURVE",
"263 52 LINE",
"284 52 LINE",
"263 114 LINE",
"263 38 OFFCURVE",
"306 -10 OFFCURVE",
"373 -10 CURVE SMOOTH",
"441 -10 OFFCURVE",
"483 36 OFFCURVE",
"483 112 CURVE SMOOTH",
"483 563 LINE SMOOTH",
"483 616 OFFCURVE",
"488 649 OFFCURVE",
"502 685 CURVE",
"428 703 LINE",
"414 673 OFFCURVE",
"405 628 OFFCURVE",
"405 576 CURVE SMOOTH",
"405 121 LINE SMOOTH",
"405 79 OFFCURVE",
"388 56 OFFCURVE",
"356 56 CURVE SMOOTH",
"324 56 OFFCURVE",
"306 80 OFFCURVE",
"306 121 CURVE SMOOTH",
"306 257 LINE",
"241 257 LINE",
"241 121 LINE SMOOTH",
"241 79 OFFCURVE",
"223 56 OFFCURVE",
"192 56 CURVE SMOOTH",
"159 56 OFFCURVE",
"142 79 OFFCURVE",
"142 121 CURVE SMOOTH",
"142 374 LINE",
"113 374 OFFCURVE",
"82 412 OFFCURVE",
"82 442 CURVE",
"71 442 LINE",
"71 378 OFFCURVE",
"107 340 OFFCURVE",
"156 340 CURVE SMOOTH",
"198 340 OFFCURVE",
"227 380 OFFCURVE",
"227 439 CURVE SMOOTH",
"227 501 OFFCURVE",
"196 538 OFFCURVE",
"145 538 CURVE SMOOTH",
"92 538 OFFCURVE",
"64 499 OFFCURVE",
"64 428 CURVE SMOOTH",
"64 112 LINE SMOOTH",
"64 37 OFFCURVE",
"106 -10 OFFCURVE",
"175 -10 CURVE SMOOTH"
);
},
{
closed = 1;
nodes = (
"125 384 OFFCURVE",
"112 405 OFFCURVE",
"112 439 CURVE SMOOTH",
"112 473 OFFCURVE",
"125 494 OFFCURVE",
"147 494 CURVE SMOOTH",
"168 494 OFFCURVE",
"182 473 OFFCURVE",
"182 439 CURVE SMOOTH",
"182 405 OFFCURVE",
"168 384 OFFCURVE",
"147 384 CURVE SMOOTH"
);
}
);
width = 547;
},
{
anchors = (
{
name = bottom;
position = "{364, 0}";
},
{
name = bottomright;
position = "{592, 0}";
},
{
name = top;
position = "{327, 578}";
},
{
name = topright;
position = "{388, 578}";
}
);
layerId = "96C6A4AF-11F2-4EC9-996B-29C760E40A38";
paths = (
{
closed = 1;
nodes = (
"287 -15 OFFCURVE",
"344 48 OFFCURVE",
"344 147 CURVE",
"309 59 LINE",
"344 59 LINE",
"309 147 LINE",
"309 47 OFFCURVE",
"366 -15 OFFCURVE",
"456 -15 CURVE SMOOTH",
"548 -15 OFFCURVE",
"602 39 OFFCURVE",
"602 133 CURVE SMOOTH",
"602 556 LINE SMOOTH",
"602 606 OFFCURVE",
"607 648 OFFCURVE",
"623 686 CURVE",
"457 713 LINE",
"439 681 OFFCURVE",
"430 629 OFFCURVE",
"430 573 CURVE SMOOTH",
"430 157 LINE SMOOTH",
"430 137 OFFCURVE",
"423 126 OFFCURVE",
"409 126 CURVE SMOOTH",
"394 126 OFFCURVE",
"387 136 OFFCURVE",
"387 157 CURVE SMOOTH",
"387 277 LINE",
"265 277 LINE",
"265 157 LINE SMOOTH",
"265 136 OFFCURVE",
"258 126 OFFCURVE",
"244 126 CURVE SMOOTH",
"229 126 OFFCURVE",
"222 136 OFFCURVE",
"222 157 CURVE SMOOTH",
"222 362 LINE",
"149 362 OFFCURVE",
"90 401 OFFCURVE",
"90 446 CURVE",
"67 446 LINE",
"67 370 OFFCURVE",
"135 339 OFFCURVE",
"201 339 CURVE SMOOTH",
"254 339 OFFCURVE",
"291 383 OFFCURVE",
"291 445 CURVE SMOOTH",
"291 508 OFFCURVE",
"246 551 OFFCURVE",
"178 551 CURVE SMOOTH",
"100 551 OFFCURVE",
"50 496 OFFCURVE",
"50 409 CURVE SMOOTH",
"50 133 LINE SMOOTH",
"50 40 OFFCURVE",
"105 -15 OFFCURVE",
"197 -15 CURVE SMOOTH"
);
},
{
closed = 1;
nodes = (
"164 399 OFFCURVE",
"149 416 OFFCURVE",
"149 445 CURVE SMOOTH",
"149 474 OFFCURVE",
"164 491 OFFCURVE",
"188 491 CURVE SMOOTH",
"212 491 OFFCURVE",
"227 474 OFFCURVE",
"227 445 CURVE SMOOTH",
"227 416 OFFCURVE",
"212 399 OFFCURVE",
"188 399 CURVE SMOOTH"
);
}
);
width = 652;
},
{
anchors = (
{
name = bottom;
position = "{389, 0}";
},
{
name = bottomright;
position = "{590, 0}";
},
{
name = top;
position = "{347, 578}";
},
{
name = topright;
position = "{454, 578}";
}
);
layerId = "2CD50835-5B7E-4D2A-958C-2F579F79E971";
paths = (
{
closed = 1;
nodes = (
"306 -8 OFFCURVE",
"353 44 OFFCURVE",
"353 126 CURVE",
"341 75 LINE",
"353 75 LINE",
"341 126 LINE",
"341 44 OFFCURVE",
"388 -8 OFFCURVE",
"464 -8 CURVE SMOOTH",
"542 -8 OFFCURVE",
"590 44 OFFCURVE",
"590 126 CURVE SMOOTH",
"590 560 LINE SMOOTH",
"590 612 OFFCURVE",
"595 656 OFFCURVE",
"617 692 CURVE",
"593 701 LINE",
"572 669 OFFCURVE",
"564 620 OFFCURVE",
"564 563 CURVE SMOOTH",
"564 130 LINE SMOOTH",
"564 59 OFFCURVE",
"526 17 OFFCURVE",
"462 17 CURVE SMOOTH",
"398 17 OFFCURVE",
"360 59 OFFCURVE",
"360 130 CURVE SMOOTH",
"360 242 LINE",
"334 242 LINE",
"334 130 LINE SMOOTH",
"334 59 OFFCURVE",
"296 17 OFFCURVE",
"232 17 CURVE SMOOTH",
"168 17 OFFCURVE",
"130 59 OFFCURVE",
"130 130 CURVE SMOOTH",
"130 415 LINE",
"125 415 OFFCURVE",
"116 436 OFFCURVE",
"116 455 CURVE",
"112 455 LINE",
"112 406 OFFCURVE",
"142 375 OFFCURVE",
"190 375 CURVE SMOOTH",
"237 375 OFFCURVE",
"269 408 OFFCURVE",
"269 455 CURVE SMOOTH",
"269 503 OFFCURVE",
"236 535 OFFCURVE",
"186 535 CURVE SMOOTH",
"137 535 OFFCURVE",
"104 502 OFFCURVE",
"104 452 CURVE SMOOTH",
"104 126 LINE SMOOTH",
"104 44 OFFCURVE",
"152 -8 OFFCURVE",
"230 -8 CURVE SMOOTH"
);
},
{
closed = 1;
nodes = (
"153 398 OFFCURVE",
"132 420 OFFCURVE",
"132 455 CURVE SMOOTH",
"132 490 OFFCURVE",
"153 512 OFFCURVE",
"188 512 CURVE SMOOTH",
"223 512 OFFCURVE",
"244 490 OFFCURVE",
"244 455 CURVE SMOOTH",
"244 420 OFFCURVE",
"223 398 OFFCURVE",
"188 398 CURVE SMOOTH"
);
}
);
width = 694;
},
{
anchors = (
{
name = bottom;
position = "{404, 0}";
},
{
name = bottomright;
position = "{633, 0}";
},
{
name = top;
position = "{364, 578}";
},
{
name = topright;
position = "{464, 578}";
}
);
hints = (
{
horizontal = 1;
origin = "{0, 56}";
target = "{0, 32}";
type = Stem;
},
{
origin = "{0, 53}";
target = "{0, 35}";
type = Stem;
},
{
origin = "{0, 20}";
target = "{0, 11}";
type = Stem;
},
{
horizontal = 1;
origin = "{0, 49}";
target = "{1, 5}";
type = Stem;
}
);
layerId = "6E668239-F79A-4803-9842-9160852853A7";
paths = (
{
closed = 1;
nodes = (
"323 -10 OFFCURVE",
"379 46 OFFCURVE",
"379 135 CURVE",
"350 60 LINE",
"379 60 LINE",
"350 135 LINE",
"350 46 OFFCURVE",
"405 -10 OFFCURVE",
"494 -10 CURVE SMOOTH",
"583 -10 OFFCURVE",
"638 46 OFFCURVE",
"638 135 CURVE SMOOTH",
"638 555 LINE SMOOTH",
"638 608 OFFCURVE",
"644 651 OFFCURVE",
"663 687 CURVE",
"582 705 LINE",
"562 675 OFFCURVE",
"552 620 OFFCURVE",
"552 568 CURVE SMOOTH",
"552 150 LINE SMOOTH",
"552 95 OFFCURVE",
"525 63 OFFCURVE",
"479 63 CURVE SMOOTH",
"433 63 OFFCURVE",
"406 96 OFFCURVE",
"406 150 CURVE SMOOTH",
"406 260 LINE",
"322 260 LINE",
"322 150 LINE SMOOTH",
"322 95 OFFCURVE",
"295 63 OFFCURVE",
"249 63 CURVE SMOOTH",
"203 63 OFFCURVE",
"176 96 OFFCURVE",
"176 150 CURVE SMOOTH",
"176 368 LINE",
"147 368 OFFCURVE",
"109 409 OFFCURVE",
"109 441 CURVE",
"96 441 LINE",
"96 378 OFFCURVE",
"135 342 OFFCURVE",
"202 342 CURVE SMOOTH",
"259 342 OFFCURVE",
"298 382 OFFCURVE",
"298 440 CURVE SMOOTH",
"298 501 OFFCURVE",
"257 540 OFFCURVE",
"194 540 CURVE SMOOTH",
"130 540 OFFCURVE",
"90 501 OFFCURVE",
"90 440 CURVE SMOOTH",
"90 135 LINE SMOOTH",
"90 46 OFFCURVE",
"146 -10 OFFCURVE",
"235 -10 CURVE SMOOTH"
);
},
{
closed = 1;
nodes = (
"163 390 OFFCURVE",
"144 409 OFFCURVE",
"144 441 CURVE SMOOTH",
"144 473 OFFCURVE",
"163 492 OFFCURVE",
"194 492 CURVE SMOOTH",
"225 492 OFFCURVE",
"244 473 OFFCURVE",
"244 441 CURVE SMOOTH",
"244 409 OFFCURVE",
"225 390 OFFCURVE",
"194 390 CURVE SMOOTH"
);
}
);
width = 728;
},
{
anchors = (
{
name = bottom;
position = "{442, 0}";
},
{
name = bottomright;
position = "{705, 0}";
},
{
name = top;
position = "{391, 578}";
},
{
name = topright;
position = "{471, 578}";
}
);
layerId = "EC79AED6-C145-434E-AE62-F6F3D2AFA8D1";
paths = (
{
closed = 1;
nodes = (
"344 -15 OFFCURVE",
"410 49 OFFCURVE",
"410 150 CURVE",
"371 60 LINE",
"410 60 LINE",
"371 150 LINE",
"371 49 OFFCURVE",
"437 -15 OFFCURVE",
"543 -15 CURVE SMOOTH",
"649 -15 OFFCURVE",
"715 48 OFFCURVE",
"715 150 CURVE SMOOTH",
"715 558 LINE SMOOTH",
"715 608 OFFCURVE",
"721 650 OFFCURVE",
"738 688 CURVE",
"560 715 LINE",
"540 683 OFFCURVE",
"529 631 OFFCURVE",
"529 575 CURVE SMOOTH",
"529 171 LINE SMOOTH",
"529 144 OFFCURVE",
"515 126 OFFCURVE",
"493 126 CURVE SMOOTH",
"471 126 OFFCURVE",
"457 144 OFFCURVE",
"457 171 CURVE SMOOTH",
"457 280 LINE",
"324 280 LINE",
"324 171 LINE SMOOTH",
"324 144 OFFCURVE",
"310 126 OFFCURVE",
"288 126 CURVE SMOOTH",
"266 126 OFFCURVE",
"252 144 OFFCURVE",
"252 171 CURVE SMOOTH",
"252 361 LINE",
"174 361 OFFCURVE",
"110 400 OFFCURVE",
"110 447 CURVE",
"85 447 LINE",
"85 369 OFFCURVE",
"160 339 OFFCURVE",
"237 339 CURVE SMOOTH",
"300 339 OFFCURVE",
"343 383 OFFCURVE",
"343 447 CURVE SMOOTH",
"343 510 OFFCURVE",
"292 553 OFFCURVE",
"218 553 CURVE SMOOTH",
"124 553 OFFCURVE",
"66 496 OFFCURVE",
"66 404 CURVE SMOOTH",
"66 150 LINE SMOOTH",
"66 49 OFFCURVE",
"133 -15 OFFCURVE",
"238 -15 CURVE SMOOTH"
);
},
{
closed = 1;
nodes = (
"194 401 OFFCURVE",
"176 418 OFFCURVE",
"176 446 CURVE SMOOTH",
"176 474 OFFCURVE",
"194 491 OFFCURVE",
"224 491 CURVE SMOOTH",
"254 491 OFFCURVE",
"272 474 OFFCURVE",
"272 446 CURVE SMOOTH",
"272 418 OFFCURVE",
"254 401 OFFCURVE",
"224 401 CURVE SMOOTH"
);
}
);
width = 781;
}
);
leftKerningGroup = "doDek-lao";
leftMetricsKey = "phoPhueng-lao";
rightKerningGroup = "poPa-lao";
rightMetricsKey = "=doDek-lao@300";
unicode = 0E9D;
subCategory = Spacing;
},
{
glyphname = "phoPhu-lao";
lastChange = "2020-12-17 09:42:54 +0000";
layers = (
{
anchors = (
{
name = bottom;
position = "{453, 0}";
},
{
name = bottomright;
position = "{692, 0}";
},
{
name = top;
position = "{411, 578}";
},
{
name = topright;
position = "{692, 578}";
}
);
layerId = "2CD50835-5B7E-4D2A-958C-2F579F79E971";
paths = (
{
closed = 1;
nodes = (
"350 -8 OFFCURVE",
"417 55 OFFCURVE",
"417 148 CURVE",
"405 94 LINE",
"417 94 LINE",
"405 148 LINE",
"405 52 OFFCURVE",
"459 -8 OFFCURVE",
"546 -8 CURVE SMOOTH",
"636 -8 OFFCURVE",
"692 53 OFFCURVE",
"692 148 CURVE SMOOTH",
"692 530 LINE",
"666 530 LINE",
"666 151 LINE SMOOTH",
"666 68 OFFCURVE",
"621 17 OFFCURVE",
"545 17 CURVE SMOOTH",
"469 17 OFFCURVE",
"424 68 OFFCURVE",
"424 151 CURVE SMOOTH",
"424 520 LINE",
"398 520 LINE",
"398 151 LINE SMOOTH",
"398 70 OFFCURVE",
"340 17 OFFCURVE",
"253 17 CURVE SMOOTH",
"171 17 OFFCURVE",
"115 65 OFFCURVE",
"115 137 CURVE SMOOTH",
"115 251 OFFCURVE",
"250 352 OFFCURVE",
"250 452 CURVE",
"215 411 LINE",
"215 359 OFFCURVE",
"88 252 OFFCURVE",
"88 137 CURVE SMOOTH",
"88 51 OFFCURVE",
"156 -8 OFFCURVE",
"252 -8 CURVE SMOOTH"
);
},
{
closed = 1;
nodes = (
"224 375 OFFCURVE",
"250 434 OFFCURVE",
"250 452 CURVE SMOOTH",
"250 502 OFFCURVE",
"219 535 OFFCURVE",
"166 535 CURVE SMOOTH",
"118 535 OFFCURVE",
"85 502 OFFCURVE",
"85 455 CURVE SMOOTH",
"85 408 OFFCURVE",
"118 375 OFFCURVE",
"165 375 CURVE SMOOTH"
);
},
{
closed = 1;
nodes = (
"131 398 OFFCURVE",
"110 420 OFFCURVE",
"110 455 CURVE SMOOTH",
"110 490 OFFCURVE",
"131 512 OFFCURVE",
"166 512 CURVE SMOOTH",
"201 512 OFFCURVE",
"222 490 OFFCURVE",
"222 455 CURVE SMOOTH",
"222 420 OFFCURVE",
"201 398 OFFCURVE",
"166 398 CURVE SMOOTH"
);
}
);
width = 796;
},
{
anchors = (
{
name = bottom;
position = "{464, 0}";
},
{
name = bottomright;
position = "{731, 0}";
},
{
name = top;
position = "{425, 578}";
},
{
name = topright;
position = "{736, 578}";
}
);
hints = (
{
horizontal = 1;
origin = "{0, 39}";
target = "{0, 26}";
type = Stem;
},
{
horizontal = 1;
origin = "{0, 13}";
target = down;
type = TopGhost;
},
{
origin = "{0, 23}";
target = "{0, 20}";
type = Stem;
},
{
origin = "{0, 14}";
target = "{0, 11}";
type = Stem;
},
{
horizontal = 1;
origin = "{1, 5}";
target = "{2, 5}";
type = Stem;
}
);
layerId = "6E668239-F79A-4803-9842-9160852853A7";
paths = (
{
closed = 1;
nodes = (
"372 -10 OFFCURVE",
"442 52 OFFCURVE",
"442 151 CURVE",
"407 69 LINE",
"442 69 LINE",
"407 151 LINE",
"407 53 OFFCURVE",
"471 -10 OFFCURVE",
"572 -10 CURVE SMOOTH",
"672 -10 OFFCURVE",
"736 53 OFFCURVE",
"736 151 CURVE SMOOTH",
"736 533 LINE",
"650 533 LINE",
"650 166 LINE SMOOTH",
"650 102 OFFCURVE",
"615 63 OFFCURVE",
"559 63 CURVE SMOOTH",
"502 63 OFFCURVE",
"468 102 OFFCURVE",
"468 166 CURVE SMOOTH",
"468 522 LINE",
"382 522 LINE",
"382 167 LINE SMOOTH",
"382 102 OFFCURVE",
"340 63 OFFCURVE",
"270 63 CURVE SMOOTH",
"201 63 OFFCURVE",
"160 102 OFFCURVE",
"160 166 CURVE SMOOTH",
"160 266 OFFCURVE",
"278 337 OFFCURVE",
"278 440 CURVE",
"180 373 LINE",
"180 331 OFFCURVE",
"73 267 OFFCURVE",
"73 153 CURVE SMOOTH",
"73 53 OFFCURVE",
"144 -10 OFFCURVE",
"259 -10 CURVE SMOOTH"
);
},
{
closed = 1;
nodes = (
"237 342 OFFCURVE",
"278 388 OFFCURVE",
"278 440 CURVE SMOOTH",
"278 501 OFFCURVE",
"238 540 OFFCURVE",
"176 540 CURVE SMOOTH",
"111 540 OFFCURVE",
"70 501 OFFCURVE",
"70 439 CURVE SMOOTH",
"70 382 OFFCURVE",
"109 342 OFFCURVE",
"166 342 CURVE SMOOTH"
);
},
{
closed = 1;
nodes = (
"143 390 OFFCURVE",
"124 409 OFFCURVE",
"124 441 CURVE SMOOTH",
"124 473 OFFCURVE",
"143 492 OFFCURVE",
"174 492 CURVE SMOOTH",
"205 492 OFFCURVE",
"224 473 OFFCURVE",
"224 441 CURVE SMOOTH",
"224 409 OFFCURVE",
"205 390 OFFCURVE",
"174 390 CURVE SMOOTH"
);
}
);
width = 826;
},
{
anchors = (
{
name = bottom;
position = "{500, 0}";
},
{
name = bottomright;
position = "{831, 0}";
},
{
name = top;
position = "{465, 578}";
},
{
name = topright;
position = "{841, 578}";
}
);
layerId = "EC79AED6-C145-434E-AE62-F6F3D2AFA8D1";
paths = (
{
closed = 1;
nodes = (
"408 -15 OFFCURVE",
"492 51 OFFCURVE",
"492 157 CURVE",
"437 59 LINE",
"492 59 LINE",
"437 157 LINE",
"437 51 OFFCURVE",
"515 -15 OFFCURVE",
"640 -15 CURVE SMOOTH",
"764 -15 OFFCURVE",
"841 51 OFFCURVE",
"841 157 CURVE SMOOTH",
"841 543 LINE",
"655 543 LINE",
"655 187 LINE SMOOTH",
"655 152 OFFCURVE",
"635 131 OFFCURVE",
"601 131 CURVE SMOOTH",
"568 131 OFFCURVE",
"548 152 OFFCURVE",
"548 187 CURVE SMOOTH",
"548 529 LINE",
"382 529 LINE",
"382 191 LINE SMOOTH",
"382 153 OFFCURVE",
"355 131 OFFCURVE",
"310 131 CURVE SMOOTH",
"267 131 OFFCURVE",
"236 156 OFFCURVE",
"236 194 CURVE SMOOTH",
"236 266 OFFCURVE",
"325 343 OFFCURVE",
"325 432 CURVE",
"154 379 LINE",
"154 344 OFFCURVE",
"51 263 OFFCURVE",
"51 157 CURVE SMOOTH",
"51 51 OFFCURVE",
"137 -15 OFFCURVE",
"272 -15 CURVE SMOOTH"
);
},
{
closed = 1;
nodes = (
"249 339 OFFCURVE",
"325 376 OFFCURVE",
"325 432 CURVE SMOOTH",
"325 502 OFFCURVE",
"273 553 OFFCURVE",
"182 553 CURVE SMOOTH",
"95 553 OFFCURVE",
"48 510 OFFCURVE",
"48 447 CURVE SMOOTH",
"48 383 OFFCURVE",
"91 339 OFFCURVE",
"155 345 CURVE SMOOTH"
);
},
{
closed = 1;
nodes = (
"137 401 OFFCURVE",
"119 418 OFFCURVE",
"119 446 CURVE SMOOTH",
"119 474 OFFCURVE",
"137 491 OFFCURVE",
"167 491 CURVE SMOOTH",
"197 491 OFFCURVE",
"215 474 OFFCURVE",
"215 446 CURVE SMOOTH",
"215 418 OFFCURVE",
"197 401 OFFCURVE",
"167 401 CURVE SMOOTH"
);
}
);
width = 907;
},
{
anchors = (
{
name = bottom;
position = "{323, 0}";
},
{
name = bottomright;
position = "{493, 0}";
},
{
name = top;
position = "{291, 578}";
},
{
name = topright;
position = "{493, 578}";
}
);
layerId = "FFE3C573-8034-42D7-BBA7-2D1C8826F1F5";
paths = (
{
closed = 1;
nodes = (
"248 -8 OFFCURVE",
"296 49 OFFCURVE",
"296 133 CURVE",
"285 80 LINE",
"296 80 LINE",
"285 133 LINE",
"285 46 OFFCURVE",
"325 -8 OFFCURVE",
"388 -8 CURVE SMOOTH",
"454 -8 OFFCURVE",
"493 46 OFFCURVE",
"493 133 CURVE SMOOTH",
"493 528 LINE",
"469 528 LINE",
"469 136 LINE SMOOTH",
"469 59 OFFCURVE",
"439 15 OFFCURVE",
"386 15 CURVE SMOOTH",
"334 15 OFFCURVE",
"303 61 OFFCURVE",
"303 136 CURVE SMOOTH",
"303 519 LINE",
"279 519 LINE",
"279 136 LINE SMOOTH",
"279 64 OFFCURVE",
"239 15 OFFCURVE",
"179 15 CURVE SMOOTH",
"120 15 OFFCURVE",
"84 61 OFFCURVE",
"84 133 CURVE SMOOTH",
"84 250 OFFCURVE",
"180 350 OFFCURVE",
"180 450 CURVE",
"149 410 LINE",
"149 345 OFFCURVE",
"60 251 OFFCURVE",
"60 134 CURVE SMOOTH",
"60 49 OFFCURVE",
"106 -8 OFFCURVE",
"177 -8 CURVE SMOOTH"
);
},
{
closed = 1;
nodes = (
"160 375 OFFCURVE",
"180 426 OFFCURVE",
"180 450 CURVE SMOOTH",
"180 501 OFFCURVE",
"156 533 OFFCURVE",
"119 533 CURVE SMOOTH",
"81 533 OFFCURVE",
"57 501 OFFCURVE",
"57 453 CURVE SMOOTH",
"57 406 OFFCURVE",
"81 375 OFFCURVE",
"117 375 CURVE SMOOTH"
);
},
{
closed = 1;
nodes = (
"93 396 OFFCURVE",
"79 417 OFFCURVE",
"79 454 CURVE SMOOTH",
"79 491 OFFCURVE",
"93 512 OFFCURVE",
"118 512 CURVE SMOOTH",
"143 512 OFFCURVE",
"157 491 OFFCURVE",
"157 454 CURVE SMOOTH",
"157 417 OFFCURVE",
"143 396 OFFCURVE",
"118 396 CURVE SMOOTH"
);
}
);
width = 563;
},
{
anchors = (
{
name = bottom;
position = "{351, 0}";
},
{
name = bottomright;
position = "{558, 0}";
},
{
name = top;
position = "{322, 578}";
},
{
name = topright;
position = "{563, 578}";
}
);
layerId = "CACD10EA-8E27-4203-9979-86A2B0F7ED74";
paths = (
{
closed = 1;
nodes = (
"280 -10 OFFCURVE",
"335 49 OFFCURVE",
"335 141 CURVE",
"308 63 LINE",
"335 63 LINE",
"308 141 LINE",
"308 49 OFFCURVE",
"358 -10 OFFCURVE",
"436 -10 CURVE SMOOTH",
"515 -10 OFFCURVE",
"563 48 OFFCURVE",
"563 141 CURVE SMOOTH",
"563 531 LINE",
"485 531 LINE",
"485 152 LINE SMOOTH",
"485 91 OFFCURVE",
"463 56 OFFCURVE",
"423 56 CURVE SMOOTH",
"383 56 OFFCURVE",
"361 91 OFFCURVE",
"361 152 CURVE SMOOTH",
"361 521 LINE",
"283 521 LINE",
"283 152 LINE SMOOTH",
"283 90 OFFCURVE",
"256 56 OFFCURVE",
"207 56 CURVE SMOOTH",
"159 56 OFFCURVE",
"130 93 OFFCURVE",
"130 153 CURVE SMOOTH",
"130 261 OFFCURVE",
"212 336 OFFCURVE",
"212 441 CURVE",
"132 373 LINE",
"132 323 OFFCURVE",
"52 262 OFFCURVE",
"52 146 CURVE SMOOTH",
"52 49 OFFCURVE",
"105 -10 OFFCURVE",
"194 -10 CURVE SMOOTH"
);
},
{
closed = 1;
nodes = (
"169 340 OFFCURVE",
"212 388 OFFCURVE",
"212 441 CURVE SMOOTH",
"212 499 OFFCURVE",
"182 538 OFFCURVE",
"132 538 CURVE SMOOTH",
"80 538 OFFCURVE",
"49 501 OFFCURVE",
"49 439 CURVE SMOOTH",
"49 380 OFFCURVE",
"78 340 OFFCURVE",
"120 340 CURVE SMOOTH"
);
},
{
closed = 1;
nodes = (
"108 384 OFFCURVE",
"94 405 OFFCURVE",
"94 439 CURVE SMOOTH",
"94 473 OFFCURVE",
"108 494 OFFCURVE",
"129 494 CURVE SMOOTH",
"150 494 OFFCURVE",
"164 473 OFFCURVE",
"164 439 CURVE SMOOTH",
"164 405 OFFCURVE",
"150 384 OFFCURVE",
"129 384 CURVE SMOOTH"
);
}
);
width = 627;
},
{
anchors = (
{
name = bottom;
position = "{411, 0}";
},
{
name = bottomright;
position = "{698, 0}";
},
{
name = top;
position = "{388, 578}";
},
{
name = topright;
position = "{708, 578}";
}
);
layerId = "96C6A4AF-11F2-4EC9-996B-29C760E40A38";
paths = (
{
closed = 1;
nodes = (
"342 -15 OFFCURVE",
"413 48 OFFCURVE",
"413 149 CURVE",
"363 53 LINE",
"413 53 LINE",
"363 149 LINE",
"363 49 OFFCURVE",
"430 -15 OFFCURVE",
"537 -15 CURVE SMOOTH",
"642 -15 OFFCURVE",
"708 49 OFFCURVE",
"708 149 CURVE SMOOTH",
"708 541 LINE",
"536 541 LINE",
"536 176 LINE SMOOTH",
"536 147 OFFCURVE",
"524 131 OFFCURVE",
"500 131 CURVE SMOOTH",
"477 131 OFFCURVE",
"464 147 OFFCURVE",
"464 176 CURVE SMOOTH",
"464 528 LINE",
"312 528 LINE",
"312 179 LINE SMOOTH",
"312 148 OFFCURVE",
"294 131 OFFCURVE",
"261 131 CURVE SMOOTH",
"228 131 OFFCURVE",
"210 155 OFFCURVE",
"209 189 CURVE SMOOTH",
"209 266 OFFCURVE",
"276 342 OFFCURVE",
"276 433 CURVE",
"119 378 LINE",
"119 326 OFFCURVE",
"38 263 OFFCURVE",
"38 156 CURVE SMOOTH",
"38 56 OFFCURVE",
"112 -15 OFFCURVE",
"226 -15 CURVE SMOOTH"
);
},
{
closed = 1;
nodes = (
"207 339 OFFCURVE",
"276 377 OFFCURVE",
"276 433 CURVE SMOOTH",
"276 497 OFFCURVE",
"232 551 OFFCURVE",
"152 551 CURVE SMOOTH",
"78 551 OFFCURVE",
"35 508 OFFCURVE",
"35 445 CURVE SMOOTH",
"35 383 OFFCURVE",
"72 339 OFFCURVE",
"127 339 CURVE SMOOTH"
);
},
{
closed = 1;
nodes = (
"114 399 OFFCURVE",
"99 416 OFFCURVE",
"99 445 CURVE SMOOTH",
"99 474 OFFCURVE",
"114 491 OFFCURVE",
"138 491 CURVE SMOOTH",
"162 491 OFFCURVE",
"177 474 OFFCURVE",
"177 445 CURVE SMOOTH",
"177 416 OFFCURVE",
"162 399 OFFCURVE",
"138 399 CURVE SMOOTH"
);
}
);
width = 758;
}
);
leftKerningGroup = "boBae-lao";
leftMetricsKey = "boBae-lao";
rightKerningGroup = "noNok-lao";
rightMetricsKey = "doDek-lao";
unicode = 0E9E;
subCategory = Spacing;
},
